<svg width="19" height="18" viewBox="0 0 19 18" fill="none" xmlns="http://www.w3.org/2000/svg">
<g id="Group 7195">
<path id="Vector" d="M1 8.79506C1 5.70071 1 4.15354 1.96129 3.19224C2.92258 2.23096 4.46975 2.23096 7.5641 2.23096H10.8461C13.9405 2.23096 15.4877 2.23096 16.4489 3.19224C17.4102 4.15354 17.4102 5.70071 17.4102 8.79506V10.4361C17.4102 13.5304 17.4102 15.0776 16.4489 16.0389C15.4877 17.0002 13.9405 17.0002 10.8461 17.0002H7.5641C4.46975 17.0002 2.92258 17.0002 1.96129 16.0389C1 15.0776 1 13.5304 1 10.4361V8.79506Z" stroke="#8DC63F" stroke-width="2"/>
<path id="Vector_2" opacity="0.5" d="M5.10254 2.23077V1" stroke="#8DC63F" stroke-width="2" stroke-linecap="round"/>
<path id="Vector_3" opacity="0.5" d="M13.3076 2.23077V1" stroke="#8DC63F" stroke-width="2" stroke-linecap="round"/>
<path id="Vector_4" opacity="0.5" d="M1.41016 6.3335H16.9999" stroke="#8DC63F" stroke-width="2" stroke-linecap="round"/>
<path id="Vector_5" d="M14.1283 12.8977C14.1283 13.3508 13.761 13.7182 13.3078 13.7182C12.8546 13.7182 12.4873 13.3508 12.4873 12.8977C12.4873 12.4445 12.8546 12.0771 13.3078 12.0771C13.761 12.0771 14.1283 12.4445 14.1283 12.8977Z" fill="#8DC63F"/>
<path id="Vector_6" d="M14.1283 9.61543C14.1283 10.0686 13.761 10.4359 13.3078 10.4359C12.8546 10.4359 12.4873 10.0686 12.4873 9.61543C12.4873 9.16227 12.8546 8.79492 13.3078 8.79492C13.761 8.79492 14.1283 9.16227 14.1283 9.61543Z" fill="#8DC63F"/>
<path id="Vector_7" d="M10.0258 12.8977C10.0258 13.3508 9.65845 13.7182 9.20528 13.7182C8.75211 13.7182 8.38477 13.3508 8.38477 12.8977C8.38477 12.4445 8.75211 12.0771 9.20528 12.0771C9.65845 12.0771 10.0258 12.4445 10.0258 12.8977Z" fill="#8DC63F"/>
<path id="Vector_8" d="M10.0258 9.61543C10.0258 10.0686 9.65845 10.4359 9.20528 10.4359C8.75211 10.4359 8.38477 10.0686 8.38477 9.61543C8.38477 9.16227 8.75211 8.79492 9.20528 8.79492C9.65845 8.79492 10.0258 9.16227 10.0258 9.61543Z" fill="#8DC63F"/>
<path id="Vector_9" d="M5.92325 12.8977C5.92325 13.3508 5.55589 13.7182 5.10274 13.7182C4.64959 13.7182 4.28223 13.3508 4.28223 12.8977C4.28223 12.4445 4.64959 12.0771 5.10274 12.0771C5.55589 12.0771 5.92325 12.4445 5.92325 12.8977Z" fill="#8DC63F"/>
<path id="Vector_10" d="M5.92325 9.61543C5.92325 10.0686 5.55589 10.4359 5.10274 10.4359C4.64959 10.4359 4.28223 10.0686 4.28223 9.61543C4.28223 9.16227 4.64959 8.79492 5.10274 8.79492C5.55589 8.79492 5.92325 9.16227 5.92325 9.61543Z" fill="#8DC63F"/>
</g>
</svg>
