<svg width="209" height="50" viewBox="0 0 209 50" fill="none" xmlns="http://www.w3.org/2000/svg">
<path d="M63.1373 18.162C62.34 18.6647 61.4127 18.994 60.3553 19.15C59.3153 19.2887 58.3447 19.2627 57.4433 19.072C56.334 18.864 55.3027 18.474 54.3493 17.902C53.4133 17.33 52.694 16.576 52.1913 15.64C51.6193 14.6 51.3073 13.2307 51.2553 11.532C51.2553 11.0813 51.264 10.4313 51.2813 9.582C51.316 8.73267 51.3333 8.178 51.3333 7.918C51.3333 7.502 51.472 7.15533 51.7493 6.878C52.044 6.58333 52.3993 6.436 52.8153 6.436C53.2313 6.436 53.578 6.58333 53.8553 6.878C54.15 7.15533 54.2973 7.502 54.2973 7.918C54.2973 8.19533 54.28 8.74133 54.2453 9.556C54.228 10.3707 54.228 11.0033 54.2453 11.454C54.28 12.6847 54.462 13.612 54.7913 14.236C55.0513 14.6867 55.4587 15.0853 56.0133 15.432C56.568 15.7787 57.218 16.0127 57.9633 16.134C58.726 16.2727 59.4453 16.29 60.1213 16.186C60.7973 16.0647 61.352 15.8393 61.7853 15.51C62.132 15.2673 62.3573 15.0333 62.4613 14.808C62.5133 14.704 62.548 14.6087 62.5653 14.522C62.6 14.418 62.652 14.262 62.7213 14.054L62.9293 13.404C62.9467 13.3173 62.9813 13.2393 63.0333 13.17C62.9293 11.35 62.7647 9.66 62.5393 8.1C62.4873 7.70133 62.5827 7.33733 62.8253 7.008C63.068 6.67867 63.3887 6.488 63.7873 6.436C64.2033 6.36667 64.576 6.45333 64.9053 6.696C65.2347 6.93867 65.434 7.268 65.5033 7.684C65.642 8.724 65.7547 9.764 65.8413 10.804C65.9453 11.8267 66.0147 13.0053 66.0493 14.34C66.084 15.6747 66.1013 16.654 66.1013 17.278C66.1187 17.902 66.1187 19.0373 66.1013 20.684C66.1013 22.3133 66.1013 23.2753 66.1013 23.57C66.1013 23.986 65.954 24.3413 65.6593 24.636C65.382 24.9133 65.0353 25.052 64.6193 25.052C64.2033 25.052 63.848 24.9133 63.5533 24.636C63.276 24.3413 63.1373 23.986 63.1373 23.57V18.162ZM82.8614 25.026C80.1227 25.026 76.604 24.9827 72.3054 24.896C71.8547 24.896 71.4734 24.74 71.1614 24.428C70.8494 24.0987 70.702 23.7087 70.7194 23.258C70.7194 23.102 70.7367 22.9547 70.7714 22.816C70.2167 18.2573 69.9827 13.4907 70.0694 8.516C70.0347 8.36 70.0174 8.19533 70.0174 8.022C70.0174 7.58867 70.1734 7.216 70.4854 6.904C70.8147 6.57467 71.2047 6.41867 71.6554 6.436C73.5794 6.45333 77.1847 6.462 82.4714 6.462C82.9221 6.462 83.3034 6.618 83.6154 6.93C83.9274 7.242 84.0834 7.62333 84.0834 8.074C84.0834 8.52467 83.9274 8.906 83.6154 9.218C83.3034 9.53 82.9221 9.686 82.4714 9.686H73.2934C73.2934 11.09 73.3107 12.4507 73.3454 13.768C75.0614 13.8027 77.8607 13.7767 81.7434 13.69C82.1767 13.6727 82.558 13.82 82.8874 14.132C83.2167 14.444 83.3814 14.8253 83.3814 15.276C83.3987 15.7093 83.2514 16.0907 82.9394 16.42C82.6274 16.7493 82.246 16.914 81.7954 16.914C78.0167 17.0007 75.252 17.0353 73.5014 17.018C73.6054 18.4567 73.7354 20.0167 73.8914 21.698C77.3927 21.7673 80.3827 21.802 82.8614 21.802C83.3121 21.802 83.6934 21.958 84.0054 22.27C84.3174 22.582 84.4734 22.9633 84.4734 23.414C84.4734 23.8647 84.3174 24.246 84.0054 24.558C83.6934 24.87 83.3121 25.026 82.8614 25.026ZM87.3429 25.182C87.3256 25.182 87.1349 25.156 86.7709 25.104C86.6149 25.0867 86.4936 25.078 86.4069 25.078C85.9909 25.078 85.6356 24.9393 85.3409 24.662C85.0636 24.3673 84.9249 24.012 84.9249 23.596C84.9249 23.18 85.0636 22.8333 85.3409 22.556C85.6356 22.2613 85.9909 22.114 86.4069 22.114C86.5976 22.114 86.8316 22.1313 87.1089 22.166C87.1263 22.166 87.1956 22.1747 87.3169 22.192C87.4383 22.192 87.5336 22.2007 87.6029 22.218C87.7416 22.2353 87.8456 22.2353 87.9149 22.218C88.1056 21.9233 88.2616 21.5593 88.3829 21.126C88.6256 20.2593 88.7903 19.072 88.8769 17.564C89.0156 15.7267 89.0069 13.6727 88.8509 11.402C88.8336 11.2113 88.7556 10.5873 88.6169 9.53C88.5649 9.062 88.5303 8.724 88.5129 8.516C88.4956 8.34267 88.4869 8.204 88.4869 8.1C88.4696 8.01333 88.4696 7.92667 88.4869 7.84C88.4869 7.75333 88.4956 7.66667 88.5129 7.58C88.5823 7.28533 88.7296 7.034 88.9549 6.826C89.0763 6.722 89.2063 6.63533 89.3449 6.566C89.4836 6.49667 89.5876 6.462 89.6569 6.462L89.7869 6.436C89.8563 6.41867 89.9516 6.41 90.0729 6.41C90.2116 6.39267 90.3936 6.384 90.6189 6.384C90.9656 6.36667 91.4249 6.36667 91.9969 6.384C92.8983 6.40133 93.5829 6.41867 94.0509 6.436C94.2589 6.436 94.5883 6.45333 95.0389 6.488L96.1049 6.566H96.1569C96.1743 6.566 96.1916 6.566 96.2089 6.566C96.2436 6.54867 96.3043 6.53133 96.3909 6.514C96.4776 6.49667 96.5816 6.47933 96.7029 6.462C97.4483 6.358 98.0723 6.488 98.5749 6.852C99.4243 7.476 99.9009 8.47267 100.005 9.842C100.04 10.2233 100.048 10.6653 100.031 11.168C100.031 11.2547 100.022 11.402 100.005 11.61C99.9876 11.818 99.9789 11.974 99.9789 12.078V18.006C99.9789 20.4327 99.9096 22.3307 99.7709 23.7C99.7363 24.0987 99.5629 24.4367 99.2509 24.714C98.9389 24.974 98.5749 25.0867 98.1589 25.052C97.7603 25.0173 97.4223 24.844 97.1449 24.532C96.8849 24.22 96.7723 23.856 96.8069 23.44C96.9283 22.1573 96.9976 20.346 97.0149 18.006V12.026C97.0149 11.922 97.0149 11.7487 97.0149 11.506C97.0323 11.2633 97.0496 11.1073 97.0669 11.038C97.0843 10.6567 97.0756 10.336 97.0409 10.076C97.0236 9.816 96.9889 9.608 96.9369 9.452C96.5383 9.52133 96.2263 9.54733 96.0009 9.53C95.7583 9.53 95.4029 9.51267 94.9349 9.478L93.8949 9.4C93.4616 9.38267 92.8203 9.36533 91.9709 9.348H91.6069C91.7283 10.336 91.7976 10.9513 91.8149 11.194C91.9709 13.6553 91.9796 15.8393 91.8409 17.746C91.7369 19.4447 91.5376 20.8313 91.2429 21.906C90.7923 23.5527 90.0643 24.5753 89.0589 24.974C88.5736 25.1647 88.0016 25.234 87.3429 25.182Z" fill="#8DC63F"/>
<path d="M109.668 24.922C108.49 24.6447 107.38 24.1853 106.34 23.544C105.318 22.8853 104.512 22.1053 103.922 21.204C103.246 20.164 102.813 19.02 102.622 17.772C102.432 16.524 102.466 15.3107 102.726 14.132C102.986 12.936 103.428 11.8353 104.052 10.83C104.694 9.738 105.5 8.828 106.47 8.1C107.458 7.35467 108.602 6.826 109.902 6.514C111.202 6.202 112.598 6.26267 114.088 6.696C114.643 6.852 115.128 7.02533 115.544 7.216C115.978 7.40667 116.359 7.658 116.688 7.97C117.035 8.26467 117.295 8.50733 117.468 8.698C117.642 8.87133 117.884 9.17467 118.196 9.608C118.508 10.024 118.716 10.2927 118.82 10.414C119.098 10.726 119.202 11.0987 119.132 11.532C119.08 11.948 118.881 12.2773 118.534 12.52C118.188 12.7627 117.789 12.858 117.338 12.806C116.905 12.754 116.567 12.5633 116.324 12.234L115.57 11.35C115.31 11.0033 115.128 10.7693 115.024 10.648C114.92 10.5267 114.764 10.3793 114.556 10.206C114.366 10.0327 114.166 9.90267 113.958 9.816C113.768 9.72933 113.508 9.64267 113.178 9.556C111.861 9.20933 110.648 9.28733 109.538 9.79C108.446 10.2927 107.536 11.1247 106.808 12.286C106.098 13.4473 105.725 14.6953 105.69 16.03C105.656 17.3647 105.976 18.5607 106.652 19.618C106.999 20.1553 107.51 20.6407 108.186 21.074C108.862 21.5073 109.59 21.8107 110.37 21.984C112.034 22.348 113.317 22.0707 114.218 21.152C114.478 20.8747 114.773 20.45 115.102 19.878C115.709 18.6647 116.012 18.0493 116.012 18.032C116.238 17.668 116.558 17.434 116.974 17.33C117.408 17.2087 117.815 17.252 118.196 17.46C118.578 17.6507 118.829 17.954 118.95 18.37C119.072 18.7687 119.028 19.1413 118.82 19.488C118.716 19.6613 118.621 19.8347 118.534 20.008L118.222 20.632L117.962 21.178C117.529 22.01 117.078 22.6687 116.61 23.154C115.986 23.778 115.267 24.2633 114.452 24.61C113.638 24.9393 112.832 25.104 112.034 25.104C111.254 25.1213 110.466 25.0607 109.668 24.922ZM134.481 25.026C131.742 25.026 128.223 24.9827 123.925 24.896C123.474 24.896 123.093 24.74 122.781 24.428C122.469 24.0987 122.321 23.7087 122.339 23.258C122.339 23.102 122.356 22.9547 122.391 22.816C121.836 18.2573 121.602 13.4907 121.689 8.516C121.654 8.36 121.637 8.19533 121.637 8.022C121.637 7.58867 121.793 7.216 122.105 6.904C122.434 6.57467 122.824 6.41867 123.275 6.436C125.199 6.45333 128.804 6.462 134.091 6.462C134.541 6.462 134.923 6.618 135.235 6.93C135.547 7.242 135.703 7.62333 135.703 8.074C135.703 8.52467 135.547 8.906 135.235 9.218C134.923 9.53 134.541 9.686 134.091 9.686H124.913C124.913 11.09 124.93 12.4507 124.965 13.768C126.681 13.8027 129.48 13.7767 133.363 13.69C133.796 13.6727 134.177 13.82 134.507 14.132C134.836 14.444 135.001 14.8253 135.001 15.276C135.018 15.7093 134.871 16.0907 134.559 16.42C134.247 16.7493 133.865 16.914 133.415 16.914C129.636 17.0007 126.871 17.0353 125.121 17.018C125.225 18.4567 125.355 20.0167 125.511 21.698C129.012 21.7673 132.002 21.802 134.481 21.802C134.931 21.802 135.313 21.958 135.625 22.27C135.937 22.582 136.093 22.9633 136.093 23.414C136.093 23.8647 135.937 24.246 135.625 24.558C135.313 24.87 134.931 25.026 134.481 25.026ZM138.676 23.7C138.555 21.9667 138.546 20.034 138.65 17.902C138.806 14.1927 138.884 12.234 138.884 12.026V8.594C138.901 8.35133 138.979 8.126 139.118 7.918C139.569 7.17267 140.409 6.65267 141.64 6.358C141.813 6.306 142.091 6.27133 142.472 6.254C142.767 6.23667 143.139 6.228 143.59 6.228C144.474 6.21067 145.514 6.202 146.71 6.202C147.923 6.202 148.972 6.21067 149.856 6.228C150.324 6.228 150.697 6.23667 150.974 6.254C151.39 6.27133 151.676 6.306 151.832 6.358C152.993 6.65267 153.756 7.19 154.12 7.97C154.207 8.16067 154.259 8.40333 154.276 8.698C154.293 8.854 154.311 9.05333 154.328 9.296C154.345 9.72933 154.354 10.31 154.354 11.038C154.354 12.2687 154.345 13.9327 154.328 16.03C154.311 17.6767 154.267 20.1813 154.198 23.544C154.198 23.96 154.051 24.3153 153.756 24.61C153.461 24.8873 153.106 25.0173 152.69 25C152.274 25 151.919 24.8527 151.624 24.558C151.347 24.2633 151.217 23.908 151.234 23.492C151.303 20.1467 151.347 17.6507 151.364 16.004C151.381 13.924 151.39 12.2773 151.39 11.064C151.373 10.3533 151.364 9.79867 151.364 9.4L151.338 9.296C151.286 9.27867 151.225 9.26133 151.156 9.244H151.104C151.087 9.244 151.052 9.244 151 9.244C150.948 9.22667 150.896 9.218 150.844 9.218C150.584 9.20067 150.229 9.192 149.778 9.192C148.929 9.17467 147.906 9.166 146.71 9.166C145.549 9.166 144.535 9.17467 143.668 9.192C143.235 9.20933 142.879 9.218 142.602 9.218C142.533 9.23533 142.481 9.244 142.446 9.244H142.342C142.151 9.27867 141.987 9.322 141.848 9.374V12.026C141.848 12.494 141.77 14.496 141.614 18.032C141.51 20.0427 141.519 21.8453 141.64 23.44C141.675 23.856 141.553 24.22 141.276 24.532C141.016 24.844 140.678 25.0173 140.262 25.052C139.863 25.0867 139.508 24.974 139.196 24.714C138.884 24.4367 138.711 24.0987 138.676 23.7ZM165.685 23.44C165.685 23.8907 165.521 24.272 165.191 24.584C164.879 24.896 164.498 25.0433 164.047 25.026C163.597 25.026 163.215 24.87 162.903 24.558C162.591 24.2287 162.444 23.8387 162.461 23.388C162.6 16.576 162.669 12.0347 162.669 9.764L158.119 9.66C157.669 9.66 157.287 9.504 156.975 9.192C156.663 8.86267 156.507 8.47267 156.507 8.022C156.525 7.57133 156.689 7.19 157.001 6.878C157.331 6.566 157.721 6.41867 158.171 6.436C159.437 6.45333 161.413 6.488 164.099 6.54C166.803 6.592 168.857 6.63533 170.261 6.67C170.712 6.67 171.093 6.83467 171.405 7.164C171.717 7.476 171.865 7.85733 171.847 8.308C171.847 8.75867 171.683 9.14 171.353 9.452C171.041 9.764 170.66 9.91133 170.209 9.894C169.013 9.87667 167.575 9.85067 165.893 9.816C165.893 12.104 165.824 16.6453 165.685 23.44ZM176.286 24.792C175.957 25.0347 175.584 25.1213 175.168 25.052C174.769 25 174.449 24.8093 174.206 24.48C173.946 24.1333 173.859 23.7433 173.946 23.31V23.258C174.154 20.7967 174.249 18.24 174.232 15.588C174.215 12.936 174.033 10.4227 173.686 8.048C173.617 7.632 173.703 7.25933 173.946 6.93C174.189 6.60067 174.509 6.41 174.908 6.358C175.324 6.28867 175.697 6.37533 176.026 6.618C176.355 6.86067 176.546 7.18133 176.598 7.58C177.153 11.1853 177.317 15.3973 177.092 20.216C177.82 19.5053 178.522 18.7427 179.198 17.928C179.874 17.096 181.131 15.38 182.968 12.78L186.582 6.982C186.79 6.63533 187.093 6.41867 187.492 6.332C187.891 6.228 188.263 6.28867 188.61 6.514C188.905 6.68733 189.104 6.93 189.208 7.242C189.329 7.53667 189.347 7.84 189.26 8.152V8.204C189.243 9.31333 189.182 10.6653 189.078 12.26C188.974 13.8373 188.879 15.1373 188.792 16.16C188.723 17.1653 188.714 18.3613 188.766 19.748C188.818 21.1347 188.957 22.3307 189.182 23.336C189.269 23.7347 189.191 24.1073 188.948 24.454C188.723 24.7833 188.411 24.9913 188.012 25.078C187.613 25.1647 187.241 25.0953 186.894 24.87C186.565 24.6273 186.357 24.3067 186.27 23.908C185.958 22.4867 185.793 20.8053 185.776 18.864C185.759 16.9227 185.828 15.1547 185.984 13.56C185.256 14.756 184.571 15.7787 183.93 16.628C183.306 17.46 182.587 18.396 181.772 19.436C180.957 20.476 180.082 21.4467 179.146 22.348C178.227 23.2493 177.274 24.064 176.286 24.792ZM205.485 24.532C205.277 24.2893 205.043 24.038 204.783 23.778L203.639 22.582C203.309 22.218 203.006 21.8713 202.729 21.542C202.157 20.866 201.385 19.8087 200.415 18.37L199.245 16.706L196.671 18.916C196.723 20.4587 196.801 21.9147 196.905 23.284C196.939 23.7347 196.809 24.1333 196.515 24.48C196.22 24.8093 195.847 24.9913 195.397 25.026C194.963 25.0607 194.573 24.9307 194.227 24.636C193.897 24.3413 193.715 23.9773 193.681 23.544C193.577 22.1573 193.49 20.6667 193.421 19.072C193.161 18.5867 193.152 18.0927 193.395 17.59C193.343 15.6313 193.317 12.4073 193.317 7.918C193.317 7.46733 193.473 7.086 193.785 6.774C194.097 6.462 194.478 6.306 194.929 6.306C195.379 6.306 195.761 6.462 196.073 6.774C196.385 7.086 196.541 7.46733 196.541 7.918C196.541 11.2807 196.549 13.56 196.567 14.756C198.733 12.8493 201.403 10.2493 204.575 6.956C204.887 6.62667 205.259 6.45333 205.693 6.436C206.143 6.41867 206.533 6.566 206.863 6.878C207.192 7.17267 207.365 7.54533 207.383 7.996C207.4 8.42933 207.261 8.81067 206.967 9.14C204.869 11.2893 203.093 13.066 201.637 14.47C202.001 14.9553 202.486 15.6487 203.093 16.55C204.011 17.8847 204.722 18.8553 205.225 19.462C205.502 19.7913 205.805 20.1293 206.135 20.476L207.201 21.594L208.137 22.556C208.379 22.816 208.457 23.1453 208.371 23.544C208.301 23.9427 208.154 24.298 207.929 24.61C207.703 24.9047 207.313 25.0433 206.759 25.026C206.221 25.0087 205.797 24.844 205.485 24.532Z" fill="#2D2D2D"/>
<path d="M56.3425 38.7C56.1025 38.0933 55.8592 37.4833 55.6125 36.87C55.5659 36.8833 55.5192 36.89 55.4725 36.89C55.1659 36.89 54.7259 36.9033 54.1525 36.93C53.5859 36.95 53.1759 36.9633 52.9225 36.97C52.6892 37.55 52.4859 38.1167 52.3125 38.67C52.2659 38.7967 52.1792 38.89 52.0525 38.95C51.9325 39.01 51.8059 39.0167 51.6725 38.97C51.5459 38.9233 51.4525 38.84 51.3925 38.72C51.3325 38.5933 51.3259 38.4633 51.3725 38.33C51.4925 37.9233 51.6325 37.5167 51.7925 37.11L52.2025 36.09L52.6925 34.95L53.1325 33.92C53.1525 33.8733 53.2025 33.7367 53.2825 33.51C53.3625 33.29 53.4325 33.11 53.4925 32.97C53.5859 32.73 53.6692 32.5367 53.7425 32.39C53.7892 32.2967 53.8325 32.2167 53.8725 32.15C53.9592 32.0233 54.0592 31.9333 54.1725 31.88C54.3592 31.7933 54.5392 31.82 54.7125 31.96C54.7592 31.9933 54.8025 32.04 54.8425 32.1C54.8825 32.1533 54.9259 32.23 54.9725 32.33C55.0392 32.4633 55.1192 32.6467 55.2125 32.88C55.3325 33.1867 55.4359 33.47 55.5225 33.73C56.1225 35.47 56.7025 36.9867 57.2625 38.28C57.3359 38.42 57.3425 38.5533 57.2825 38.68C57.2292 38.8 57.1392 38.89 57.0125 38.95C56.8859 39.0033 56.7559 39.0067 56.6225 38.96C56.4959 38.9133 56.4025 38.8267 56.3425 38.7ZM53.3425 35.96C53.4759 35.9533 53.7625 35.9433 54.2025 35.93C54.6492 35.91 54.9925 35.8967 55.2325 35.89L54.5825 34.05C54.5225 33.8767 54.4492 33.6833 54.3625 33.47C54.3292 33.57 54.2892 33.6833 54.2425 33.81L54.1225 34.13L54.0525 34.3L53.3425 35.96ZM59.457 39.02C59.337 39.0133 59.2337 38.97 59.147 38.89C59.0537 38.8567 58.9737 38.8 58.907 38.72C58.847 38.64 58.8137 38.55 58.807 38.45C58.7737 37.85 58.7537 37.2433 58.747 36.63C58.7403 36.0167 58.7403 35.26 58.747 34.36C58.7603 33.4533 58.767 32.83 58.767 32.49C58.767 32.37 58.8037 32.2667 58.877 32.18C58.957 32.0867 59.0537 32.0267 59.167 32H59.187C60.6403 31.6267 61.8103 31.6867 62.697 32.18C63.177 32.4533 63.487 32.7967 63.627 33.21C63.7603 33.6033 63.727 34.0033 63.527 34.41C63.387 34.6833 63.1837 34.9333 62.917 35.16C63.197 35.3067 63.4203 35.51 63.587 35.77C63.7537 36.03 63.857 36.3133 63.897 36.62C63.977 36.9067 63.9503 37.2233 63.817 37.57C63.6837 37.91 63.477 38.1933 63.197 38.42C63.0237 38.56 62.8237 38.6767 62.597 38.77C62.3703 38.8633 62.1603 38.9333 61.967 38.98C61.7803 39.02 61.5437 39.0467 61.257 39.06C60.977 39.0733 60.7637 39.0767 60.617 39.07C60.477 39.07 60.2637 39.06 59.977 39.04C59.6903 39.0267 59.517 39.02 59.457 39.02ZM59.957 38.04C60.317 38.0533 60.647 38.0633 60.947 38.07C61.2537 38.0767 61.5537 38.0467 61.847 37.98C62.1337 37.9133 62.377 37.8 62.577 37.64C62.7037 37.54 62.797 37.4 62.857 37.22C62.917 37.04 62.9337 36.87 62.907 36.71C62.8803 36.55 62.8137 36.4 62.707 36.26C62.607 36.12 62.4737 36.0267 62.307 35.98C62.0803 35.9133 61.867 35.88 61.667 35.88C61.467 35.8733 61.087 35.8667 60.527 35.86C60.147 35.8467 59.9203 35.84 59.847 35.84C59.8137 35.84 59.7803 35.8367 59.747 35.83C59.747 36.6367 59.7603 37.37 59.787 38.03C59.827 38.0367 59.8837 38.04 59.957 38.04ZM59.747 34.85C59.7803 34.8433 59.957 34.8433 60.277 34.85C60.6037 34.8567 60.8437 34.86 60.997 34.86C61.157 34.8533 61.307 34.8333 61.447 34.8C61.7003 34.7467 61.937 34.64 62.157 34.48C62.377 34.32 62.5337 34.1467 62.627 33.96C62.707 33.8067 62.727 33.6633 62.687 33.53C62.627 33.3633 62.4637 33.2067 62.197 33.06C61.617 32.7267 60.807 32.67 59.767 32.89L59.747 34.85ZM67.2746 38.52C67.2746 38.0067 67.2913 37.1033 67.3246 35.81C67.358 34.51 67.368 33.5267 67.3546 32.86V32.84L65.4746 32.78C65.3346 32.7733 65.218 32.72 65.1246 32.62C65.0313 32.52 64.988 32.4 64.9946 32.26C65.0013 32.12 65.0546 32.0033 65.1546 31.91C65.2546 31.8167 65.3746 31.7733 65.5146 31.78C67.1546 31.84 68.698 31.87 70.1446 31.87C70.2846 31.87 70.4013 31.92 70.4946 32.02C70.5946 32.1133 70.6446 32.23 70.6446 32.37C70.6446 32.51 70.5946 32.63 70.4946 32.73C70.4013 32.8233 70.2846 32.87 70.1446 32.87C69.5646 32.87 68.968 32.8667 68.3546 32.86C68.368 33.52 68.358 34.5 68.3246 35.8C68.2913 37.1 68.2746 38.0067 68.2746 38.52C68.2746 38.66 68.2246 38.78 68.1246 38.88C68.0313 38.9733 67.9146 39.02 67.7746 39.02C67.6346 39.02 67.5146 38.9733 67.4146 38.88C67.3213 38.78 67.2746 38.66 67.2746 38.52ZM74.9571 38.98C73.8371 39.1333 72.9271 38.87 72.2271 38.19C71.6138 37.59 71.2805 36.8033 71.2271 35.83C71.1938 35.0967 71.3405 34.39 71.6671 33.71C72.0005 33.0233 72.4938 32.51 73.1471 32.17C73.2338 31.9767 73.3805 31.8767 73.5871 31.87C73.6271 31.87 73.6905 31.8667 73.7771 31.86C73.8705 31.8533 73.9438 31.85 73.9971 31.85C74.0971 31.83 74.2005 31.8133 74.3071 31.8C74.4471 31.7733 74.5705 31.8033 74.6771 31.89C74.7305 31.9033 74.7805 31.9167 74.8271 31.93C75.0471 31.9833 75.2638 32.08 75.4771 32.22C75.6905 32.3533 75.8571 32.4733 75.9771 32.58C76.0838 32.68 76.2238 32.8233 76.3971 33.01C77.0905 33.7567 77.4905 34.51 77.5971 35.27C77.6838 35.8233 77.6305 36.37 77.4371 36.91C77.2438 37.4433 76.9271 37.9 76.4871 38.28C76.0471 38.66 75.5371 38.8933 74.9571 38.98ZM74.8171 37.98C75.3971 37.9 75.8638 37.6067 76.2171 37.1C76.5705 36.5867 76.7038 36.0233 76.6171 35.41C76.5305 34.8633 76.2105 34.29 75.6571 33.69C75.4371 33.45 75.2505 33.27 75.0971 33.15C74.9305 33.0233 74.7605 32.9367 74.5871 32.89C74.4605 32.8633 74.3105 32.85 74.1371 32.85C73.5105 33.0233 73.0271 33.3867 72.6871 33.94C72.3471 34.4933 72.1938 35.1033 72.2271 35.77C72.2671 36.49 72.5005 37.0567 72.9271 37.47C73.3938 37.9233 74.0238 38.0933 74.8171 37.98ZM79.6346 38.55C79.6013 37.8833 79.5646 36.8633 79.5246 35.49C79.5113 35.4433 79.5046 35.3933 79.5046 35.34C79.5046 35.3 79.5113 35.26 79.5246 35.22C79.4913 34.0467 79.4513 33.1 79.4046 32.38C79.398 32.24 79.438 32.12 79.5246 32.02C79.618 31.9133 79.7346 31.8567 79.8746 31.85C80.0146 31.8433 80.1346 31.8867 80.2346 31.98C80.3413 32.0667 80.398 32.18 80.4046 32.32C80.4446 32.9933 80.478 33.8333 80.5046 34.84C80.9046 34.84 81.5046 34.8467 82.3046 34.86C83.1046 34.8667 83.708 34.87 84.1146 34.87C84.1413 34.0633 84.1846 33.2067 84.2446 32.3C84.258 32.1667 84.3146 32.0567 84.4146 31.97C84.5213 31.8767 84.6413 31.8367 84.7746 31.85C84.9146 31.8567 85.028 31.9133 85.1146 32.02C85.208 32.12 85.2513 32.24 85.2446 32.38C85.1713 33.4267 85.1213 34.4167 85.0946 35.35V35.42C85.0613 36.48 85.0546 37.5133 85.0746 38.52C85.0746 38.66 85.028 38.78 84.9346 38.88C84.8413 38.98 84.7246 39.03 84.5846 39.03C84.4446 39.03 84.3246 38.9833 84.2246 38.89C84.1246 38.7967 84.0746 38.68 84.0746 38.54C84.0546 37.6933 84.058 36.8033 84.0846 35.87C83.6846 35.87 83.0913 35.8667 82.3046 35.86C81.518 35.8467 80.928 35.84 80.5346 35.84C80.5613 36.7933 80.5946 37.6767 80.6346 38.49C80.6413 38.63 80.598 38.7533 80.5046 38.86C80.4113 38.96 80.2946 39.0133 80.1546 39.02C80.0213 39.0267 79.9013 38.9833 79.7946 38.89C79.6946 38.7967 79.6413 38.6833 79.6346 38.55ZM90.7372 38.98C89.6172 39.1333 88.7072 38.87 88.0072 38.19C87.3939 37.59 87.0606 36.8033 87.0072 35.83C86.9739 35.0967 87.1206 34.39 87.4472 33.71C87.7806 33.0233 88.2739 32.51 88.9272 32.17C89.0139 31.9767 89.1606 31.8767 89.3672 31.87C89.4072 31.87 89.4706 31.8667 89.5572 31.86C89.6506 31.8533 89.7239 31.85 89.7772 31.85C89.8772 31.83 89.9806 31.8133 90.0872 31.8C90.2272 31.7733 90.3506 31.8033 90.4572 31.89C90.5106 31.9033 90.5606 31.9167 90.6072 31.93C90.8272 31.9833 91.0439 32.08 91.2572 32.22C91.4706 32.3533 91.6372 32.4733 91.7572 32.58C91.8639 32.68 92.0039 32.8233 92.1772 33.01C92.8706 33.7567 93.2706 34.51 93.3772 35.27C93.4639 35.8233 93.4106 36.37 93.2172 36.91C93.0239 37.4433 92.7072 37.9 92.2672 38.28C91.8272 38.66 91.3172 38.8933 90.7372 38.98ZM90.5972 37.98C91.1772 37.9 91.6439 37.6067 91.9972 37.1C92.3506 36.5867 92.4839 36.0233 92.3972 35.41C92.3106 34.8633 91.9906 34.29 91.4372 33.69C91.2172 33.45 91.0306 33.27 90.8772 33.15C90.7106 33.0233 90.5406 32.9367 90.3672 32.89C90.2406 32.8633 90.0906 32.85 89.9172 32.85C89.2906 33.0233 88.8072 33.3867 88.4672 33.94C88.1272 34.4933 87.9739 35.1033 88.0072 35.77C88.0472 36.49 88.2806 37.0567 88.7072 37.47C89.1739 37.9233 89.8039 38.0933 90.5972 37.98ZM98.5347 39.02C98.4281 39.0267 98.3281 39.0033 98.2347 38.95C98.1414 38.89 98.0747 38.81 98.0347 38.71C97.8881 38.35 97.6714 37.8633 97.3847 37.25L96.8147 35.97L96.2547 34.57C96.2614 35.0833 96.2747 35.8167 96.2947 36.77C96.3147 37.7167 96.3281 38.29 96.3347 38.49C96.3347 38.63 96.2881 38.75 96.1947 38.85C96.1014 38.95 95.9847 39 95.8447 39C95.7047 39 95.5847 38.9533 95.4847 38.86C95.3847 38.7667 95.3347 38.65 95.3347 38.51C95.3347 38.3633 95.3181 37.69 95.2847 36.49C95.2581 35.29 95.2447 34.6167 95.2447 34.47C95.2514 34.3167 95.2547 33.6067 95.2547 32.34C95.2614 32.1333 95.3581 31.9867 95.5447 31.9C95.6581 31.84 95.7781 31.8267 95.9047 31.86C96.0314 31.8933 96.1314 31.9667 96.2047 32.08C96.4047 32.4067 96.5881 32.77 96.7547 33.17C96.9281 33.5633 97.1147 34.02 97.3147 34.54C97.5214 35.06 97.6614 35.4033 97.7347 35.57L98.5047 37.3C98.6114 37.0533 98.7747 36.7167 98.9947 36.29C99.2081 35.87 99.3414 35.6 99.3947 35.48C100.068 34 100.515 32.94 100.735 32.3C100.755 32.24 100.785 32.1867 100.825 32.14C100.905 31.9667 101.041 31.87 101.235 31.85C101.368 31.8367 101.488 31.8767 101.595 31.97C101.701 32.0567 101.761 32.17 101.775 32.31C101.801 32.6367 101.825 33.0033 101.845 33.41C101.865 33.8167 101.878 34.1467 101.885 34.4C101.898 34.6533 101.908 35.0233 101.915 35.51C101.921 35.99 101.925 36.3067 101.925 36.46V38.51C101.925 38.65 101.875 38.77 101.775 38.87C101.681 38.9633 101.565 39.01 101.425 39.01C101.285 39.01 101.165 38.9633 101.065 38.87C100.971 38.77 100.925 38.65 100.925 38.51C100.925 36.49 100.915 35.1933 100.895 34.62L100.295 35.9L99.8547 36.78C99.6347 37.2133 99.3681 37.8367 99.0547 38.65C99.0214 38.77 98.9547 38.8633 98.8547 38.93C98.7614 38.9967 98.6547 39.0267 98.5347 39.02ZM104.374 38.55C104.341 37.8833 104.304 36.8633 104.264 35.49C104.251 35.4433 104.244 35.3933 104.244 35.34C104.244 35.3 104.251 35.26 104.264 35.22C104.231 34.0467 104.191 33.1 104.144 32.38C104.137 32.24 104.177 32.12 104.264 32.02C104.357 31.9133 104.474 31.8567 104.614 31.85C104.754 31.8433 104.874 31.8867 104.974 31.98C105.081 32.0667 105.137 32.18 105.144 32.32C105.184 32.9933 105.217 33.8333 105.244 34.84C105.644 34.84 106.244 34.8467 107.044 34.86C107.844 34.8667 108.447 34.87 108.854 34.87C108.881 34.0633 108.924 33.2067 108.984 32.3C108.997 32.1667 109.054 32.0567 109.154 31.97C109.261 31.8767 109.381 31.8367 109.514 31.85C109.654 31.8567 109.767 31.9133 109.854 32.02C109.947 32.12 109.991 32.24 109.984 32.38C109.911 33.4267 109.861 34.4167 109.834 35.35V35.42C109.801 36.48 109.794 37.5133 109.814 38.52C109.814 38.66 109.767 38.78 109.674 38.88C109.581 38.98 109.464 39.03 109.324 39.03C109.184 39.03 109.064 38.9833 108.964 38.89C108.864 38.7967 108.814 38.68 108.814 38.54C108.794 37.6933 108.797 36.8033 108.824 35.87C108.424 35.87 107.831 35.8667 107.044 35.86C106.257 35.8467 105.667 35.84 105.274 35.84C105.301 36.7933 105.334 37.6767 105.374 38.49C105.381 38.63 105.337 38.7533 105.244 38.86C105.151 38.96 105.034 39.0133 104.894 39.02C104.761 39.0267 104.641 38.9833 104.534 38.89C104.434 38.7967 104.381 38.6833 104.374 38.55ZM116.416 38.7C116.176 38.0933 115.933 37.4833 115.686 36.87C115.639 36.8833 115.593 36.89 115.546 36.89C115.239 36.89 114.799 36.9033 114.226 36.93C113.659 36.95 113.249 36.9633 112.996 36.97C112.763 37.55 112.559 38.1167 112.386 38.67C112.339 38.7967 112.253 38.89 112.126 38.95C112.006 39.01 111.879 39.0167 111.746 38.97C111.619 38.9233 111.526 38.84 111.466 38.72C111.406 38.5933 111.399 38.4633 111.446 38.33C111.566 37.9233 111.706 37.5167 111.866 37.11L112.276 36.09L112.766 34.95L113.206 33.92C113.226 33.8733 113.276 33.7367 113.356 33.51C113.436 33.29 113.506 33.11 113.566 32.97C113.659 32.73 113.743 32.5367 113.816 32.39C113.863 32.2967 113.906 32.2167 113.946 32.15C114.033 32.0233 114.133 31.9333 114.246 31.88C114.433 31.7933 114.613 31.82 114.786 31.96C114.833 31.9933 114.876 32.04 114.916 32.1C114.956 32.1533 114.999 32.23 115.046 32.33C115.113 32.4633 115.193 32.6467 115.286 32.88C115.406 33.1867 115.509 33.47 115.596 33.73C116.196 35.47 116.776 36.9867 117.336 38.28C117.409 38.42 117.416 38.5533 117.356 38.68C117.303 38.8 117.213 38.89 117.086 38.95C116.959 39.0033 116.829 39.0067 116.696 38.96C116.569 38.9133 116.476 38.8267 116.416 38.7ZM113.416 35.96C113.549 35.9533 113.836 35.9433 114.276 35.93C114.723 35.91 115.066 35.8967 115.306 35.89L114.656 34.05C114.596 33.8767 114.523 33.6833 114.436 33.47C114.403 33.57 114.363 33.6833 114.316 33.81L114.196 34.13L114.126 34.3L113.416 35.96ZM119.31 38.7C119.277 38.82 119.204 38.91 119.09 38.97C118.977 39.03 118.86 39.0433 118.74 39.01C118.62 38.9767 118.53 38.9033 118.47 38.79C118.41 38.6767 118.397 38.56 118.43 38.44C118.79 37.1267 119.204 36.2267 119.67 35.74C119.364 35.6067 119.117 35.4333 118.93 35.22C118.73 34.98 118.61 34.68 118.57 34.32C118.537 33.96 118.574 33.66 118.68 33.42C119.034 32.5133 119.817 31.9833 121.03 31.83C121.297 31.7967 121.58 31.78 121.88 31.78C122.187 31.7733 122.53 31.78 122.91 31.8C123.29 31.82 123.524 31.83 123.61 31.83C123.644 31.8233 123.68 31.82 123.72 31.82C123.847 31.8267 123.954 31.8767 124.04 31.97C124.127 32.0633 124.167 32.1733 124.16 32.3C124.12 33.06 124.104 34.0467 124.11 35.26C124.184 35.3667 124.21 35.4833 124.19 35.61C124.177 35.6833 124.15 35.75 124.11 35.81C124.11 36.97 124.1 37.8967 124.08 38.59C124.074 38.71 124.024 38.8133 123.93 38.9C123.837 38.9867 123.727 39.0267 123.6 39.02C123.48 39.02 123.377 38.9733 123.29 38.88C123.204 38.7867 123.16 38.6767 123.16 38.55C123.18 37.89 123.19 37.0767 123.19 36.11H122.44C121.954 36.1167 121.544 36.1067 121.21 36.08C121.057 36.0667 120.917 36.05 120.79 36.03C120.757 36.0433 120.727 36.0567 120.7 36.07C120.427 36.23 120.18 36.5033 119.96 36.89C119.747 37.27 119.53 37.8733 119.31 38.7ZM120.68 35.09C121.26 34.8833 122.097 34.8533 123.19 35C123.19 34.08 123.2 33.3267 123.22 32.74C123.16 32.7333 123.027 32.7267 122.82 32.72C122.62 32.7067 122.474 32.7 122.38 32.7C122.287 32.6933 122.157 32.69 121.99 32.69C121.83 32.69 121.68 32.6933 121.54 32.7C121.407 32.7067 121.277 32.7167 121.15 32.73C120.297 32.8433 119.76 33.1867 119.54 33.76C119.487 33.9 119.467 34.0567 119.48 34.23C119.5 34.4033 119.55 34.5333 119.63 34.62C119.81 34.8333 120.16 34.99 120.68 35.09ZM134.507 38.84C133.861 38.1933 133.371 37.64 133.037 37.18L132.567 36.46C132.347 36.1333 132.174 35.89 132.047 35.73C131.654 36.0833 131.264 36.41 130.877 36.71C130.904 37.3233 130.937 37.9167 130.977 38.49C130.984 38.63 130.941 38.7533 130.847 38.86C130.761 38.96 130.647 39.0133 130.507 39.02C130.374 39.0333 130.254 38.9967 130.147 38.91C130.047 38.8167 129.991 38.7033 129.977 38.57C129.937 37.9967 129.907 37.4033 129.887 36.79C129.781 36.6233 129.774 36.4533 129.867 36.28C129.847 35.52 129.837 34.19 129.837 32.29C129.837 32.15 129.884 32.0333 129.977 31.94C130.077 31.84 130.197 31.79 130.337 31.79C130.477 31.79 130.594 31.84 130.687 31.94C130.787 32.0333 130.837 32.15 130.837 32.29C130.837 33.8567 130.841 34.9067 130.847 35.44C131.214 35.1333 131.607 34.7733 132.027 34.36L133.007 33.36L134.137 32.16C134.237 32.06 134.354 32.0067 134.487 32C134.627 31.9933 134.747 32.04 134.847 32.14C134.947 32.2333 135.001 32.35 135.007 32.49C135.014 32.6233 134.971 32.74 134.877 32.84C133.911 33.8733 133.207 34.6067 132.767 35.04C132.934 35.24 133.144 35.5367 133.397 35.93C133.657 36.3167 133.811 36.54 133.857 36.6C134.151 37.0133 134.601 37.5267 135.207 38.14C135.307 38.2333 135.357 38.35 135.357 38.49C135.357 38.63 135.307 38.75 135.207 38.85C135.114 38.9433 134.997 38.99 134.857 38.99C134.717 38.99 134.601 38.94 134.507 38.84ZM141.033 38.7C140.793 38.0933 140.549 37.4833 140.303 36.87C140.256 36.8833 140.209 36.89 140.163 36.89C139.856 36.89 139.416 36.9033 138.843 36.93C138.276 36.95 137.866 36.9633 137.613 36.97C137.379 37.55 137.176 38.1167 137.003 38.67C136.956 38.7967 136.869 38.89 136.743 38.95C136.623 39.01 136.496 39.0167 136.363 38.97C136.236 38.9233 136.143 38.84 136.083 38.72C136.023 38.5933 136.016 38.4633 136.063 38.33C136.183 37.9233 136.323 37.5167 136.483 37.11L136.893 36.09L137.383 34.95L137.823 33.92C137.843 33.8733 137.893 33.7367 137.973 33.51C138.053 33.29 138.123 33.11 138.183 32.97C138.276 32.73 138.359 32.5367 138.433 32.39C138.479 32.2967 138.523 32.2167 138.563 32.15C138.649 32.0233 138.749 31.9333 138.863 31.88C139.049 31.7933 139.229 31.82 139.403 31.96C139.449 31.9933 139.493 32.04 139.533 32.1C139.573 32.1533 139.616 32.23 139.663 32.33C139.729 32.4633 139.809 32.6467 139.903 32.88C140.023 33.1867 140.126 33.47 140.213 33.73C140.813 35.47 141.393 36.9867 141.953 38.28C142.026 38.42 142.033 38.5533 141.973 38.68C141.919 38.8 141.829 38.89 141.703 38.95C141.576 39.0033 141.446 39.0067 141.313 38.96C141.186 38.9133 141.093 38.8267 141.033 38.7ZM138.033 35.96C138.166 35.9533 138.453 35.9433 138.893 35.93C139.339 35.91 139.683 35.8967 139.923 35.89L139.273 34.05C139.213 33.8767 139.139 33.6833 139.053 33.47C139.019 33.57 138.979 33.6833 138.933 33.81L138.813 34.13L138.743 34.3L138.033 35.96ZM143.677 38.55C143.644 37.8833 143.607 36.8633 143.567 35.49C143.554 35.4433 143.547 35.3933 143.547 35.34C143.547 35.3 143.554 35.26 143.567 35.22C143.534 34.0467 143.494 33.1 143.447 32.38C143.441 32.24 143.481 32.12 143.567 32.02C143.661 31.9133 143.777 31.8567 143.917 31.85C144.057 31.8433 144.177 31.8867 144.277 31.98C144.384 32.0667 144.441 32.18 144.447 32.32C144.487 32.9933 144.521 33.8333 144.547 34.84C144.947 34.84 145.547 34.8467 146.347 34.86C147.147 34.8667 147.751 34.87 148.157 34.87C148.184 34.0633 148.227 33.2067 148.287 32.3C148.301 32.1667 148.357 32.0567 148.457 31.97C148.564 31.8767 148.684 31.8367 148.817 31.85C148.957 31.8567 149.071 31.9133 149.157 32.02C149.251 32.12 149.294 32.24 149.287 32.38C149.214 33.4267 149.164 34.4167 149.137 35.35V35.42C149.104 36.48 149.097 37.5133 149.117 38.52C149.117 38.66 149.071 38.78 148.977 38.88C148.884 38.98 148.767 39.03 148.627 39.03C148.487 39.03 148.367 38.9833 148.267 38.89C148.167 38.7967 148.117 38.68 148.117 38.54C148.097 37.6933 148.101 36.8033 148.127 35.87C147.727 35.87 147.134 35.8667 146.347 35.86C145.561 35.8467 144.971 35.84 144.577 35.84C144.604 36.7933 144.637 37.6767 144.677 38.49C144.684 38.63 144.641 38.7533 144.547 38.86C144.454 38.96 144.337 39.0133 144.197 39.02C144.064 39.0267 143.944 38.9833 143.837 38.89C143.737 38.7967 143.684 38.6833 143.677 38.55ZM155.719 38.7C155.479 38.0933 155.236 37.4833 154.989 36.87C154.942 36.8833 154.896 36.89 154.849 36.89C154.542 36.89 154.102 36.9033 153.529 36.93C152.962 36.95 152.552 36.9633 152.299 36.97C152.066 37.55 151.862 38.1167 151.689 38.67C151.642 38.7967 151.556 38.89 151.429 38.95C151.309 39.01 151.182 39.0167 151.049 38.97C150.922 38.9233 150.829 38.84 150.769 38.72C150.709 38.5933 150.702 38.4633 150.749 38.33C150.869 37.9233 151.009 37.5167 151.169 37.11L151.579 36.09L152.069 34.95L152.509 33.92C152.529 33.8733 152.579 33.7367 152.659 33.51C152.739 33.29 152.809 33.11 152.869 32.97C152.962 32.73 153.046 32.5367 153.119 32.39C153.166 32.2967 153.209 32.2167 153.249 32.15C153.336 32.0233 153.436 31.9333 153.549 31.88C153.736 31.7933 153.916 31.82 154.089 31.96C154.136 31.9933 154.179 32.04 154.219 32.1C154.259 32.1533 154.302 32.23 154.349 32.33C154.416 32.4633 154.496 32.6467 154.589 32.88C154.709 33.1867 154.812 33.47 154.899 33.73C155.499 35.47 156.079 36.9867 156.639 38.28C156.712 38.42 156.719 38.5533 156.659 38.68C156.606 38.8 156.516 38.89 156.389 38.95C156.262 39.0033 156.132 39.0067 155.999 38.96C155.872 38.9133 155.779 38.8267 155.719 38.7ZM152.719 35.96C152.852 35.9533 153.139 35.9433 153.579 35.93C154.026 35.91 154.369 35.8967 154.609 35.89L153.959 34.05C153.899 33.8767 153.826 33.6833 153.739 33.47C153.706 33.57 153.666 33.6833 153.619 33.81L153.499 34.13L153.429 34.3L152.719 35.96ZM158.334 39.14C158.267 39.14 158.19 39.1333 158.104 39.12C158.024 39.1067 157.934 39.0867 157.834 39.06C157.74 39.04 157.687 39.03 157.674 39.03C157.554 39.0033 157.457 38.94 157.384 38.84C157.31 38.7333 157.287 38.62 157.314 38.5C157.34 38.3733 157.404 38.2733 157.504 38.2C157.61 38.1267 157.727 38.1033 157.854 38.13C157.927 38.1433 157.994 38.1567 158.054 38.17C158.114 38.1833 158.154 38.1933 158.174 38.2C158.2 38.2067 158.224 38.2133 158.244 38.22C158.264 38.22 158.284 38.22 158.304 38.22C158.33 38.22 158.39 38.17 158.484 38.07C158.564 37.9833 158.637 37.78 158.704 37.46C158.764 37.1467 158.807 36.75 158.834 36.27C158.854 35.8233 158.85 35.0767 158.824 34.03C158.824 33.9833 158.81 33.8633 158.784 33.67C158.744 33.43 158.72 33.24 158.714 33.1C158.687 32.44 158.907 32.0367 159.374 31.89C159.427 31.8767 159.517 31.8667 159.644 31.86H159.964C160.204 31.86 160.497 31.8667 160.844 31.88C161.25 31.8933 161.537 31.9033 161.704 31.91C161.83 31.9167 161.93 31.9233 162.004 31.93C162.05 31.93 162.084 31.9333 162.104 31.94C162.157 31.94 162.207 31.95 162.254 31.97C162.4 32.0233 162.527 32.1067 162.634 32.22C162.747 32.3333 162.824 32.4633 162.864 32.61C162.93 32.85 162.947 33.2867 162.914 33.92C162.914 34.0333 162.907 34.5733 162.894 35.54C162.887 36.5 162.877 37.1667 162.864 37.54C162.857 37.9133 162.83 38.2733 162.784 38.62C162.77 38.7467 162.714 38.85 162.614 38.93C162.514 39.0033 162.4 39.03 162.274 39.01C162.147 38.9967 162.044 38.94 161.964 38.84C161.89 38.74 161.864 38.6267 161.884 38.5C161.924 38.1733 161.947 37.84 161.954 37.5C161.96 37.16 161.967 36.5 161.974 35.52C161.987 34.5333 161.997 33.9833 162.004 33.87C162.03 33.3367 162.024 33.0033 161.984 32.87C161.984 32.8633 161.977 32.8567 161.964 32.85L161.944 32.84C161.884 32.84 161.79 32.8367 161.664 32.83C161.417 32.8167 161.134 32.8067 160.814 32.8C160.474 32.7867 160.187 32.78 159.954 32.78C159.834 32.7733 159.737 32.7733 159.664 32.78H159.654C159.634 32.8333 159.627 32.9267 159.634 33.06C159.634 33.1667 159.65 33.3233 159.684 33.53C159.717 33.7633 159.737 33.9233 159.744 34.01C159.77 35.0767 159.77 35.8433 159.744 36.31C159.717 36.8367 159.67 37.28 159.604 37.64C159.504 38.1267 159.357 38.4767 159.164 38.69C158.897 38.9767 158.62 39.1267 158.334 39.14ZM165.931 38.97C165.831 39.0433 165.718 39.07 165.591 39.05C165.464 39.03 165.364 38.97 165.291 38.87C165.211 38.7567 165.184 38.6333 165.211 38.5V38.48C165.291 37.5333 165.328 36.5267 165.321 35.46C165.314 34.3933 165.244 33.3667 165.111 32.38C165.091 32.2533 165.118 32.14 165.191 32.04C165.264 31.94 165.364 31.88 165.491 31.86C165.618 31.84 165.731 31.8667 165.831 31.94C165.931 32.0133 165.991 32.1133 166.011 32.24C166.231 33.7467 166.288 35.4933 166.181 37.48C166.488 37.1933 166.781 36.8867 167.061 36.56C167.341 36.2333 167.621 35.8667 167.901 35.46L168.601 34.41L169.351 33.2L170.051 32.05C170.118 31.9433 170.211 31.8767 170.331 31.85C170.458 31.8167 170.574 31.8333 170.681 31.9C170.774 31.96 170.838 32.04 170.871 32.14C170.904 32.2333 170.908 32.33 170.881 32.43V32.46C170.874 32.88 170.851 33.4 170.811 34.02L170.711 35.58C170.678 36.0067 170.668 36.49 170.681 37.03C170.701 37.57 170.758 38.0533 170.851 38.48C170.878 38.6067 170.854 38.7233 170.781 38.83C170.714 38.93 170.618 38.9933 170.491 39.02C170.364 39.0467 170.248 39.0267 170.141 38.96C170.041 38.8867 169.978 38.7867 169.951 38.66C169.858 38.22 169.801 37.7 169.781 37.1C169.761 36.4933 169.758 36.0233 169.771 35.69C169.791 35.35 169.828 34.8133 169.881 34.08L169.031 35.41C168.791 35.7767 168.504 36.1833 168.171 36.63C167.838 37.0767 167.484 37.4867 167.111 37.86C166.744 38.2267 166.351 38.5967 165.931 38.97ZM175.723 38.92C175.097 38.9733 174.543 38.9367 174.063 38.81C173.59 38.6833 173.21 38.4433 172.923 38.09C172.823 37.9767 172.747 37.8267 172.693 37.64C172.693 37.6333 172.68 37.5767 172.653 37.47C172.64 37.4167 172.627 37.3767 172.613 37.35C172.567 37.23 172.57 37.1133 172.623 37C172.677 36.8867 172.763 36.8067 172.883 36.76C173.003 36.7133 173.12 36.7167 173.233 36.77C173.347 36.8233 173.427 36.91 173.473 37.03C173.493 37.0833 173.513 37.15 173.533 37.23L173.543 37.29C173.557 37.33 173.567 37.36 173.573 37.38C173.593 37.4467 173.61 37.49 173.623 37.51C173.777 37.6967 174.033 37.8467 174.393 37.96C174.76 38.0733 175.147 38.0933 175.553 38.02C175.973 37.94 176.303 37.8033 176.543 37.61C176.783 37.41 176.91 37.1867 176.923 36.94C176.937 36.68 176.887 36.4767 176.773 36.33C176.66 36.1767 176.493 36.0533 176.273 35.96C176.14 35.9 175.93 35.83 175.643 35.75C175.51 35.7167 175.413 35.69 175.353 35.67C175.153 35.59 175.027 35.47 174.973 35.31C174.92 35.1633 174.927 35.0233 174.993 34.89C175.053 34.7633 175.153 34.6767 175.293 34.63C175.38 34.5967 175.5 34.58 175.653 34.58C175.667 34.58 175.7 34.5833 175.753 34.59C175.807 34.59 175.85 34.59 175.883 34.59H175.933C176.107 34.5167 176.243 34.4233 176.343 34.31C176.477 34.1633 176.543 33.9867 176.543 33.78C176.55 33.5733 176.483 33.3767 176.343 33.19C176.223 33.03 176.04 32.9133 175.793 32.84C175.553 32.76 175.283 32.7367 174.983 32.77C174.69 32.8033 174.427 32.8867 174.193 33.02C173.967 33.1533 173.807 33.31 173.713 33.49C173.7 33.5033 173.693 33.54 173.693 33.6C173.687 33.62 173.683 33.6367 173.683 33.65V33.7C173.683 33.72 173.68 33.7333 173.673 33.74C173.667 33.8133 173.66 33.8767 173.653 33.93C173.633 34.0567 173.57 34.1567 173.463 34.23C173.363 34.2967 173.25 34.32 173.123 34.3C172.997 34.28 172.897 34.22 172.823 34.12C172.757 34.0133 172.733 33.8967 172.753 33.77C172.76 33.7433 172.763 33.71 172.763 33.67C172.77 33.57 172.773 33.5167 172.773 33.51C172.793 33.3367 172.833 33.19 172.893 33.07C173.073 32.7233 173.343 32.4467 173.703 32.24C174.07 32.0333 174.463 31.9067 174.883 31.86C175.31 31.8133 175.723 31.8533 176.123 31.98C176.523 32.1067 176.843 32.33 177.083 32.65C177.337 32.99 177.463 33.3667 177.463 33.78C177.463 34.1933 177.317 34.5767 177.023 34.93C176.943 35.0167 176.853 35.0967 176.753 35.17C177.52 35.5433 177.883 36.1467 177.843 36.98C177.83 37.26 177.757 37.5167 177.623 37.75C177.497 37.9767 177.327 38.1667 177.113 38.32C176.907 38.4733 176.687 38.6 176.453 38.7C176.22 38.7933 175.977 38.8667 175.723 38.92ZM183.803 38.7C183.563 38.0933 183.319 37.4833 183.073 36.87C183.026 36.8833 182.979 36.89 182.933 36.89C182.626 36.89 182.186 36.9033 181.613 36.93C181.046 36.95 180.636 36.9633 180.383 36.97C180.149 37.55 179.946 38.1167 179.773 38.67C179.726 38.7967 179.639 38.89 179.513 38.95C179.393 39.01 179.266 39.0167 179.133 38.97C179.006 38.9233 178.913 38.84 178.853 38.72C178.793 38.5933 178.786 38.4633 178.833 38.33C178.953 37.9233 179.093 37.5167 179.253 37.11L179.663 36.09L180.153 34.95L180.593 33.92C180.613 33.8733 180.663 33.7367 180.743 33.51C180.823 33.29 180.893 33.11 180.953 32.97C181.046 32.73 181.129 32.5367 181.203 32.39C181.249 32.2967 181.293 32.2167 181.333 32.15C181.419 32.0233 181.519 31.9333 181.633 31.88C181.819 31.7933 181.999 31.82 182.173 31.96C182.219 31.9933 182.263 32.04 182.303 32.1C182.343 32.1533 182.386 32.23 182.433 32.33C182.499 32.4633 182.579 32.6467 182.673 32.88C182.793 33.1867 182.896 33.47 182.983 33.73C183.583 35.47 184.163 36.9867 184.723 38.28C184.796 38.42 184.803 38.5533 184.743 38.68C184.689 38.8 184.599 38.89 184.473 38.95C184.346 39.0033 184.216 39.0067 184.083 38.96C183.956 38.9133 183.863 38.8267 183.803 38.7ZM180.803 35.96C180.936 35.9533 181.223 35.9433 181.663 35.93C182.109 35.91 182.453 35.8967 182.693 35.89L182.043 34.05C181.983 33.8767 181.909 33.6833 181.823 33.47C181.789 33.57 181.749 33.6833 181.703 33.81L181.583 34.13L181.513 34.3L180.803 35.96ZM192.857 40.06C192.844 40.1867 192.787 40.29 192.687 40.37C192.587 40.45 192.474 40.4833 192.347 40.47C192.227 40.4633 192.127 40.41 192.047 40.31C191.967 40.21 191.93 40.1 191.937 39.98C191.99 39.4933 192.017 39.2033 192.017 39.11C191.07 39.05 189.784 39.0133 188.157 39H187.437C187.237 38.9933 187.077 38.9833 186.957 38.97C186.87 38.9567 186.797 38.9433 186.737 38.93C186.61 38.9033 186.51 38.8533 186.437 38.78C186.404 38.7467 186.374 38.71 186.347 38.67C186.327 38.6233 186.314 38.5867 186.307 38.56L186.297 38.52C186.29 38.4933 186.287 38.46 186.287 38.42C186.28 38.3733 186.277 38.31 186.277 38.23V37.76C186.277 37.7267 186.277 37.6933 186.277 37.66C186.284 37.62 186.287 37.5833 186.287 37.55V37.45C186.287 37.4167 186.287 37.3867 186.287 37.36C186.294 37.3267 186.297 37.3 186.297 37.28V37.11C186.344 34.95 186.344 33.3567 186.297 32.33C186.29 32.2033 186.33 32.0933 186.417 32C186.504 31.9067 186.61 31.8567 186.737 31.85C186.864 31.8433 186.974 31.8833 187.067 31.97C187.16 32.0567 187.21 32.1633 187.217 32.29C187.264 33.3367 187.264 34.95 187.217 37.13V37.18C187.217 37.1933 187.214 37.21 187.207 37.23C187.207 37.25 187.207 37.2733 187.207 37.3V37.46C187.207 37.4933 187.204 37.5267 187.197 37.56C187.197 37.5933 187.197 37.63 187.197 37.67V38.07C187.257 38.0767 187.344 38.08 187.457 38.08H188.157C189.357 38.0867 190.334 38.1067 191.087 38.14C191.127 35.22 191.147 33.6933 191.147 33.56C191.154 33.42 191.154 33.23 191.147 32.99C191.14 32.75 191.124 32.53 191.097 32.33C191.077 32.2033 191.104 32.09 191.177 31.99C191.257 31.89 191.36 31.8333 191.487 31.82C191.614 31.8 191.727 31.83 191.827 31.91C191.927 31.9833 191.984 32.0833 191.997 32.21C192.03 32.4367 192.05 32.6833 192.057 32.95C192.07 33.2167 192.074 33.4267 192.067 33.58C192.067 33.7267 192.05 34.2667 192.017 35.2C191.99 36.1267 191.98 36.8233 191.987 37.29C192 37.7567 192.007 38.0567 192.007 38.19C192.167 38.2033 192.324 38.2133 192.477 38.22C192.57 38.2267 192.654 38.2633 192.727 38.33C192.867 38.4233 192.937 38.55 192.937 38.71L192.857 40.06ZM195.313 38.97C195.213 39.0433 195.1 39.07 194.973 39.05C194.847 39.03 194.747 38.97 194.673 38.87C194.593 38.7567 194.567 38.6333 194.593 38.5V38.48C194.673 37.5333 194.71 36.5267 194.703 35.46C194.697 34.3933 194.627 33.3667 194.493 32.38C194.473 32.2533 194.5 32.14 194.573 32.04C194.647 31.94 194.747 31.88 194.873 31.86C195 31.84 195.113 31.8667 195.213 31.94C195.313 32.0133 195.373 32.1133 195.393 32.24C195.613 33.7467 195.67 35.4933 195.563 37.48C195.87 37.1933 196.163 36.8867 196.443 36.56C196.723 36.2333 197.003 35.8667 197.283 35.46L197.983 34.41L198.733 33.2L199.433 32.05C199.5 31.9433 199.593 31.8767 199.713 31.85C199.84 31.8167 199.957 31.8333 200.063 31.9C200.157 31.96 200.22 32.04 200.253 32.14C200.287 32.2333 200.29 32.33 200.263 32.43V32.46C200.257 32.88 200.233 33.4 200.193 34.02L200.093 35.58C200.06 36.0067 200.05 36.49 200.063 37.03C200.083 37.57 200.14 38.0533 200.233 38.48C200.26 38.6067 200.237 38.7233 200.163 38.83C200.097 38.93 200 38.9933 199.873 39.02C199.747 39.0467 199.63 39.0267 199.523 38.96C199.423 38.8867 199.36 38.7867 199.333 38.66C199.24 38.22 199.183 37.7 199.163 37.1C199.143 36.4933 199.14 36.0233 199.153 35.69C199.173 35.35 199.21 34.8133 199.263 34.08L198.413 35.41C198.173 35.7767 197.887 36.1833 197.553 36.63C197.22 37.0767 196.867 37.4867 196.493 37.86C196.127 38.2267 195.733 38.5967 195.313 38.97ZM202.956 38.7C202.922 38.82 202.849 38.91 202.736 38.97C202.622 39.03 202.506 39.0433 202.386 39.01C202.266 38.9767 202.176 38.9033 202.116 38.79C202.056 38.6767 202.042 38.56 202.076 38.44C202.436 37.1267 202.849 36.2267 203.316 35.74C203.009 35.6067 202.762 35.4333 202.576 35.22C202.376 34.98 202.256 34.68 202.216 34.32C202.182 33.96 202.219 33.66 202.326 33.42C202.679 32.5133 203.462 31.9833 204.676 31.83C204.942 31.7967 205.226 31.78 205.526 31.78C205.832 31.7733 206.176 31.78 206.556 31.8C206.936 31.82 207.169 31.83 207.256 31.83C207.289 31.8233 207.326 31.82 207.366 31.82C207.492 31.8267 207.599 31.8767 207.686 31.97C207.772 32.0633 207.812 32.1733 207.806 32.3C207.766 33.06 207.749 34.0467 207.756 35.26C207.829 35.3667 207.856 35.4833 207.836 35.61C207.822 35.6833 207.796 35.75 207.756 35.81C207.756 36.97 207.746 37.8967 207.726 38.59C207.719 38.71 207.669 38.8133 207.576 38.9C207.482 38.9867 207.372 39.0267 207.246 39.02C207.126 39.02 207.022 38.9733 206.936 38.88C206.849 38.7867 206.806 38.6767 206.806 38.55C206.826 37.89 206.836 37.0767 206.836 36.11H206.086C205.599 36.1167 205.189 36.1067 204.856 36.08C204.702 36.0667 204.562 36.05 204.436 36.03C204.402 36.0433 204.372 36.0567 204.346 36.07C204.072 36.23 203.826 36.5033 203.606 36.89C203.392 37.27 203.176 37.8733 202.956 38.7ZM204.326 35.09C204.906 34.8833 205.742 34.8533 206.836 35C206.836 34.08 206.846 33.3267 206.866 32.74C206.806 32.7333 206.672 32.7267 206.466 32.72C206.266 32.7067 206.119 32.7 206.026 32.7C205.932 32.6933 205.802 32.69 205.636 32.69C205.476 32.69 205.326 32.6933 205.186 32.7C205.052 32.7067 204.922 32.7167 204.796 32.73C203.942 32.8433 203.406 33.1867 203.186 33.76C203.132 33.9 203.112 34.0567 203.126 34.23C203.146 34.4033 203.196 34.5333 203.276 34.62C203.456 34.8333 203.806 34.99 204.326 35.09Z" fill="#2D2D2D"/>
<mask id="mask0_633_242" style="mask-type:luminance" maskUnits="userSpaceOnUse" x="0" y="0" width="29" height="34">
<path d="M3.5657 16.1334C-1.13127 20.8302 -1.13127 28.4546 3.5657 33.1675L28.2248 8.50903L19.7156 0L3.5657 16.1334Z" fill="white"/>
</mask>
<g mask="url(#mask0_633_242)">
<path d="M34.9325 1.41582L26.9541 39.1033L-7.85498 31.7363L0.107355 -5.95117L34.9325 1.41582Z" fill="url(#paint0_linear_633_242)"/>
</g>
<mask id="mask1_633_242" style="mask-type:luminance" maskUnits="userSpaceOnUse" x="3" y="0" width="26" height="18">
<path d="M3.56564 16.1334C-1.13133 20.8303 28.2248 8.50904 28.2248 8.50904L19.7155 0L3.56564 16.1334Z" fill="white"/>
</mask>
<g mask="url(#mask1_633_242)">
<path d="M38.5518 11.6777L11.7694 35.4033L-11.4902 9.15233L15.3083 -14.5732L38.5518 11.6777Z" fill="url(#paint1_linear_633_242)"/>
</g>
<mask id="mask2_633_242" style="mask-type:luminance" maskUnits="userSpaceOnUse" x="11" y="17" width="29" height="33">
<path d="M11.769 41.371L20.2783 49.88L36.4121 33.7467C41.109 29.0498 40.8356 21.7471 36.1225 17.0503L11.769 41.371Z" fill="white"/>
</mask>
<g mask="url(#mask2_633_242)">
<path d="M57.5484 33.4573L26.439 64.566L-4.6543 33.4573L26.439 2.36475L57.5484 33.4573Z" fill="url(#paint2_linear_633_242)"/>
</g>
<mask id="mask3_633_242" style="mask-type:luminance" maskUnits="userSpaceOnUse" x="12" y="17" width="28" height="33">
<path d="M12.0908 41.0493L20.6001 49.5583L36.4282 33.7306C41.1252 29.0337 40.8517 21.731 36.1387 17.0342L12.0908 41.0493Z" fill="white"/>
</mask>
<g mask="url(#mask3_633_242)">
<path d="M37.2969 7.22217L52.1278 45.2796L15.9192 59.3862L1.08838 21.3288L37.2969 7.22217Z" fill="url(#paint3_linear_633_242)"/>
</g>
<mask id="mask4_633_242" style="mask-type:luminance" maskUnits="userSpaceOnUse" x="20" y="17" width="20" height="33">
<path d="M20.6001 49.5583L36.4283 33.7306C41.1252 29.0337 40.8518 21.731 36.1387 17.0342L20.6001 49.5583Z" fill="white"/>
</mask>
<g mask="url(#mask4_633_242)">
<path d="M24.4286 57.5528L7.94092 23.0985L37.297 9.05615L53.7847 43.4944L24.4286 57.5528Z" fill="url(#paint4_linear_633_242)"/>
</g>
<mask id="mask5_633_242" style="mask-type:luminance" maskUnits="userSpaceOnUse" x="10" y="0" width="30" height="35">
<path d="M10.8525 8.83077L36.0907 34.0683L36.3803 33.7788C41.3346 28.8246 41.0772 21.4576 36.3803 16.7447L19.6513 0.0161133L10.8525 8.83077Z" fill="white"/>
</mask>
<g mask="url(#mask5_633_242)">
<path d="M26.1016 -15.2163L58.3691 17.0505L26.1016 49.3011L-6.16602 17.0505L26.1016 -15.2163Z" fill="url(#paint5_linear_633_242)"/>
</g>
<mask id="mask6_633_242" style="mask-type:luminance" maskUnits="userSpaceOnUse" x="0" y="15" width="30" height="35">
<path d="M3.85544 33.457L20.2788 49.8799L29.0776 41.0813L3.85544 15.8438C-1.01847 20.7015 -1.51712 28.0845 3.85544 33.457Z" fill="white"/>
</mask>
<g mask="url(#mask6_633_242)">
<path d="M45.8547 29.9182L16.4342 64.9516L-18.2783 35.8054L11.1421 0.771973L45.8547 29.9182Z" fill="url(#paint6_linear_633_242)"/>
</g>
<mask id="mask7_633_242" style="mask-type:luminance" maskUnits="userSpaceOnUse" x="0" y="15" width="21" height="35">
<path d="M3.85518 33.457L20.2785 49.8799L3.85518 15.8438C-1.14742 20.8301 -1.42088 28.181 3.85518 33.457Z" fill="white"/>
</mask>
<g mask="url(#mask7_633_242)">
<path d="M9.43676 4.98633L37.2969 32.8619L9.43676 60.7374L-18.4395 32.8619L9.43676 4.98633Z" fill="url(#paint7_linear_633_242)"/>
</g>
<defs>
<linearGradient id="paint0_linear_633_242" x1="15.947" y1="5.25146" x2="10.8846" y2="29.2007" gradientUnits="userSpaceOnUse">
<stop stop-color="#006837"/>
<stop offset="0.0156645" stop-color="#006837"/>
<stop offset="0.5253" stop-color="#39B54A"/>
<stop offset="0.7405" stop-color="#88CA36"/>
<stop offset="0.9161" stop-color="#C2DA27"/>
<stop offset="1" stop-color="#D9E021"/>
</linearGradient>
<linearGradient id="paint1_linear_633_242" x1="30.6597" y1="-4.78064" x2="-3.41482" y2="25.4004" gradientUnits="userSpaceOnUse">
<stop stop-color="#006837"/>
<stop offset="0.0156645" stop-color="#006837"/>
<stop offset="0.5253" stop-color="#39B54A"/>
<stop offset="0.7405" stop-color="#88CA36"/>
<stop offset="0.9161" stop-color="#C2DA27"/>
<stop offset="1" stop-color="#D9E021"/>
</linearGradient>
<linearGradient id="paint2_linear_633_242" x1="40.1973" y1="19.7338" x2="20.1557" y2="39.776" gradientUnits="userSpaceOnUse">
<stop stop-color="#00BAFF"/>
<stop offset="0.3439" stop-color="#00BAFF"/>
<stop offset="1" stop-color="#846CD3"/>
</linearGradient>
<linearGradient id="paint3_linear_633_242" x1="22.9126" y1="23.8562" x2="30.7009" y2="43.8467" gradientUnits="userSpaceOnUse">
<stop stop-color="#2BC4F3"/>
<stop offset="0.5" stop-color="#00AEEE"/>
<stop offset="1" stop-color="#0095DA"/>
</linearGradient>
<linearGradient id="paint4_linear_633_242" x1="33.9672" y1="39.789" x2="28.5153" y2="28.3983" gradientUnits="userSpaceOnUse">
<stop stop-color="#2BC4F3"/>
<stop offset="0.5" stop-color="#00AEEE"/>
<stop offset="1" stop-color="#0095DA"/>
</linearGradient>
<linearGradient id="paint5_linear_633_242" x1="17.1607" y1="8.11124" x2="37.7555" y2="28.7066" gradientUnits="userSpaceOnUse">
<stop stop-color="#2BC4F3"/>
<stop offset="0.5" stop-color="#00AEEE"/>
<stop offset="1" stop-color="#0095DA"/>
</linearGradient>
<linearGradient id="paint6_linear_633_242" x1="18.9526" y1="26.7148" x2="1.29902" y2="47.7438" gradientUnits="userSpaceOnUse">
<stop stop-color="#006837"/>
<stop offset="0.0156645" stop-color="#006837"/>
<stop offset="0.5253" stop-color="#39B54A"/>
<stop offset="0.7405" stop-color="#88CA36"/>
<stop offset="0.9161" stop-color="#C2DA27"/>
<stop offset="1" stop-color="#D9E021"/>
</linearGradient>
<linearGradient id="paint7_linear_633_242" x1="-1.86989" y1="21.5689" x2="23.3659" y2="46.8053" gradientUnits="userSpaceOnUse">
<stop stop-color="#006837"/>
<stop offset="0.0156645" stop-color="#006837"/>
<stop offset="0.5253" stop-color="#39B54A"/>
<stop offset="0.7405" stop-color="#88CA36"/>
<stop offset="0.9161" stop-color="#C2DA27"/>
<stop offset="1" stop-color="#D9E021"/>
</linearGradient>
</defs>
</svg>
