<svg width="38" height="45" viewBox="0 0 38 45" fill="none" xmlns="http://www.w3.org/2000/svg">
<g id="Vector">
<path d="M37.2281 11.1501L26.2295 0.269033C26.0553 0.0967674 25.8192 0 25.573 0H4.51141C2.02375 0 0 2.00232 0 4.46343V40.5367C0 42.9977 2.02384 45 4.5115 45H32.9885C35.4762 45 37.5 42.9978 37.5 40.5367V11.7996C37.4999 11.556 37.4021 11.3224 37.2281 11.1501ZM26.5016 3.13584L34.3307 10.8813H29.1565C28.4472 10.8813 27.7804 10.608 27.279 10.112C26.7777 9.61601 26.5015 8.95639 26.5016 8.25476V3.13584ZM35.6434 40.5366C35.6434 41.9849 34.4524 43.1632 32.9885 43.1632H4.51141C3.04744 43.1632 1.85646 41.9849 1.85646 40.5366V4.46343C1.85655 3.01508 3.04753 1.83673 4.51141 1.83673H24.645V8.25458C24.6449 9.44682 25.1141 10.5677 25.9662 11.4106C26.8183 12.2537 27.9513 12.7179 29.1564 12.7179H35.6433L35.6434 40.5366Z" fill="#F7941E"/>
<path d="M20.4461 30.8928H20.0305C19.5179 30.8928 19.1022 31.3039 19.1022 31.8112C19.1022 32.3184 19.5179 32.7295 20.0305 32.7295H20.4461C20.9587 32.7295 21.3743 32.3184 21.3743 31.8112C21.3743 31.3039 20.9587 30.8928 20.4461 30.8928Z" fill="#F7941E"/>
<path d="M17.0274 30.8928H8.01095C7.49835 30.8928 7.08267 31.3039 7.08267 31.8112C7.08267 32.3184 7.49835 32.7295 8.01095 32.7295H17.0274C17.54 32.7295 17.9557 32.3184 17.9557 31.8112C17.9557 31.3039 17.5401 30.8928 17.0274 30.8928Z" fill="#F7941E"/>
<path d="M29.489 26.6965H8.01104C7.49844 26.6965 7.08276 27.1076 7.08276 27.6148C7.08276 28.122 7.49844 28.5332 8.01104 28.5332H29.489C30.0016 28.5332 30.4172 28.122 30.4172 27.6148C30.4172 27.1076 30.0016 26.6965 29.489 26.6965Z" fill="#F7941E"/>
<path d="M29.489 22.5H8.01104C7.49844 22.5 7.08276 22.9111 7.08276 23.4183C7.08276 23.9255 7.49844 24.3367 8.01104 24.3367H29.489C30.0016 24.3367 30.4172 23.9255 30.4172 23.4183C30.4172 22.9111 30.0016 22.5 29.489 22.5Z" fill="#F7941E"/>
<path d="M29.489 18.3036H8.01104C7.49844 18.3036 7.08276 18.7148 7.08276 19.222C7.08276 19.7292 7.49844 20.1404 8.01104 20.1404H29.489C30.0016 20.1404 30.4172 19.7292 30.4172 19.222C30.4172 18.7148 30.0016 18.3036 29.489 18.3036Z" fill="#F7941E"/>
</g>
</svg>
