<svg width="43" height="43" viewBox="0 0 43 43" fill="none" xmlns="http://www.w3.org/2000/svg">
<g id="Vector">
<path d="M19.2758 22.9175C18.8684 22.9175 18.5289 22.5779 18.5289 22.1705C18.5289 21.7631 18.8684 21.4236 19.2758 21.4236H22.7389C23.1464 21.4236 23.4859 21.7631 23.4859 22.1705C23.4859 22.5779 23.1464 22.9175 22.7389 22.9175H19.2758ZM7.18901 14.2258C6.57787 14.2258 6.03464 13.6826 6.03464 13.0714C6.03464 12.4603 6.57787 11.9171 7.18901 11.9171H8.24151C8.61498 11.9171 8.92055 11.6455 8.92055 11.272C9.22611 7.06198 11.7725 3.22542 15.5751 1.32412C15.7449 1.22227 15.9486 1.18831 16.0844 1.18831C16.6955 1.18831 17.2387 1.73154 17.2387 2.34267V4.7193C17.2387 5.09277 17.5443 5.39834 17.9178 5.39834C18.2912 5.39834 18.5968 5.09277 18.5968 4.7193V1.22227C18.5968 0.645084 19.0382 0.135807 19.5814 0.0679036C20.0228 1.29516e-08 20.4981 0 20.9395 0C21.4488 0 21.992 0.0339518 22.4334 0.0679036C23.0105 0.135807 23.418 0.611133 23.418 1.22227V4.68535C23.418 5.05882 23.7235 5.36439 24.097 5.36439C24.4705 5.36439 24.776 5.05882 24.776 4.68535V2.34267C24.776 1.73154 25.3193 1.18831 25.9304 1.18831C26.0662 1.18831 26.2699 1.22227 26.4736 1.32412C30.3441 3.32728 32.8226 7.02802 33.1282 11.272C33.1621 11.6455 33.4338 11.9171 33.8072 11.9171H34.8597C35.4709 11.9171 36.0141 12.4603 36.0141 13.0714C36.0141 13.6826 35.4709 14.2258 34.8597 14.2258H7.18901ZM31.2608 12.1887C31.159 11.9171 31.125 11.6794 31.0911 11.4078C30.8874 8.454 29.3256 5.7039 26.915 3.93841V4.68535C26.915 6.17923 25.6927 7.40149 24.1989 7.40149C22.705 7.40149 21.4827 6.17923 21.4827 4.68535V2.03711H20.6679V4.6514C20.6679 6.14528 19.4456 7.36754 17.9517 7.36754C16.4578 7.36754 15.2356 6.14528 15.2356 4.6514V3.87051C12.7232 5.636 11.1614 8.42005 10.9237 11.4078C10.8898 11.6794 10.8558 11.9171 10.7539 12.1887H31.2608Z" fill="#F7941E"/>
<path d="M2.80922 42.27C1.92648 42.27 1.11163 41.8965 0.568404 41.2514C0.0930792 40.6743 -0.110632 39.9273 0.0591274 39.2143C1.4172 32.2542 7.76619 26.5503 16.0165 24.9206C12.859 22.8835 10.9237 19.1488 10.9237 14.9727V14.7351H31.159V14.9727C31.159 19.1149 29.2237 22.8835 26.0323 24.9206C34.2825 26.5843 40.6315 32.2882 41.9896 39.2143C42.1254 39.9273 41.9557 40.6743 41.4803 41.2514C40.9371 41.8965 40.1223 42.27 39.2395 42.27H2.80922ZM21.0074 26.4485C16.356 26.4485 11.8744 27.8065 8.37732 30.319C5.01609 32.7295 2.77527 36.0229 2.06228 39.5878C2.02833 39.7576 2.09624 39.8934 2.16414 39.9273C2.3339 40.131 2.53761 40.2329 2.80922 40.2329H39.2735C39.5451 40.2329 39.7827 40.131 39.9185 39.9613C39.9525 39.9273 40.0544 39.7915 39.9864 39.6218C39.3074 36.0229 37.0666 32.7295 33.6714 30.319C30.1404 27.8065 25.6588 26.4485 21.0074 26.4485ZM13.0627 16.7722C13.8096 21.1859 17.1029 24.3774 20.9734 24.3774C24.8439 24.3774 28.1373 21.1859 28.8842 16.7722H13.0627Z" fill="#F7941E"/>
</g>
</svg>
