<svg width="48" height="48" viewBox="0 0 48 48" fill="none" xmlns="http://www.w3.org/2000/svg">
<path id="Vector" d="M35.9988 23.9992C34.6836 23.9992 33.5989 25.084 33.5989 26.3991V27.6551C32.9701 27.8375 32.3669 28.0823 31.7909 28.3991L31.2902 27.8967C30.359 26.9655 28.8262 26.9655 27.8983 27.8967C26.9655 28.8246 26.9655 30.3606 27.8983 31.2886L28.3991 31.7925C28.0791 32.3685 27.8327 32.9701 27.6471 33.6005H26.3991C25.084 33.6005 23.9992 34.6852 23.9992 36.0004C23.9992 37.3156 25.084 38.4003 26.3991 38.4003H27.6551C27.8375 39.0291 28.0823 39.6323 28.3991 40.2083L27.8967 40.709C26.9655 41.6402 26.9655 43.173 27.8967 44.1009C28.8246 45.0337 30.3606 45.0337 31.2886 44.1009L31.7925 43.6001C32.3685 43.9201 32.9701 44.1665 33.6005 44.3521V45.6001C33.6005 46.9152 34.6852 48 36.0004 48C37.3156 48 38.4003 46.9152 38.4003 45.6001V44.3441C39.0291 44.1617 39.6323 43.9169 40.2083 43.6001L40.709 44.1025C41.6402 45.0337 43.173 45.0337 44.1009 44.1025C45.0337 43.1746 45.0337 41.6386 44.1009 40.7106L43.6001 40.2067C43.9201 39.6307 44.1665 39.0291 44.3521 38.3987H45.6001C46.9152 38.3987 48 37.314 48 35.9988C48 34.6836 46.9152 33.5989 45.6001 33.5989H44.3441C44.1617 32.9701 43.9169 32.3669 43.6001 31.7909L44.1025 31.2902C45.0337 30.359 45.0337 28.8262 44.1025 27.8983C43.1746 26.9655 41.6386 26.9655 40.7106 27.8983L40.2067 28.3991C39.6307 28.0791 39.0291 27.8327 38.3987 27.6471V26.3991C38.3987 25.084 37.314 23.9992 35.9988 23.9992ZM35.9988 25.5991C36.4564 25.5991 36.7988 25.9415 36.7988 26.3991V27.9991C36.7988 28.5239 36.9332 28.8118 37.4068 28.9398C38.3187 29.1238 39.1859 29.4838 39.9619 29.9958C40.2787 30.207 40.701 30.1654 40.9698 29.8966L41.8386 29.0278C42.1618 28.7046 42.6466 28.7046 42.9698 29.0278C43.293 29.351 43.293 29.8358 42.9698 30.159L42.101 31.0278C41.8322 31.295 41.789 31.7157 41.9986 32.0325C42.5106 32.8101 42.869 33.6773 43.0514 34.5877C43.1794 35.0708 43.6017 35.2004 43.9985 35.2004H45.5985C46.0561 35.2004 46.3985 35.5428 46.3985 36.0004C46.3985 36.458 46.0561 36.8004 45.5985 36.8004H43.9985C43.3682 36.8004 43.1538 37.0532 43.0578 37.4084C42.8738 38.3203 42.5138 39.1875 42.0018 39.9635C41.7906 40.2803 41.8322 40.7026 42.101 40.9714L42.9698 41.8402C43.293 42.1634 43.293 42.6482 42.9698 42.9714C42.6466 43.2946 42.1618 43.2946 41.8386 42.9714L40.9698 42.1026C40.7026 41.8338 40.2819 41.7906 39.9651 42.0002C39.1875 42.5122 38.3203 42.8706 37.41 43.053C36.9876 43.165 36.7972 43.597 36.7972 44.0001V45.6001C36.7972 46.0577 36.4548 46.4001 35.9972 46.4001C35.5396 46.4001 35.1972 46.0577 35.1972 45.6001V44.0001C35.1972 43.4082 34.9764 43.1634 34.5892 43.0594C33.6773 42.8754 32.8101 42.5154 32.0341 42.0034C31.7173 41.7922 31.295 41.8338 31.0262 42.1026L30.1574 42.9714C29.8342 43.2946 29.3494 43.2946 29.0262 42.9714C28.703 42.6482 28.703 42.1634 29.0262 41.8402L29.895 40.9714C30.1638 40.7042 30.207 40.2835 29.9974 39.9667C29.4854 39.1891 29.127 38.3219 28.9446 37.4116C28.8646 37.0084 28.5255 36.7988 27.9975 36.7988H26.3975C25.9399 36.7988 25.5975 36.4564 25.5975 35.9988C25.5975 35.5412 25.9399 35.1988 26.3975 35.1988H27.9975C28.7094 35.1988 28.8358 34.97 28.9382 34.5909C29.1222 33.6789 29.4822 32.8117 29.9942 32.0357C30.2054 31.7189 30.1638 31.2966 29.895 31.0278L29.0262 30.159C28.703 29.8358 28.703 29.351 29.0262 29.0278C29.3494 28.7046 29.8342 28.7046 30.1574 29.0278L31.0262 29.8966C31.2934 30.1654 31.7141 30.2086 32.0309 29.999C32.8085 29.487 33.6757 29.1286 34.586 28.9462C35.2292 28.799 35.1988 28.2967 35.1988 27.9991V26.3991C35.1988 25.9415 35.5412 25.5991 35.9988 25.5991ZM35.9988 31.9989C33.7989 31.9989 31.9989 33.7989 31.9989 35.9988C31.9989 38.1987 33.7989 39.9987 35.9988 39.9987C38.1987 39.9987 39.9987 38.1987 39.9987 35.9988C39.9987 33.7989 38.1987 31.9989 35.9988 31.9989ZM35.9988 33.5989C37.3332 33.5989 38.3987 34.6644 38.3987 35.9988C38.3987 37.3332 37.3332 38.3987 35.9988 38.3987C34.6644 38.3987 33.5989 37.3332 33.5989 35.9988C33.5989 34.6644 34.6644 33.5989 35.9988 33.5989ZM19.9993 12.7996C16.0315 12.7996 12.7996 16.0315 12.7996 19.9993C12.7996 23.9672 16.0315 27.1991 19.9993 27.1991C23.9672 27.1991 27.1991 23.9672 27.1991 19.9993C27.1991 16.0315 23.9672 12.7996 19.9993 12.7996ZM19.9993 14.3995C23.1032 14.3995 25.5991 16.8954 25.5991 19.9993C25.5991 23.1032 23.1032 25.5991 19.9993 25.5991C16.8954 25.5991 14.3995 23.1032 14.3995 19.9993C14.3995 16.8954 16.8954 14.3995 19.9993 14.3995ZM18.3994 0C17.0842 0 15.9995 1.08476 15.9995 2.39992V5.45582C14.7787 5.79181 13.6091 6.27179 12.5084 6.89577L9.50848 3.89907C8.57731 2.9679 7.04457 2.9679 6.1118 3.89907L3.84947 6.1598C2.9215 7.08776 2.9215 8.62371 3.84947 9.55168L6.86857 12.5708C6.25739 13.6539 5.78061 14.8011 5.44942 15.9995H2.39992C1.08476 15.9995 0 17.0842 0 18.3994V21.5993C0 22.9144 1.08476 23.9992 2.39992 23.9992H5.45262C5.78381 25.2104 6.26379 26.3671 6.88137 27.4615L3.85107 30.4902C2.9199 31.4214 2.9199 32.9541 3.85107 33.8869L6.1134 36.1492C7.04457 37.0804 8.57731 37.0804 9.51008 36.1492L12.5452 33.1093C13.6331 33.7333 14.7915 34.2133 16.0011 34.546V37.5987C16.0011 38.9139 17.0858 39.9987 18.401 39.9987H21.6009C22.6632 39.9987 22.6568 38.3987 21.6009 38.3987H18.401C17.9434 38.3987 17.601 38.0563 17.601 37.5987V34.0245C17.601 33.6501 17.345 33.3253 16.977 33.2405C15.4891 32.9013 14.0651 32.3125 12.7692 31.4966C12.4556 31.2982 12.046 31.3446 11.782 31.6053L11.7724 31.6213L11.7676 31.6277L8.37892 35.0196C8.05893 35.3396 7.56775 35.3396 7.24296 35.0196L4.98223 32.7557C4.66225 32.4325 4.66225 31.9429 4.98223 31.6197L8.38532 28.2215L8.38852 28.2167C8.64771 27.9527 8.69251 27.5447 8.49572 27.2311C7.68294 25.9351 7.09736 24.5112 6.75978 23.0232C6.67658 22.6552 6.35179 22.3993 5.9758 22.3993H2.39992C1.94234 22.3993 1.59995 22.0569 1.59995 21.5993V18.3994C1.59995 17.9418 1.94234 17.5994 2.39992 17.5994H5.9742C6.34859 17.5994 6.67338 17.3434 6.75818 16.9754C7.09416 15.4987 7.67654 14.0859 8.48132 12.7996C8.68131 12.4828 8.63331 12.0732 8.36932 11.8076L4.98063 8.42372C4.65744 8.10053 4.65744 7.61575 4.98063 7.29256L7.24296 5.03023C7.56615 4.70704 8.05573 4.70704 8.37892 5.03023L11.7436 8.39652C12.0076 8.66051 12.4156 8.70691 12.7356 8.50852C14.0379 7.68934 15.4715 7.10056 16.9706 6.75978C17.3354 6.67658 17.5946 6.35179 17.5946 5.9758V2.39992C17.5946 1.94234 17.937 1.59995 18.3946 1.59995H21.5945C22.0521 1.59995 22.3945 1.94234 22.3945 2.39992V5.9742C22.3945 6.34859 22.6504 6.67338 23.0184 6.75818C24.5064 7.09736 25.9255 7.68614 27.2199 8.50052C27.5351 8.69731 27.9463 8.65091 28.2119 8.38852L31.5717 5.02863C31.8949 4.70544 32.3797 4.70544 32.7029 5.02863L34.9652 7.29096C35.2884 7.61415 35.2884 8.09893 34.9652 8.42212L31.6213 11.7756C31.3574 12.038 31.311 12.4476 31.5094 12.7676C32.3189 14.0635 32.9013 15.4827 33.2373 16.9754C33.3221 17.3402 33.6469 17.5994 34.0213 17.5994H37.5987C38.0563 17.5994 38.3987 17.9418 38.3987 18.3994V21.5993C38.3987 22.668 39.9987 22.6424 39.9987 21.5993V18.3994C39.9987 17.0842 38.9139 15.9995 37.5987 15.9995H34.546C34.2149 14.7899 33.7381 13.6315 33.1221 12.5372L36.1012 9.55328C37.0324 8.62531 37.0324 7.08936 36.1012 6.1614L33.8389 3.89747C32.9109 2.9663 31.375 2.9663 30.447 3.89747L27.4551 6.88937C26.3671 6.26539 25.2072 5.78541 23.9992 5.45262V2.39992C23.9992 1.08476 22.9144 0 21.5993 0H18.3994Z" fill="#F7941E"/>
</svg>
