<svg width="48" height="48" viewBox="0 0 48 48" fill="none" xmlns="http://www.w3.org/2000/svg">
<g id="guarantee-svgrepo-com 1">
<g id="Group">
<g id="Group_2">
<path id="Vector" d="M27.0862 31.691C33.0515 31.691 37.8873 26.8552 37.8873 20.8899C37.8873 14.9247 33.0515 10.0889 27.0862 10.0889C21.121 10.0889 16.2852 14.9247 16.2852 20.8899C16.2852 26.8552 21.121 31.691 27.0862 31.691Z" fill="white"/>
<path id="Vector_2" d="M43.1114 3.14543C37.6955 3.14543 32.4007 2.12548 27.3735 0.115047L27.0865 0L26.8003 0.114882C21.7724 2.12548 16.4775 3.14527 11.0616 3.14527H9.34179V19.3469H5.48435C4.20831 19.3469 3.16992 20.3853 3.16992 21.6614V34.777C3.16992 36.0531 4.20831 37.0916 5.48435 37.0916H12.4278C12.4293 37.0916 12.4301 37.0916 12.4316 37.0916C14.2539 39.987 16.779 42.3787 19.7895 44.0198L27.0863 48L34.3831 44.0198C40.8282 40.5048 44.8308 33.761 44.8308 26.4203V3.14543H43.1114ZM4.71277 34.777V21.6614C4.71277 21.2362 5.0584 20.89 5.48419 20.89H12.4276C12.8534 20.89 13.1991 21.2364 13.1991 21.6614V34.777C13.1991 35.2022 12.8534 35.5486 12.4276 35.5486H5.48435C5.0584 35.5486 4.71277 35.2022 4.71277 34.777ZM14.7424 23.1976C17.3185 23.0581 19.3714 20.9178 19.3714 18.3079V14.3323C19.3714 13.2692 20.2363 12.4035 21.3002 12.4035C22.3641 12.4035 23.229 13.2691 23.229 14.3323V19.1881C23.229 20.5521 24.3385 21.6615 25.7025 21.6615H31.3583C32.8311 21.6615 34.0301 22.8597 34.0301 24.3333V32.8769C34.0301 34.3504 32.8312 35.5486 31.3583 35.5486H19.9909C19.3783 35.5486 18.8105 35.2438 18.4703 34.7347C17.8439 33.7951 16.7953 33.2342 15.6659 33.2342H14.7424V23.1976ZM43.288 26.4201C43.288 33.1955 39.5933 39.4207 33.645 42.6649L27.0865 46.2424L20.528 42.6649C17.8439 41.2006 15.5757 39.092 13.9078 36.5414C14.376 36.1479 14.684 35.5771 14.7271 34.9289C16.2839 37.6145 18.5259 39.8149 21.2672 41.31L27.0866 44.4847L32.9061 41.31C38.3584 38.3366 41.7453 32.6313 41.7453 26.4208V14.7179H40.2023V26.4209C40.2023 32.0659 37.124 37.2529 32.1678 39.9555L27.0866 42.7268L22.0055 39.9555C19.8315 38.7696 18.0052 37.0939 16.6327 35.0664C16.848 35.2013 17.0409 35.3727 17.1867 35.5911C17.8131 36.5307 18.8617 37.0916 19.9911 37.0916H31.3585C33.683 37.0916 35.5733 35.2007 35.5733 32.8769V24.3333C35.5733 22.0095 33.6831 20.1185 31.3585 20.1185H25.7026C25.1896 20.1185 24.7722 19.7011 24.7722 19.1881V14.3323C24.7722 12.4181 23.2146 10.8605 21.3004 10.8605C19.3862 10.8605 17.8286 12.4181 17.8286 14.3323V18.3071C17.8286 20.0662 16.4638 21.4965 14.7394 21.6345C14.7317 20.9642 14.4346 20.3669 13.971 19.9488V7.68575C18.4519 7.41039 22.8595 6.49463 27.0865 4.95919C31.3136 6.49446 35.7204 7.41023 40.202 7.68575V8.54605H41.745V6.21763L41.0089 6.18372C36.3383 5.97009 31.744 5.03803 27.3541 3.41404L27.0863 3.31447L26.8185 3.41322C22.4278 5.0372 17.8335 5.96926 13.1637 6.1829L12.4276 6.21763V19.3471H10.8846V4.68844H11.0612C16.5721 4.68844 21.9611 3.66997 27.0861 1.66102C32.2112 3.66997 37.6002 4.68844 43.1111 4.68844H43.2877V26.4201H43.288Z" fill="#F7941E"/>
<path id="Vector_3" d="M41.7442 11.6319H40.2012V13.1749H41.7442V11.6319Z" fill="#F7941E"/>
<path id="Vector_4" d="M11.6563 32.4626H6.25586V34.0056H11.6563V32.4626Z" fill="#F7941E"/>
</g>
</g>
</g>
</svg>
