<svg width="40" height="50" viewBox="0 0 40 50" fill="none" xmlns="http://www.w3.org/2000/svg">
<g id="Group 36">
<g id="Clip path group">
<mask id="mask0_31_1093" style="mask-type:luminance" maskUnits="userSpaceOnUse" x="0" y="0" width="29" height="34">
<g id="SVGID_4_">
<path id="Vector" d="M3.5657 16.1334C-1.13127 20.8302 -1.13127 28.4546 3.5657 33.1675L28.2248 8.50903L19.7156 0L3.5657 16.1334Z" fill="white"/>
</g>
</mask>
<g mask="url(#mask0_31_1093)">
<path id="Vector_2" d="M34.9325 1.41558L26.9541 39.103L-7.85498 31.7361L0.107355 -5.95142L34.9325 1.41558Z" fill="url(#paint0_linear_31_1093)"/>
</g>
</g>
<g id="Clip path group_2">
<mask id="mask1_31_1093" style="mask-type:luminance" maskUnits="userSpaceOnUse" x="3" y="0" width="26" height="18">
<g id="SVGID_7_">
<path id="Vector_3" d="M3.56564 16.1334C-1.13133 20.8303 28.2248 8.50904 28.2248 8.50904L19.7155 0L3.56564 16.1334Z" fill="white"/>
</g>
</mask>
<g mask="url(#mask1_31_1093)">
<path id="Vector_4" d="M38.5516 11.6779L11.7692 35.4035L-11.4905 9.15257L15.308 -14.573L38.5516 11.6779Z" fill="url(#paint1_linear_31_1093)"/>
</g>
</g>
<g id="Clip path group_3">
<mask id="mask2_31_1093" style="mask-type:luminance" maskUnits="userSpaceOnUse" x="11" y="17" width="29" height="33">
<g id="SVGID_10_">
<path id="Vector_5" d="M11.7693 41.371L20.2785 49.88L36.4123 33.7467C41.1093 29.0498 40.8358 21.7471 36.1228 17.0503L11.7693 41.371Z" fill="white"/>
</g>
</mask>
<g mask="url(#mask2_31_1093)">
<path id="Vector_6" d="M57.5487 33.4573L26.4393 64.566L-4.65405 33.4573L26.4393 2.36475L57.5487 33.4573Z" fill="url(#paint2_linear_31_1093)"/>
</g>
</g>
<g id="Clip path group_4">
<mask id="mask3_31_1093" style="mask-type:luminance" maskUnits="userSpaceOnUse" x="12" y="17" width="28" height="33">
<g id="SVGID_13_">
<path id="Vector_7" d="M12.0909 41.0493L20.6002 49.5583L36.4283 33.7306C41.1253 29.0337 40.8519 21.731 36.1388 17.0342L12.0909 41.0493Z" fill="white"/>
</g>
</mask>
<g mask="url(#mask3_31_1093)">
<path id="Vector_8" d="M37.297 7.22217L52.1279 45.2796L15.9194 59.3862L1.0885 21.3288L37.297 7.22217Z" fill="url(#paint3_linear_31_1093)"/>
</g>
</g>
<g id="Clip path group_5">
<mask id="mask4_31_1093" style="mask-type:luminance" maskUnits="userSpaceOnUse" x="20" y="17" width="20" height="33">
<g id="SVGID_16_">
<path id="Vector_9" d="M20.6002 49.5583L36.4284 33.7306C41.1254 29.0337 40.8519 21.731 36.1388 17.0342L20.6002 49.5583Z" fill="white"/>
</g>
</mask>
<g mask="url(#mask4_31_1093)">
<path id="Vector_10" d="M24.4286 57.5528L7.94092 23.0985L37.297 9.05615L53.7847 43.4944L24.4286 57.5528Z" fill="url(#paint4_linear_31_1093)"/>
</g>
</g>
<g id="Clip path group_6">
<mask id="mask5_31_1093" style="mask-type:luminance" maskUnits="userSpaceOnUse" x="10" y="0" width="30" height="35">
<g id="SVGID_19_">
<path id="Vector_11" d="M10.8523 8.83077L36.0905 34.0683L36.38 33.7788C41.3344 28.8246 41.077 21.4576 36.38 16.7447L19.6511 0.0161133L10.8523 8.83077Z" fill="white"/>
</g>
</mask>
<g mask="url(#mask5_31_1093)">
<path id="Vector_12" d="M26.1013 -15.2163L58.3689 17.0505L26.1013 49.3011L-6.16626 17.0505L26.1013 -15.2163Z" fill="url(#paint5_linear_31_1093)"/>
</g>
</g>
<g id="Clip path group_7">
<mask id="mask6_31_1093" style="mask-type:luminance" maskUnits="userSpaceOnUse" x="0" y="15" width="30" height="35">
<g id="SVGID_22_">
<path id="Vector_13" d="M3.8552 33.4572L20.2785 49.8801L29.0773 41.0816L3.8552 15.844C-1.01871 20.7017 -1.51737 28.0848 3.8552 33.4572Z" fill="white"/>
</g>
</mask>
<g mask="url(#mask6_31_1093)">
<path id="Vector_14" d="M45.8544 29.9185L16.434 64.9519L-18.2786 35.8056L11.1419 0.772217L45.8544 29.9185Z" fill="url(#paint6_linear_31_1093)"/>
</g>
</g>
<g id="Clip path group_8">
<mask id="mask7_31_1093" style="mask-type:luminance" maskUnits="userSpaceOnUse" x="0" y="15" width="21" height="35">
<g id="SVGID_25_">
<path id="Vector_15" d="M3.85518 33.4572L20.2785 49.8801L3.85518 15.844C-1.14742 20.8304 -1.42088 28.1813 3.85518 33.4572Z" fill="white"/>
</g>
</mask>
<g mask="url(#mask7_31_1093)">
<path id="Vector_16" d="M9.43676 4.98633L37.2969 32.8619L9.43676 60.7374L-18.4395 32.8619L9.43676 4.98633Z" fill="url(#paint7_linear_31_1093)"/>
</g>
</g>
</g>
<defs>
<linearGradient id="paint0_linear_31_1093" x1="15.947" y1="5.25122" x2="10.8846" y2="29.2005" gradientUnits="userSpaceOnUse">
<stop stop-color="#006837"/>
<stop offset="0.0156645" stop-color="#006837"/>
<stop offset="0.5253" stop-color="#39B54A"/>
<stop offset="0.7405" stop-color="#88CA36"/>
<stop offset="0.9161" stop-color="#C2DA27"/>
<stop offset="1" stop-color="#D9E021"/>
</linearGradient>
<linearGradient id="paint1_linear_31_1093" x1="30.6595" y1="-4.7804" x2="-3.41507" y2="25.4007" gradientUnits="userSpaceOnUse">
<stop stop-color="#006837"/>
<stop offset="0.0156645" stop-color="#006837"/>
<stop offset="0.5253" stop-color="#39B54A"/>
<stop offset="0.7405" stop-color="#88CA36"/>
<stop offset="0.9161" stop-color="#C2DA27"/>
<stop offset="1" stop-color="#D9E021"/>
</linearGradient>
<linearGradient id="paint2_linear_31_1093" x1="40.1976" y1="19.7338" x2="20.1559" y2="39.776" gradientUnits="userSpaceOnUse">
<stop stop-color="#00BAFF"/>
<stop offset="0.3439" stop-color="#00BAFF"/>
<stop offset="1" stop-color="#846CD3"/>
</linearGradient>
<linearGradient id="paint3_linear_31_1093" x1="22.9128" y1="23.8562" x2="30.701" y2="43.8467" gradientUnits="userSpaceOnUse">
<stop stop-color="#2BC4F3"/>
<stop offset="0.5" stop-color="#00AEEE"/>
<stop offset="1" stop-color="#0095DA"/>
</linearGradient>
<linearGradient id="paint4_linear_31_1093" x1="33.9672" y1="39.789" x2="28.5153" y2="28.3983" gradientUnits="userSpaceOnUse">
<stop stop-color="#2BC4F3"/>
<stop offset="0.5" stop-color="#00AEEE"/>
<stop offset="1" stop-color="#0095DA"/>
</linearGradient>
<linearGradient id="paint5_linear_31_1093" x1="17.1604" y1="8.11124" x2="37.7553" y2="28.7066" gradientUnits="userSpaceOnUse">
<stop stop-color="#2BC4F3"/>
<stop offset="0.5" stop-color="#00AEEE"/>
<stop offset="1" stop-color="#0095DA"/>
</linearGradient>
<linearGradient id="paint6_linear_31_1093" x1="18.9524" y1="26.715" x2="1.29877" y2="47.7441" gradientUnits="userSpaceOnUse">
<stop stop-color="#006837"/>
<stop offset="0.0156645" stop-color="#006837"/>
<stop offset="0.5253" stop-color="#39B54A"/>
<stop offset="0.7405" stop-color="#88CA36"/>
<stop offset="0.9161" stop-color="#C2DA27"/>
<stop offset="1" stop-color="#D9E021"/>
</linearGradient>
<linearGradient id="paint7_linear_31_1093" x1="-1.86989" y1="21.5689" x2="23.3659" y2="46.8053" gradientUnits="userSpaceOnUse">
<stop stop-color="#006837"/>
<stop offset="0.0156645" stop-color="#006837"/>
<stop offset="0.5253" stop-color="#39B54A"/>
<stop offset="0.7405" stop-color="#88CA36"/>
<stop offset="0.9161" stop-color="#C2DA27"/>
<stop offset="1" stop-color="#D9E021"/>
</linearGradient>
</defs>
</svg>
