<svg width="174" height="147" viewBox="0 0 174 147" fill="none" xmlns="http://www.w3.org/2000/svg">
<path d="M76.9234 133H75.3944V127.654L71.8964 133H70.4004V125.223H71.9294V130.58L75.4274 125.223H76.9234V133ZM84.8468 133H83.2408V129.733H80.1168V133H78.5108V125.223H80.1168V128.479H83.2408V125.223H84.8468V133ZM95.6677 133.143C95.0517 132.549 94.5091 131.951 94.0397 131.35C93.5704 130.741 93.1377 130.151 92.7417 129.579H92.0377V133H90.4537V129.579H89.7497C89.3537 130.151 88.9211 130.741 88.4517 131.35C87.9824 131.951 87.4397 132.549 86.8237 133.143L85.7017 132.131C86.2444 131.596 86.7357 131.064 87.1757 130.536C87.6157 130.008 88.0154 129.491 88.3747 128.985L87.5607 127.698C87.4581 127.537 87.3444 127.386 87.2197 127.247C87.1024 127.1 86.9777 126.972 86.8457 126.862C86.7137 126.745 86.5707 126.653 86.4167 126.587C86.2701 126.514 86.1197 126.473 85.9657 126.466L86.2627 125.212C86.5341 125.212 86.7834 125.252 87.0107 125.333C87.2454 125.406 87.4581 125.513 87.6487 125.652C87.8394 125.784 88.0117 125.942 88.1657 126.125C88.3271 126.308 88.4737 126.506 88.6057 126.719L89.7387 128.501H90.4537V125.223H92.0377V128.501H92.7527L93.8857 126.719C94.0177 126.506 94.1607 126.308 94.3147 126.125C94.4761 125.942 94.6521 125.784 94.8427 125.652C95.0334 125.513 95.2424 125.406 95.4697 125.333C95.6971 125.252 95.9501 125.212 96.2287 125.212L96.5257 126.466C96.3717 126.473 96.2177 126.514 96.0637 126.587C95.9171 126.653 95.7777 126.745 95.6457 126.862C95.5137 126.972 95.3854 127.1 95.2607 127.247C95.1434 127.386 95.0334 127.537 94.9307 127.698L94.1167 128.985C94.4761 129.491 94.8757 130.008 95.3157 130.536C95.7557 131.064 96.2471 131.596 96.7897 132.131L95.6677 133.143ZM102.868 133H97.6426V125.223H102.868V126.477H99.2156V128.479H102.208V129.733H99.2156V131.746H102.868V133ZM110.392 133H108.786V129.733H105.662V133H104.056V125.223H105.662V128.479H108.786V125.223H110.392V133ZM117.198 133H111.973V125.223H117.198V126.477H113.546V128.479H116.538V129.733H113.546V131.746H117.198V133ZM119.959 133H118.386V125.223H121.4C121.781 125.223 122.133 125.282 122.456 125.399C122.778 125.516 123.057 125.685 123.292 125.905C123.526 126.118 123.71 126.382 123.842 126.697C123.974 127.005 124.04 127.35 124.04 127.731C124.04 128.12 123.974 128.468 123.842 128.776C123.71 129.084 123.526 129.348 123.292 129.568C123.057 129.781 122.778 129.946 122.456 130.063C122.133 130.18 121.781 130.239 121.4 130.239H119.959V133ZM121.224 128.985C121.59 128.985 121.884 128.875 122.104 128.655C122.331 128.435 122.445 128.123 122.445 127.72C122.445 127.324 122.331 127.02 122.104 126.807C121.884 126.587 121.59 126.477 121.224 126.477H119.959V128.985H121.224ZM131.457 133H129.851V129.733H126.727V133H125.121V125.223H126.727V128.479H129.851V125.223H131.457V133ZM133.038 133V125.223H134.611V128.226H135.931C136.327 128.226 136.686 128.281 137.009 128.391C137.332 128.501 137.603 128.659 137.823 128.864C138.05 129.069 138.226 129.322 138.351 129.623C138.476 129.916 138.538 130.246 138.538 130.613C138.538 130.987 138.476 131.324 138.351 131.625C138.226 131.918 138.05 132.168 137.823 132.373C137.603 132.571 137.332 132.725 137.009 132.835C136.686 132.945 136.327 133 135.931 133H133.038ZM135.799 131.746C136.173 131.746 136.463 131.651 136.668 131.46C136.881 131.262 136.987 130.98 136.987 130.613C136.987 130.239 136.881 129.96 136.668 129.777C136.463 129.586 136.173 129.491 135.799 129.491H134.611V131.746H135.799ZM141.189 133H139.583V125.223H141.189V133ZM147.996 133H142.771V125.223H147.996V126.477H144.344V128.479H147.336V129.733H144.344V131.746H147.996V133ZM67.257 145.143C66.641 144.549 66.0983 143.951 65.629 143.35C65.1596 142.741 64.727 142.151 64.331 141.579H63.627V145H62.043V137.223H63.627V140.501H64.342L65.475 138.719C65.607 138.506 65.75 138.308 65.904 138.125C66.0653 137.942 66.2413 137.784 66.432 137.652C66.6226 137.513 66.8316 137.406 67.059 137.333C67.2863 137.252 67.5393 137.212 67.818 137.212L68.115 138.466C67.961 138.473 67.807 138.514 67.653 138.587C67.5063 138.653 67.367 138.745 67.235 138.862C67.103 138.972 66.9746 139.1 66.85 139.247C66.7326 139.386 66.6226 139.537 66.52 139.698L65.706 140.985C66.0653 141.491 66.465 142.008 66.905 142.536C67.345 143.064 67.8363 143.596 68.379 144.131L67.257 145.143ZM73.0346 143.592C73.2912 143.46 73.5039 143.28 73.6726 143.053C73.8412 142.818 73.9696 142.536 74.0576 142.206C74.1456 141.876 74.1896 141.513 74.1896 141.117C74.1896 140.721 74.1456 140.358 74.0576 140.028C73.9696 139.698 73.8412 139.416 73.6726 139.181C73.5039 138.946 73.2912 138.767 73.0346 138.642C72.7779 138.51 72.4846 138.444 72.1546 138.444C71.8246 138.444 71.5312 138.51 71.2746 138.642C71.0179 138.767 70.8052 138.946 70.6366 139.181C70.4679 139.416 70.3396 139.698 70.2516 140.028C70.1636 140.358 70.1196 140.721 70.1196 141.117C70.1196 141.513 70.1636 141.876 70.2516 142.206C70.3396 142.536 70.4679 142.818 70.6366 143.053C70.8052 143.28 71.0179 143.46 71.2746 143.592C71.5312 143.717 71.8246 143.779 72.1546 143.779C72.4846 143.779 72.7779 143.717 73.0346 143.592ZM74.8276 143.988C74.5122 144.34 74.1272 144.615 73.6726 144.813C73.2252 145.011 72.7192 145.11 72.1546 145.11C71.5899 145.11 71.0802 145.011 70.6256 144.813C70.1782 144.615 69.7932 144.34 69.4706 143.988C69.1552 143.629 68.9132 143.207 68.7446 142.723C68.5759 142.232 68.4916 141.696 68.4916 141.117C68.4916 140.538 68.5759 140.006 68.7446 139.522C68.9132 139.031 69.1552 138.609 69.4706 138.257C69.7932 137.898 70.1782 137.619 70.6256 137.421C71.0802 137.216 71.5899 137.113 72.1546 137.113C72.7192 137.113 73.2252 137.216 73.6726 137.421C74.1272 137.619 74.5122 137.898 74.8276 138.257C75.1502 138.609 75.3959 139.031 75.5646 139.522C75.7332 140.006 75.8176 140.538 75.8176 141.117C75.8176 141.696 75.7332 142.232 75.5646 142.723C75.3959 143.207 75.1502 143.629 74.8276 143.988ZM84.815 145H83.209V139.665L81.295 142.723H80.503L78.611 139.698V145H77.082V137.223H78.732L80.965 140.798L83.198 137.223H84.815V145ZM94.1285 145H92.5225V139.665L90.6085 142.723H89.8165L87.9245 139.698V145H86.3955V137.223H88.0455L90.2785 140.798L92.5115 137.223H94.1285V145ZM99.152 142.063C98.8733 142.701 98.5653 143.31 98.228 143.889C97.898 144.468 97.513 144.974 97.073 145.407L95.951 144.428C96.2957 144.098 96.578 143.779 96.798 143.471C97.0253 143.156 97.227 142.851 97.403 142.558L95.027 137.223H96.765L98.195 140.897L99.636 137.223H101.275L99.152 142.063ZM108.512 145H106.906V141.733H103.782V145H102.176V137.223H103.782V140.479H106.906V137.223H108.512V145ZM116.616 145H115.087V139.654L111.589 145H110.093V137.223H111.622V142.58L115.12 137.223H116.616V145ZM123.417 145.143C122.801 144.549 122.258 143.951 121.789 143.35C121.32 142.741 120.887 142.151 120.491 141.579H119.787V145H118.203V137.223H119.787V140.501H120.502L121.635 138.719C121.767 138.506 121.91 138.308 122.064 138.125C122.225 137.942 122.401 137.784 122.592 137.652C122.783 137.513 122.992 137.406 123.219 137.333C123.446 137.252 123.699 137.212 123.978 137.212L124.275 138.466C124.121 138.473 123.967 138.514 123.813 138.587C123.666 138.653 123.527 138.745 123.395 138.862C123.263 138.972 123.135 139.1 123.01 139.247C122.893 139.386 122.783 139.537 122.68 139.698L121.866 140.985C122.225 141.491 122.625 142.008 123.065 142.536C123.505 143.064 123.996 143.596 124.539 144.131L123.417 145.143ZM132.306 145H130.612L129.952 143.097H127.136L126.476 145H124.837L127.752 137.223H129.391L132.306 145ZM129.545 141.843L128.544 138.95L127.543 141.843H129.545ZM140.327 146.474H138.963V145H133.21V137.223H134.816V143.746H137.742V137.223H139.348V143.746H140.327V146.474ZM147.843 145H146.314V139.654L142.816 145H141.32V137.223H142.849V142.58L146.347 137.223H147.843V145ZM155.954 145H154.425V139.654L150.927 145H149.431V137.223H150.96V142.58L154.458 137.223H155.954V145Z" fill="#A9A9A9"/>
<path d="M39.7102 62.2181C38.9553 62.3688 38.2004 62.6702 37.5964 62.9716C35.0296 59.8072 31.8588 57.6977 28.235 56.4922C20.3836 53.9306 12.0792 56.4922 7.85146 57.999C9.36135 62.3688 13.2871 70.807 20.6856 74.122C24.9133 75.9302 29.7449 75.9302 35.1806 73.9714L36.5395 80.6014C29.7449 82.8616 23.5544 82.7109 17.9678 80.3C4.83166 74.5741 0.754948 57.6977 0.603958 56.9443L0 54.3827L2.26484 53.1772C2.8688 52.8758 16.7598 45.7938 30.3489 50.1636C36.2375 52.1224 41.0692 55.7388 44.6929 61.1634L39.7102 62.2181Z" fill="url(#paint0_linear_146_12538)"/>
<path d="M58.7349 58.3004L50.5815 59.9579C51.9404 56.0402 54.3562 48.2047 51.7894 43.8349C47.7127 46.5472 45.1459 51.6704 43.938 54.3826C42.4281 52.7251 40.6162 51.369 38.8043 50.1635C40.1632 46.5472 43.636 39.9172 51.9404 36.1501L54.6582 34.9446L56.1681 37.5062C56.6211 37.9583 62.0567 46.8485 58.7349 58.3004Z" fill="url(#paint1_linear_146_12538)"/>
<path d="M55.4131 27.5612V3H164.881V64.0263" fill="white"/>
<path d="M55.4131 27.5612V3H164.881V64.0263" stroke="#696969" stroke-width="4.1128" stroke-miterlimit="10"/>
<path d="M92.9494 61H85.2814V48.31C84.0214 48.454 82.6894 48.526 81.2854 48.526C77.6494 48.526 75.0934 47.752 73.6174 46.204C72.1774 44.656 71.4574 42.082 71.4574 38.482V22.552H79.1254V37.672C79.1254 39.148 79.3774 40.174 79.8814 40.75C80.3854 41.326 81.2854 41.614 82.5814 41.614C83.4814 41.614 84.3814 41.56 85.2814 41.452V22.552H92.9494V61ZM117.684 61H99.972V22.552H117.684V29.464H107.64V38.158H116.28V45.07H107.64V54.088H117.684V61ZM147.008 61H139.34V29.464H134.048V45.556C134.048 48.22 133.85 50.506 133.454 52.414C133.094 54.322 132.626 55.834 132.05 56.95C131.474 58.03 130.7 58.894 129.728 59.542C128.756 60.154 127.802 60.55 126.866 60.73C125.93 60.91 124.796 61 123.464 61H121.142V54.088H121.79C122.546 54.088 123.176 53.998 123.68 53.818C124.184 53.638 124.688 53.26 125.192 52.684C125.696 52.072 126.056 51.118 126.272 49.822C126.524 48.526 126.65 46.87 126.65 44.854V22.552H147.008V61Z" fill="url(#paint2_linear_146_12538)"/>
<mask id="mask0_146_12538" style="mask-type:alpha" maskUnits="userSpaceOnUse" x="71" y="22" width="77" height="39">
<path d="M92.9494 61H85.2814V48.31C84.0214 48.454 82.6894 48.526 81.2854 48.526C77.6494 48.526 75.0934 47.752 73.6174 46.204C72.1774 44.656 71.4574 42.082 71.4574 38.482V22.552H79.1254V37.672C79.1254 39.148 79.3774 40.174 79.8814 40.75C80.3854 41.326 81.2854 41.614 82.5814 41.614C83.4814 41.614 84.3814 41.56 85.2814 41.452V22.552H92.9494V61Z" fill="url(#paint3_linear_146_12538)"/>
<path d="M117.684 61H99.9719V22.552H117.684V29.464H107.64V38.158H116.28V45.07H107.64V54.088H117.684V61Z" fill="url(#paint4_linear_146_12538)"/>
<path d="M147.008 61H139.34V29.464H134.048V45.556C134.048 48.22 133.85 50.506 133.454 52.414C133.094 54.322 132.626 55.834 132.05 56.95C131.474 58.03 130.7 58.894 129.728 59.542C128.756 60.154 127.802 60.55 126.866 60.73C125.93 60.91 124.796 61 123.464 61H121.142V54.088H121.79C122.546 54.088 123.176 53.998 123.68 53.818C124.184 53.638 124.688 53.26 125.192 52.684C125.696 52.072 126.056 51.118 126.272 49.822C126.524 48.526 126.65 46.87 126.65 44.854V22.552H147.008V61Z" fill="url(#paint5_linear_146_12538)"/>
</mask>
<g mask="url(#mask0_146_12538)">
<ellipse cx="131.5" cy="104" rx="89.5" ry="66" fill="url(#paint6_linear_146_12538)"/>
</g>
<path d="M63.7091 92.068C63.5624 95.1187 62.6237 97.4653 60.8931 99.108C59.3091 100.604 57.2997 101.352 54.8651 101.352C51.9904 101.352 49.7024 100.296 48.0011 98.184C47.0037 96.952 46.3584 95.3973 46.065 93.52C45.8011 91.6133 45.6691 88.8853 45.6691 85.336C45.6691 81.7867 45.8011 79.0733 46.065 77.196C46.3584 75.2893 47.0037 73.72 48.0011 72.488C49.7024 70.376 51.9904 69.32 54.8651 69.32C57.2997 69.32 59.3091 70.068 60.8931 71.564C62.6237 73.2067 63.5624 75.5387 63.7091 78.56H57.4611C57.4024 77.4453 57.2411 76.6387 56.9771 76.14C56.5957 75.348 55.8917 74.952 54.8651 74.952C53.8677 74.952 53.1637 75.3627 52.7531 76.184C52.1957 77.2693 51.9171 80.32 51.9171 85.336C51.9171 90.352 52.1957 93.4027 52.7531 94.488C53.1637 95.3093 53.8677 95.72 54.8651 95.72C55.8917 95.72 56.5957 95.3093 56.9771 94.488C57.2411 93.9893 57.4024 93.1827 57.4611 92.068H63.7091ZM82.7449 101H68.3129V69.672H82.7449V75.304H74.5609V82.388H81.6009V88.02H74.5609V95.368H82.7449V101ZM105.143 101H98.8946V75.304H93.7026V101H87.4546V69.672H105.143V101ZM126.118 75.304H120.838V101H114.59V75.304H109.31V69.672H126.118V75.304ZM148.245 101H141.997V84.808L135.969 101H130.293V69.672H136.541V85.864L142.701 69.672H148.245V101ZM160.194 101H153.946V69.672H160.194V101ZM173.702 101H166.838L160.282 84.676L166.266 69.672H172.822L166.662 84.368L173.702 101Z" fill="#0793D1"/>
<mask id="mask1_146_12538" style="mask-type:alpha" maskUnits="userSpaceOnUse" x="45" y="69" width="129" height="33">
<path d="M63.7091 92.068C63.5624 95.1187 62.6237 97.4653 60.8931 99.108C59.3091 100.604 57.2997 101.352 54.8651 101.352C51.9904 101.352 49.7024 100.296 48.0011 98.184C47.0037 96.952 46.3584 95.3973 46.0651 93.52C45.8011 91.6133 45.6691 88.8853 45.6691 85.336C45.6691 81.7867 45.8011 79.0733 46.0651 77.196C46.3584 75.2893 47.0037 73.72 48.0011 72.488C49.7024 70.376 51.9904 69.32 54.8651 69.32C57.2997 69.32 59.3091 70.068 60.8931 71.564C62.6237 73.2067 63.5624 75.5387 63.7091 78.56H57.4611C57.4024 77.4453 57.2411 76.6387 56.9771 76.14C56.5957 75.348 55.8917 74.952 54.8651 74.952C53.8677 74.952 53.1637 75.3627 52.7531 76.184C52.1957 77.2693 51.9171 80.32 51.9171 85.336C51.9171 90.352 52.1957 93.4027 52.7531 94.488C53.1637 95.3093 53.8677 95.72 54.8651 95.72C55.8917 95.72 56.5957 95.3093 56.9771 94.488C57.2411 93.9893 57.4024 93.1827 57.4611 92.068H63.7091Z" fill="#0793D1"/>
<path d="M82.7449 101H68.3129V69.672H82.7449V75.304H74.5609V82.388H81.6009V88.02H74.5609V95.368H82.7449V101Z" fill="#0793D1"/>
<path d="M105.143 101H98.8946V75.304H93.7026V101H87.4546V69.672H105.143V101Z" fill="#0793D1"/>
<path d="M126.118 75.304H120.838V101H114.59V75.304H109.31V69.672H126.118V75.304Z" fill="#0793D1"/>
<path d="M148.245 101H141.997V84.808L135.969 101H130.293V69.672H136.541V85.864L142.701 69.672H148.245V101Z" fill="#0793D1"/>
<path d="M160.194 101H153.946V69.672H160.194V101ZM173.702 101H166.838L160.282 84.676L166.266 69.672H172.822L166.662 84.368L173.702 101Z" fill="#0793D1"/>
</mask>
<g mask="url(#mask1_146_12538)">
<ellipse cx="77" cy="26" rx="129" ry="66" fill="#00B8F5"/>
</g>
<path d="M164.881 112.094H55.4131" stroke="#696969" stroke-width="4.1128" stroke-miterlimit="10"/>
<defs>
<linearGradient id="paint0_linear_146_12538" x1="133.717" y1="105.885" x2="-82.2928" y2="25.5078" gradientUnits="userSpaceOnUse">
<stop stop-color="#D1ED00"/>
<stop offset="0.0358501" stop-color="#CCE900"/>
<stop offset="0.0801358" stop-color="#BDDF01"/>
<stop offset="0.1289" stop-color="#A3CE01"/>
<stop offset="0.1808" stop-color="#80B602"/>
<stop offset="0.2353" stop-color="#539704"/>
<stop offset="0.291" stop-color="#1D7205"/>
<stop offset="0.318" stop-color="#005E06"/>
<stop offset="0.3357" stop-color="#196E07"/>
<stop offset="0.3739" stop-color="#498D09"/>
<stop offset="0.4142" stop-color="#73A80A"/>
<stop offset="0.4561" stop-color="#97BF0B"/>
<stop offset="0.5" stop-color="#B4D10C"/>
<stop offset="0.5464" stop-color="#CBE00D"/>
<stop offset="0.5967" stop-color="#DBEA0E"/>
<stop offset="0.6536" stop-color="#E4F00E"/>
<stop offset="0.7311" stop-color="#E7F20E"/>
<stop offset="0.7508" stop-color="#D3E811"/>
<stop offset="0.8429" stop-color="#7ABB1F"/>
<stop offset="0.9179" stop-color="#389929"/>
<stop offset="0.9721" stop-color="#0F852F"/>
<stop offset="1" stop-color="#007D31"/>
</linearGradient>
<linearGradient id="paint1_linear_146_12538" x1="177.563" y1="93.7642" x2="-99.9985" y2="-9.5163" gradientUnits="userSpaceOnUse">
<stop stop-color="#D1ED00"/>
<stop offset="0.0358501" stop-color="#CCE900"/>
<stop offset="0.0801358" stop-color="#BDDF01"/>
<stop offset="0.1289" stop-color="#A3CE01"/>
<stop offset="0.1808" stop-color="#80B602"/>
<stop offset="0.2353" stop-color="#539704"/>
<stop offset="0.291" stop-color="#1D7205"/>
<stop offset="0.318" stop-color="#005E06"/>
<stop offset="0.3357" stop-color="#196E07"/>
<stop offset="0.3739" stop-color="#498D09"/>
<stop offset="0.4142" stop-color="#73A80A"/>
<stop offset="0.4561" stop-color="#97BF0B"/>
<stop offset="0.5" stop-color="#B4D10C"/>
<stop offset="0.5464" stop-color="#CBE00D"/>
<stop offset="0.5967" stop-color="#DBEA0E"/>
<stop offset="0.6536" stop-color="#E4F00E"/>
<stop offset="0.7311" stop-color="#E7F20E"/>
<stop offset="0.7508" stop-color="#D3E811"/>
<stop offset="0.8429" stop-color="#7ABB1F"/>
<stop offset="0.9179" stop-color="#389929"/>
<stop offset="0.9721" stop-color="#0F852F"/>
<stop offset="1" stop-color="#007D31"/>
</linearGradient>
<linearGradient id="paint2_linear_146_12538" x1="85.8231" y1="25.5" x2="140.456" y2="71.7689" gradientUnits="userSpaceOnUse">
<stop stop-color="#7EAE0A"/>
<stop offset="1" stop-color="#DCEA0E"/>
</linearGradient>
<linearGradient id="paint3_linear_146_12538" x1="85.8231" y1="25.5" x2="140.456" y2="71.7689" gradientUnits="userSpaceOnUse">
<stop stop-color="#7EAE0A"/>
<stop offset="1" stop-color="#DCEA0E"/>
</linearGradient>
<linearGradient id="paint4_linear_146_12538" x1="85.8231" y1="25.5" x2="140.456" y2="71.7689" gradientUnits="userSpaceOnUse">
<stop stop-color="#7EAE0A"/>
<stop offset="1" stop-color="#DCEA0E"/>
</linearGradient>
<linearGradient id="paint5_linear_146_12538" x1="85.8231" y1="25.5" x2="140.456" y2="71.7689" gradientUnits="userSpaceOnUse">
<stop stop-color="#7EAE0A"/>
<stop offset="1" stop-color="#DCEA0E"/>
</linearGradient>
<linearGradient id="paint6_linear_146_12538" x1="69.0581" y1="59" x2="150.236" y2="59.4814" gradientUnits="userSpaceOnUse">
<stop stop-color="#71B002"/>
<stop offset="0.536458" stop-color="#116A05"/>
<stop offset="0.989583" stop-color="#7BAB09"/>
</linearGradient>
</defs>
</svg>
