<svg width="23" height="23" viewBox="0 0 23 23" fill="none" xmlns="http://www.w3.org/2000/svg">
<path opacity="0.5" d="M4.15063 7.84048C4.15063 4.06258 7.4414 1 11.5007 1C15.5601 1 18.8509 4.06258 18.8509 7.84048C18.8509 11.5888 16.5049 15.9626 12.8449 17.5268C11.9916 17.8914 11.0099 17.8914 10.1566 17.5268C6.49654 15.9626 4.15063 11.5888 4.15063 7.84048Z" stroke="#8DC63F" stroke-width="2"/>
<path d="M13.6007 8.35012C13.6007 9.50997 12.6605 10.4502 11.5007 10.4502C10.3408 10.4502 9.40063 9.50997 9.40063 8.35012C9.40063 7.19031 10.3408 6.25009 11.5007 6.25009C12.6605 6.25009 13.6007 7.19031 13.6007 8.35012Z" stroke="#8DC63F" stroke-width="2"/>
<path d="M20.9088 15.1747C21.6075 15.8073 22.0003 16.5204 22.0003 17.2747C22.0003 19.8844 17.2992 21.9998 11.5002 21.9998C5.70108 21.9998 1 19.8844 1 17.2747C1 16.5204 1.39283 15.8073 2.09146 15.1747" stroke="#8DC63F" stroke-width="2" stroke-linecap="round"/>
</svg>
