<svg width="178" height="32" viewBox="0 0 178 32" fill="none" xmlns="http://www.w3.org/2000/svg">
<path d="M26.2767 18.0471C25.7771 18.1469 25.2776 18.3463 24.8779 18.5457C23.1794 16.4518 21.0813 15.0559 18.6834 14.2582C13.488 12.5632 7.9929 14.2582 5.19539 15.2553C6.1945 18.1469 8.79219 23.7305 13.6878 25.9241C16.4854 27.1206 19.6825 27.1206 23.2793 25.8244L24.1785 30.2115C19.6825 31.7071 15.5862 31.6074 11.8894 30.0121C3.19716 26.2232 0.499556 15.0559 0.399645 14.5574L0 12.8623L1.49867 12.0647C1.89831 11.8653 11.0902 7.17898 20.0822 10.0705C23.9787 11.3667 27.1759 13.7597 29.5737 17.3492L26.2767 18.0471Z" fill="url(#paint0_linear_146_17636)"/>
<path d="M38.8658 15.4547L33.4706 16.5515C34.3698 13.9591 35.9684 8.7743 34.2699 5.88277C31.5723 7.67751 29.8738 11.0676 29.0745 12.8623C28.0754 11.7655 26.8764 10.8682 25.6775 10.0705C26.5767 7.67751 28.8747 3.29036 34.3698 0.797665L36.1682 0L37.1673 1.69504C37.467 1.99416 41.0638 7.87693 38.8658 15.4547Z" fill="url(#paint1_linear_146_17636)"/>
<path d="M57.1682 23.1598H53.1693V16.5419C52.5122 16.617 51.8175 16.6546 51.0853 16.6546C49.1891 16.6546 47.8562 16.2509 47.0864 15.4436C46.3354 14.6363 45.96 13.294 45.96 11.4166V3.10895H49.9589V10.9941C49.9589 11.7639 50.0903 12.2989 50.3531 12.5993C50.616 12.8997 51.0853 13.0499 51.7612 13.0499C52.2306 13.0499 52.6999 13.0218 53.1693 12.9654V3.10895H57.1682V23.1598Z" fill="url(#paint2_linear_146_17636)"/>
<path d="M70.0674 23.1598H60.8305V3.10895H70.0674V6.7136H64.8294V11.2476H69.3352V14.8522H64.8294V19.5552H70.0674V23.1598Z" fill="url(#paint3_linear_146_17636)"/>
<path d="M85.3601 23.1598H81.3612V6.7136H78.6014V15.1057C78.6014 16.495 78.4982 17.6872 78.2916 18.6822C78.1039 19.6772 77.8598 20.4657 77.5594 21.0477C77.2591 21.611 76.8554 22.0616 76.3485 22.3995C75.8416 22.7187 75.3441 22.9252 74.8559 23.019C74.3678 23.1129 73.7764 23.1598 73.0818 23.1598H71.8708V19.5552H72.2088C72.603 19.5552 72.9316 19.5083 73.1944 19.4144C73.4573 19.3205 73.7201 19.1234 73.9829 18.823C74.2458 18.5038 74.4335 18.0063 74.5462 17.3304C74.6776 16.6546 74.7433 15.791 74.7433 14.7396V3.10895H85.3601V23.1598Z" fill="url(#paint4_linear_146_17636)"/>
<mask id="mask0_146_17636" style="mask-type:alpha" maskUnits="userSpaceOnUse" x="45" y="3" width="41" height="21">
<path d="M57.1677 23.1598H53.1688V16.5419C52.5117 16.617 51.817 16.6546 51.0848 16.6546C49.1886 16.6546 47.8557 16.2509 47.0859 15.4436C46.335 14.6363 45.9595 13.294 45.9595 11.4166V3.10895H49.9584V10.9941C49.9584 11.7639 50.0898 12.2989 50.3526 12.5993C50.6155 12.8997 51.0848 13.0499 51.7607 13.0499C52.2301 13.0499 52.6994 13.0218 53.1688 12.9654V3.10895H57.1677V23.1598Z" fill="url(#paint5_linear_146_17636)"/>
<path d="M70.0669 23.1598H60.83V3.10895H70.0669V6.7136H64.8289V11.2476H69.3347V14.8522H64.8289V19.5552H70.0669V23.1598Z" fill="url(#paint6_linear_146_17636)"/>
<path d="M85.3597 23.1598H81.3607V6.7136H78.6009V15.1057C78.6009 16.495 78.4977 17.6872 78.2911 18.6822C78.1034 19.6772 77.8593 20.4657 77.559 21.0477C77.2586 21.611 76.8549 22.0616 76.348 22.3995C75.8411 22.7187 75.3436 22.9252 74.8555 23.019C74.3673 23.1129 73.7759 23.1598 73.0813 23.1598H71.8704V19.5552H72.2083C72.6026 19.5552 72.9311 19.5083 73.1939 19.4144C73.4568 19.3205 73.7196 19.1234 73.9825 18.823C74.2453 18.5038 74.433 18.0063 74.5457 17.3304C74.6771 16.6546 74.7428 15.791 74.7428 14.7396V3.10895H85.3597V23.1598Z" fill="url(#paint7_linear_146_17636)"/>
</mask>
<g mask="url(#mask0_146_17636)">
<ellipse cx="77.2728" cy="45.5846" rx="46.6749" ry="34.4195" fill="url(#paint8_linear_146_17636)"/>
</g>
<path d="M100.388 17.6994C100.291 19.7181 99.6695 21.2709 98.5243 22.3578C97.4762 23.3478 96.1466 23.8427 94.5355 23.8427C92.6333 23.8427 91.1193 23.1439 89.9935 21.7464C89.3336 20.9312 88.9066 19.9025 88.7125 18.6602C88.5378 17.3985 88.4504 15.5934 88.4504 13.2448C88.4504 10.8961 88.5378 9.1007 88.7125 7.85845C88.9066 6.59679 89.3336 5.55834 89.9935 4.74312C91.1193 3.34559 92.6333 2.64682 94.5355 2.64682C96.1466 2.64682 97.4762 3.14178 98.5243 4.1317C99.6695 5.21867 100.291 6.76177 100.388 8.76102H96.2533C96.2145 8.02343 96.1077 7.48966 95.9331 7.15968C95.6807 6.63561 95.2149 6.37357 94.5355 6.37357C93.8756 6.37357 93.4097 6.64531 93.138 7.1888C92.7692 7.90697 92.5848 9.92563 92.5848 13.2448C92.5848 16.5639 92.7692 18.5826 93.138 19.3007C93.4097 19.8442 93.8756 20.116 94.5355 20.116C95.2149 20.116 95.6807 19.8442 95.9331 19.3007C96.1077 18.9708 96.2145 18.437 96.2533 17.6994H100.388Z" fill="#0793D1"/>
<path d="M112.984 23.6098H103.434V2.87974H112.984V6.60649H107.568V11.294H112.227V15.0208H107.568V19.883H112.984V23.6098Z" fill="#0793D1"/>
<path d="M127.805 23.6098H123.67V6.60649H120.235V23.6098H116.1V2.87974H127.805V23.6098Z" fill="#0793D1"/>
<path d="M141.684 6.60649H138.191V23.6098H134.056V6.60649H130.562V2.87974H141.684V6.60649Z" fill="#0793D1"/>
<path d="M156.326 23.6098H152.191V12.8954L148.203 23.6098H144.447V2.87974H148.581V13.5942L152.657 2.87974H156.326V23.6098Z" fill="#0793D1"/>
<path d="M164.233 23.6098H160.099V2.87974H164.233V23.6098ZM173.171 23.6098H168.629L164.291 12.808L168.251 2.87974H172.589L168.513 12.6042L173.171 23.6098Z" fill="#0793D1"/>
<mask id="mask1_146_17636" style="mask-type:alpha" maskUnits="userSpaceOnUse" x="88" y="2" width="86" height="22">
<path d="M100.387 17.6994C100.29 19.7181 99.669 21.2709 98.5238 22.3578C97.4757 23.3478 96.1461 23.8427 94.535 23.8427C92.6328 23.8427 91.1188 23.1439 89.9931 21.7464C89.3331 20.9312 88.9061 19.9025 88.712 18.6602C88.5373 17.3985 88.45 15.5934 88.45 13.2448C88.45 10.8961 88.5373 9.1007 88.712 7.85845C88.9061 6.59679 89.3331 5.55834 89.9931 4.74312C91.1188 3.34559 92.6328 2.64682 94.535 2.64682C96.1461 2.64682 97.4757 3.14178 98.5238 4.1317C99.669 5.21867 100.29 6.76177 100.387 8.76102H96.2528C96.214 8.02343 96.1073 7.48966 95.9326 7.15968C95.6802 6.63561 95.2144 6.37357 94.535 6.37357C93.8751 6.37357 93.4092 6.64531 93.1375 7.1888C92.7687 7.90697 92.5843 9.92563 92.5843 13.2448C92.5843 16.5639 92.7687 18.5826 93.1375 19.3007C93.4092 19.8442 93.8751 20.116 94.535 20.116C95.2144 20.116 95.6802 19.8442 95.9326 19.3007C96.1073 18.9708 96.214 18.437 96.2528 17.6994H100.387Z" fill="#0793D1"/>
<path d="M112.983 23.6098H103.434V2.87974H112.983V6.60649H107.568V11.294H112.226V15.0208H107.568V19.883H112.983V23.6098Z" fill="#0793D1"/>
<path d="M127.804 23.6098H123.67V6.60649H120.234V23.6098H116.1V2.87974H127.804V23.6098Z" fill="#0793D1"/>
<path d="M141.684 6.60649H138.19V23.6098H134.056V6.60649H130.562V2.87974H141.684V6.60649Z" fill="#0793D1"/>
<path d="M156.325 23.6098H152.191V12.8954L148.202 23.6098H144.446V2.87974H148.581V13.5942L152.657 2.87974H156.325V23.6098Z" fill="#0793D1"/>
<path d="M164.232 23.6098H160.098V2.87974H164.232V23.6098ZM173.171 23.6098H168.629L164.291 12.808L168.25 2.87974H172.588L168.512 12.6042L173.171 23.6098Z" fill="#0793D1"/>
</mask>
<g mask="url(#mask1_146_17636)">
<ellipse cx="109.181" cy="-26.0185" rx="85.3606" ry="43.6729" fill="#00B8F5"/>
</g>
<path d="M178 29.7621L35.0703 29.7621" stroke="#696969" stroke-width="2" stroke-miterlimit="10"/>
<defs>
<linearGradient id="paint0_linear_146_17636" x1="88.482" y1="46.942" x2="-54.454" y2="-6.24448" gradientUnits="userSpaceOnUse">
<stop stop-color="#D1ED00"/>
<stop offset="0.0358501" stop-color="#CCE900"/>
<stop offset="0.0801358" stop-color="#BDDF01"/>
<stop offset="0.1289" stop-color="#A3CE01"/>
<stop offset="0.1808" stop-color="#80B602"/>
<stop offset="0.2353" stop-color="#539704"/>
<stop offset="0.291" stop-color="#1D7205"/>
<stop offset="0.318" stop-color="#005E06"/>
<stop offset="0.3357" stop-color="#196E07"/>
<stop offset="0.3739" stop-color="#498D09"/>
<stop offset="0.4142" stop-color="#73A80A"/>
<stop offset="0.4561" stop-color="#97BF0B"/>
<stop offset="0.5" stop-color="#B4D10C"/>
<stop offset="0.5464" stop-color="#CBE00D"/>
<stop offset="0.5967" stop-color="#DBEA0E"/>
<stop offset="0.6536" stop-color="#E4F00E"/>
<stop offset="0.7311" stop-color="#E7F20E"/>
<stop offset="0.7508" stop-color="#D3E811"/>
<stop offset="0.8429" stop-color="#7ABB1F"/>
<stop offset="0.9179" stop-color="#389929"/>
<stop offset="0.9721" stop-color="#0F852F"/>
<stop offset="1" stop-color="#007D31"/>
</linearGradient>
<linearGradient id="paint1_linear_146_17636" x1="117.495" y1="38.9215" x2="-66.1698" y2="-29.4202" gradientUnits="userSpaceOnUse">
<stop stop-color="#D1ED00"/>
<stop offset="0.0358501" stop-color="#CCE900"/>
<stop offset="0.0801358" stop-color="#BDDF01"/>
<stop offset="0.1289" stop-color="#A3CE01"/>
<stop offset="0.1808" stop-color="#80B602"/>
<stop offset="0.2353" stop-color="#539704"/>
<stop offset="0.291" stop-color="#1D7205"/>
<stop offset="0.318" stop-color="#005E06"/>
<stop offset="0.3357" stop-color="#196E07"/>
<stop offset="0.3739" stop-color="#498D09"/>
<stop offset="0.4142" stop-color="#73A80A"/>
<stop offset="0.4561" stop-color="#97BF0B"/>
<stop offset="0.5" stop-color="#B4D10C"/>
<stop offset="0.5464" stop-color="#CBE00D"/>
<stop offset="0.5967" stop-color="#DBEA0E"/>
<stop offset="0.6536" stop-color="#E4F00E"/>
<stop offset="0.7311" stop-color="#E7F20E"/>
<stop offset="0.7508" stop-color="#D3E811"/>
<stop offset="0.8429" stop-color="#7ABB1F"/>
<stop offset="0.9179" stop-color="#389929"/>
<stop offset="0.9721" stop-color="#0F852F"/>
<stop offset="1" stop-color="#007D31"/>
</linearGradient>
<linearGradient id="paint2_linear_146_17636" x1="53.452" y1="4.64635" x2="81.9436" y2="28.7759" gradientUnits="userSpaceOnUse">
<stop stop-color="#7EAE0A"/>
<stop offset="1" stop-color="#DCEA0E"/>
</linearGradient>
<linearGradient id="paint3_linear_146_17636" x1="53.452" y1="4.64635" x2="81.9436" y2="28.7759" gradientUnits="userSpaceOnUse">
<stop stop-color="#7EAE0A"/>
<stop offset="1" stop-color="#DCEA0E"/>
</linearGradient>
<linearGradient id="paint4_linear_146_17636" x1="53.452" y1="4.64635" x2="81.9436" y2="28.7759" gradientUnits="userSpaceOnUse">
<stop stop-color="#7EAE0A"/>
<stop offset="1" stop-color="#DCEA0E"/>
</linearGradient>
<linearGradient id="paint5_linear_146_17636" x1="53.4513" y1="4.64635" x2="81.9429" y2="28.7759" gradientUnits="userSpaceOnUse">
<stop stop-color="#7EAE0A"/>
<stop offset="1" stop-color="#DCEA0E"/>
</linearGradient>
<linearGradient id="paint6_linear_146_17636" x1="53.4513" y1="4.64635" x2="81.9429" y2="28.7759" gradientUnits="userSpaceOnUse">
<stop stop-color="#7EAE0A"/>
<stop offset="1" stop-color="#DCEA0E"/>
</linearGradient>
<linearGradient id="paint7_linear_146_17636" x1="53.4513" y1="4.64635" x2="81.9429" y2="28.7759" gradientUnits="userSpaceOnUse">
<stop stop-color="#7EAE0A"/>
<stop offset="1" stop-color="#DCEA0E"/>
</linearGradient>
<linearGradient id="paint8_linear_146_17636" x1="44.7089" y1="22.1168" x2="87.0435" y2="22.3679" gradientUnits="userSpaceOnUse">
<stop stop-color="#71B002"/>
<stop offset="0.536458" stop-color="#116A05"/>
<stop offset="0.989583" stop-color="#7BAB09"/>
</linearGradient>
</defs>
</svg>
