<svg width="18" height="18" viewBox="0 0 18 18" fill="none" xmlns="http://www.w3.org/2000/svg">
<path d="M10.6 2.6C10.6 3.48366 9.8837 4.2 9.00002 4.2C8.11634 4.2 7.40002 3.48366 7.40002 2.6C7.40002 1.71634 8.11634 1 9.00002 1C9.8837 1 10.6 1.71634 10.6 2.6Z" stroke="#8DC63F" stroke-width="2"/>
<path d="M9.00005 11.3997L9.52101 11.1021C9.41421 10.9152 9.21533 10.7997 9.00005 10.7997C8.78477 10.7997 8.58589 10.9152 8.47909 11.1021L9.00005 11.3997ZM4.04855 8.64839L5.78879 9.22847L6.16826 8.09007L4.42803 7.50999L4.04855 8.64839ZM6.0535 9.78943L5.05607 12.3827L6.17608 12.8135L7.17351 10.2201L6.0535 9.78943ZM13.5721 7.50999L11.8318 8.09007L12.2113 9.22847L13.9516 8.64839L13.5721 7.50999ZM10.8266 10.2201L11.8241 12.8135L12.9441 12.3827L11.9466 9.78943L10.8266 10.2201ZM8.26037 13.9036L9.52101 11.6974L8.47909 11.1021L7.21844 13.3082L8.26037 13.9036ZM12.9916 5.13083L11.4735 5.45612L11.7249 6.62949L13.243 6.3042L12.9916 5.13083ZM6.52659 5.45613L5.00853 5.13083L4.7571 6.3042L6.27515 6.62949L6.52659 5.45613ZM8.47909 11.6974L9.73973 13.9036L10.7817 13.3082L9.52101 11.1021L8.47909 11.6974ZM11.4735 5.45612C11.3883 5.47439 11.3485 5.48292 11.3093 5.49104L11.5523 6.66616C11.5967 6.65697 11.6413 6.64741 11.7249 6.62949L11.4735 5.45612ZM6.27515 6.62949C6.35877 6.64741 6.40338 6.65697 6.4478 6.66616L6.69087 5.49104C6.65159 5.48292 6.61179 5.47439 6.52659 5.45613L6.27515 6.62949ZM11.3093 5.49104C9.78589 5.80613 8.21421 5.80613 6.69087 5.49104L6.4478 6.66616C8.13149 7.01443 9.86861 7.01443 11.5523 6.66616L11.3093 5.49104ZM6.7161 14.7998C7.35435 14.7998 7.94365 14.4578 8.26037 13.9036L7.21844 13.3082C7.11543 13.4886 6.92372 13.5998 6.7161 13.5998V14.7998ZM11.8241 12.8135C11.9698 13.1925 11.6901 13.5998 11.284 13.5998V14.7998C12.5322 14.7998 13.3921 13.5477 12.9441 12.3827L11.8241 12.8135ZM11.8318 8.09007C11.6543 8.14927 11.4653 8.20799 11.3119 8.30263L11.9422 9.32383C11.9351 9.32815 11.9411 9.32295 11.9874 9.30543C12.0361 9.28703 12.1017 9.26503 12.2113 9.22847L11.8318 8.09007ZM11.9466 9.78943C11.9051 9.68151 11.8804 9.61687 11.8637 9.56759C11.8477 9.52079 11.848 9.51287 11.8491 9.52111L10.6601 9.68367C10.6846 9.86231 10.7594 10.0455 10.8266 10.2201L11.9466 9.78943ZM11.3119 8.30263C10.8406 8.59359 10.5852 9.13495 10.6601 9.68367L11.8491 9.52111C11.8384 9.44271 11.8749 9.36535 11.9422 9.32383L11.3119 8.30263ZM14.0001 6.9162C14.0001 7.1856 13.8277 7.42479 13.5721 7.50999L13.9516 8.64839C14.6972 8.39991 15.2001 7.70215 15.2001 6.9162H14.0001ZM5.05607 12.3827C4.608 13.5477 5.46792 14.7998 6.7161 14.7998V13.5998C6.31006 13.5998 6.03032 13.1925 6.17608 12.8135L5.05607 12.3827ZM5.78879 9.22847C5.89846 9.26503 5.96406 9.28703 6.01271 9.30543C6.05902 9.32295 6.06497 9.32815 6.05789 9.32383L6.68821 8.30263C6.53479 8.20799 6.3458 8.14927 6.16826 8.09007L5.78879 9.22847ZM7.17351 10.2201C7.2407 10.0455 7.31551 9.86231 7.33993 9.68367L6.15099 9.52111C6.15212 9.51287 6.15237 9.52071 6.13646 9.56759C6.11973 9.61687 6.095 9.68151 6.0535 9.78943L7.17351 10.2201ZM6.05789 9.32383C6.12522 9.36535 6.16171 9.44271 6.15099 9.52111L7.33993 9.68367C7.41493 9.13495 7.15948 8.59359 6.68821 8.30263L6.05789 9.32383ZM2.80005 6.9162C2.80005 7.70215 3.30295 8.39991 4.04855 8.64839L4.42803 7.50999C4.17244 7.42479 4.00005 7.1856 4.00005 6.9162H2.80005ZM4.00005 6.9162C4.00005 6.51772 4.36747 6.2207 4.7571 6.3042L5.00853 5.13083C3.87188 4.88727 2.80005 5.75375 2.80005 6.9162H4.00005ZM9.73973 13.9036C10.0565 14.4578 10.6457 14.7998 11.284 14.7998V13.5998C11.0764 13.5998 10.8847 13.4886 10.7817 13.3082L9.73973 13.9036ZM15.2001 6.9162C15.2001 5.75375 14.1282 4.88726 12.9916 5.13083L13.243 6.3042C13.6326 6.2207 14.0001 6.51772 14.0001 6.9162H15.2001Z" fill="#8DC63F"/>
<path opacity="0.5" d="M14.963 11C16.2298 11.6369 17 12.478 17 13.4C17 15.3882 13.4182 17 9 17C4.58172 17 1 15.3882 1 13.4C1 12.478 1.77028 11.6369 3.03705 11" stroke="#8DC63F" stroke-width="2" stroke-linecap="round"/>
</svg>
