<svg width="18" height="18" viewBox="0 0 18 18" fill="none" xmlns="http://www.w3.org/2000/svg">
<g id="Group 59">
<path id="Vector" d="M5.30203 9.4445L4.85285 9.84226C4.96108 9.9645 5.11443 10.0373 5.27754 10.0439C5.44065 10.0507 5.59944 9.99058 5.71728 9.87754L5.30203 9.4445ZM7.01522 8.63314C7.25442 8.40378 7.26241 8.02394 7.03308 7.78474C6.80374 7.54562 6.42393 7.53762 6.18474 7.7669L7.01522 8.63314ZM4.64917 7.80226C4.42947 7.55418 4.05027 7.53114 3.8022 7.75082C3.55412 7.9705 3.53111 8.3497 3.7508 8.59778L4.64917 7.80226ZM11.3453 6.60746C11.5704 6.85072 11.95 6.8655 12.1932 6.64046C12.4365 6.41544 12.4513 6.03583 12.2262 5.79258L11.3453 6.60746ZM9.03494 4.40002C6.6464 4.40002 4.70203 6.32242 4.70203 8.7037H5.90203C5.90203 6.99403 7.30023 5.60002 9.03494 5.60002V4.40002ZM4.70203 8.7037V9.4445H5.90203V8.7037H4.70203ZM5.71728 9.87754L7.01522 8.63314L6.18474 7.7669L4.88679 9.01138L5.71728 9.87754ZM5.75121 9.04666L4.64917 7.80226L3.7508 8.59778L4.85285 9.84226L5.75121 9.04666ZM12.2262 5.79258C11.4345 4.93674 10.2969 4.40002 9.03494 4.40002V5.60002C9.9503 5.60002 10.7723 5.98806 11.3453 6.60746L12.2262 5.79258Z" fill="#8DC63F"/>
<path id="Vector_2" d="M12.695 8.55544L13.1436 8.15696C13.0352 8.03496 12.8818 7.9624 12.7188 7.95592C12.5557 7.94944 12.3971 8.00968 12.2794 8.12272L12.695 8.55544ZM10.9844 9.36648C10.7453 9.596 10.7377 9.97584 10.9673 10.2148C11.1968 10.4538 11.5766 10.4615 11.8156 10.232L10.9844 9.36648ZM13.3514 10.1978C13.5715 10.4454 13.9508 10.4678 14.1985 10.2478C14.4462 10.0277 14.4686 9.64848 14.2485 9.40072L13.3514 10.1978ZM6.63748 11.4038C6.41071 11.1622 6.03101 11.1501 5.78938 11.3769C5.54775 11.6036 5.53571 11.9834 5.76247 12.225L6.63748 11.4038ZM8.94782 13.5999C11.3421 13.5999 13.295 11.6797 13.295 9.29624H12.095C12.095 11.0038 10.6926 12.3999 8.94782 12.3999V13.5999ZM13.295 9.29624V8.55544H12.095V9.29624H13.295ZM12.2794 8.12272L10.9844 9.36648L11.8156 10.232L13.1106 8.98824L12.2794 8.12272ZM12.2465 8.954L13.3514 10.1978L14.2485 9.40072L13.1436 8.15696L12.2465 8.954ZM5.76247 12.225C6.55632 13.0708 7.69078 13.5999 8.94782 13.5999V12.3999C8.03358 12.3999 7.21235 12.0163 6.63748 11.4038L5.76247 12.225Z" fill="#8DC63F"/>
<path id="Vector_3" opacity="0.5" d="M9 17C13.4183 17 17 13.4183 17 9C17 4.58172 13.4183 1 9 1C4.58172 1 1 4.58172 1 9C1 13.4183 4.58172 17 9 17Z" stroke="#8DC63F" stroke-width="2"/>
</g>
</svg>
