<svg width="18" height="18" viewBox="0 0 18 18" fill="none" xmlns="http://www.w3.org/2000/svg">
<g id="Group 58">
<path id="Vector" d="M8.54258 11.4C9.86806 11.4 10.9426 10.3255 10.9426 8.99998C10.9426 7.67449 9.86806 6.59998 8.54258 6.59998C7.21709 6.59998 6.14258 7.67449 6.14258 8.99998C6.14258 10.3255 7.21709 11.4 8.54258 11.4Z" stroke="#8DC63F" stroke-width="2"/>
<path id="Vector_2" opacity="0.5" d="M9.9549 1.12179C9.66082 1 9.2881 1 8.54258 1C7.79706 1 7.42434 1 7.13026 1.12179C6.73823 1.28418 6.42675 1.59566 6.26436 1.9877C6.19023 2.16667 6.16122 2.3748 6.14986 2.67839C6.13318 3.12454 5.90438 3.53751 5.51773 3.76074C5.13109 3.98397 4.65905 3.97563 4.26433 3.76701C3.99574 3.62504 3.80098 3.5461 3.60893 3.52082C3.18821 3.46542 2.76272 3.57943 2.42606 3.83776C2.17357 4.0315 1.98719 4.35432 1.61444 4.99994C1.24169 5.64558 1.05531 5.96838 1.01377 6.28393C0.958384 6.70464 1.07239 7.13013 1.33072 7.4668C1.44862 7.62048 1.61434 7.7496 1.87153 7.9112C2.24962 8.1488 2.49289 8.55352 2.49286 9C2.49284 9.44648 2.24958 9.85112 1.87152 10.0886C1.6143 10.2503 1.44856 10.3795 1.33064 10.5332C1.07231 10.8698 0.958304 11.2953 1.0137 11.716C1.05523 12.0315 1.24161 12.3544 1.61436 13C1.98712 13.6456 2.1735 13.9685 2.42598 14.1622C2.76264 14.4205 3.18813 14.5345 3.60885 14.4791C3.80089 14.4538 3.99563 14.3749 4.26421 14.233C4.65895 14.0243 5.13102 14.016 5.5177 14.2392C5.90437 14.4625 6.13318 14.8754 6.14986 15.3217C6.16122 15.6252 6.19023 15.8334 6.26436 16.0123C6.42675 16.4043 6.73823 16.7158 7.13026 16.8782C7.42434 17 7.79706 17 8.54258 17C9.2881 17 9.66082 17 9.9549 16.8782C10.3469 16.7158 10.6584 16.4043 10.8207 16.0123C10.8949 15.8334 10.9239 15.6252 10.9353 15.3216C10.9519 14.8754 11.1807 14.4625 11.5674 14.2392C11.954 14.0159 12.4261 14.0243 12.8209 14.233C13.0895 14.3749 13.2842 14.4538 13.4762 14.479C13.8969 14.5345 14.3224 14.4205 14.6591 14.1622C14.9115 13.9684 15.0979 13.6456 15.4707 12.9999C15.8435 12.3543 16.0299 12.0315 16.0714 11.716C16.1267 11.2953 16.0127 10.8698 15.7544 10.5331C15.6365 10.3794 15.4707 10.2502 15.2135 10.0886C14.8355 9.85112 14.5923 9.4464 14.5923 8.99992C14.5923 8.55344 14.8355 8.14888 15.2135 7.91136C15.4708 7.74968 15.6366 7.62056 15.7545 7.4668C16.0128 7.13018 16.1268 6.7047 16.0715 6.28398C16.0299 5.96844 15.8435 5.64562 15.4707 5C15.098 4.35438 14.9116 4.03156 14.6591 3.83782C14.3225 3.57949 13.897 3.46548 13.4763 3.52087C13.2843 3.54615 13.0895 3.62509 12.8209 3.76704C12.4262 3.97567 11.9541 3.98402 11.5675 3.76077C11.1807 3.53753 10.9519 3.12453 10.9353 2.67835C10.9239 2.37478 10.8949 2.16666 10.8207 1.9877C10.6584 1.59566 10.3469 1.28418 9.9549 1.12179Z" stroke="#8DC63F" stroke-width="2"/>
</g>
</svg>
