<svg width="53" height="64" viewBox="0 0 53 64" fill="none" xmlns="http://www.w3.org/2000/svg">
<g id="Vector">
<path d="M38.4134 4.27563H30.6996C30.2804 3.03438 29.1056 2.13788 27.7246 2.13788H25.5312C24.541 0.806375 22.9727 0 21.3112 0C19.6497 0 18.0814 0.806375 17.0913 2.13775H14.8979C13.5169 2.13775 12.3421 3.03425 11.9229 4.2755H4.20875C1.888 4.2755 0 6.16362 0 8.48425V53.3777C0 55.6985 1.88812 57.5865 4.20875 57.5865H25.5866C26.14 57.5865 26.5887 57.1379 26.5887 56.5844C26.5887 56.031 26.1401 55.5822 25.5866 55.5822H4.20875C2.99312 55.5822 2.00413 54.5933 2.00413 53.3776V8.48438C2.00413 7.26875 2.99312 6.27975 4.20875 6.27975H11.758V9.55325C11.758 10.1066 12.2066 10.5554 12.7601 10.5554H29.8624C30.4157 10.5554 30.8645 10.1067 30.8645 9.55325V6.27975H38.4134C39.629 6.27975 40.618 7.26875 40.618 8.48438V37.3445C40.618 37.8979 41.0666 38.3466 41.6201 38.3466C42.1735 38.3466 42.6222 37.898 42.6222 37.3445V8.48438C42.6221 6.16362 40.7341 4.27563 38.4134 4.27563ZM13.7622 8.55112V5.2815C13.7622 5.28012 13.7624 5.279 13.7624 5.27763C13.7624 5.277 13.7622 5.27625 13.7622 5.27575C13.7634 4.65025 14.2723 4.14187 14.8979 4.14187H17.6286C17.9854 4.14187 18.3153 3.95225 18.4948 3.64375C19.0924 2.61712 20.1453 2.00413 21.3112 2.00413C22.4772 2.00413 23.5301 2.61712 24.1278 3.64375C24.3071 3.95212 24.6371 4.14187 24.9939 4.14187H27.7246C28.3495 4.14187 28.858 4.64925 28.8602 5.27375C28.8602 5.27513 28.8601 5.27625 28.8601 5.27763C28.8601 5.28025 28.8605 5.28275 28.8605 5.28538V8.55112H13.7622Z" fill="#F7941E"/>
<path d="M25.5864 51.3069H6.27975V10.5554H8.48475C9.03813 10.5554 9.48688 10.1067 9.48688 9.55325C9.48688 8.99975 9.03825 8.55112 8.48475 8.55112H5.27775C4.72438 8.55112 4.27563 8.99975 4.27563 9.55325V52.309C4.27563 52.8624 4.72425 53.3111 5.27775 53.3111H25.5865C26.1399 53.3111 26.5886 52.8625 26.5886 52.309C26.5885 51.7555 26.1399 51.3069 25.5864 51.3069Z" fill="#F7941E"/>
<path d="M37.3445 8.55112H34.1379C33.5845 8.55112 33.1357 8.99975 33.1357 9.55325C33.1357 10.1067 33.5844 10.5554 34.1379 10.5554H36.3425V37.3442C36.3425 37.8976 36.7911 38.3464 37.3446 38.3464C37.8981 38.3464 38.3467 37.8978 38.3467 37.3442V9.55325C38.3466 8.99988 37.8979 8.55112 37.3445 8.55112Z" fill="#F7941E"/>
<path d="M40.5511 40.618C34.1046 40.618 28.8601 45.8625 28.8601 52.309C28.8601 58.7555 34.1047 64 40.5511 64C46.9975 64 52.2421 58.7555 52.2421 52.309C52.2421 45.8625 46.9976 40.618 40.5511 40.618ZM40.5511 61.9959C35.2098 61.9959 30.8643 57.6504 30.8643 52.309C30.8643 46.9676 35.2098 42.6221 40.5511 42.6221C45.8925 42.6221 50.238 46.9676 50.238 52.309C50.238 57.6504 45.8926 61.9959 40.5511 61.9959Z" fill="#F7941E"/>
<path d="M21.322 4.27563H21.3112C20.7579 4.27563 20.3145 4.72425 20.3145 5.27775C20.3145 5.83113 20.7684 6.27987 21.3219 6.27987C21.8752 6.27987 22.324 5.83125 22.324 5.27775C22.3241 4.72425 21.8755 4.27563 21.322 4.27563Z" fill="#F7941E"/>
<path d="M46.6043 48.3937C46.213 48.0024 45.5784 48.0024 45.1871 48.3937L38.4134 55.1675L34.8464 51.6005C34.455 51.2091 33.8205 51.2091 33.4292 51.6005C33.0379 51.9919 33.0379 52.6264 33.4292 53.0176L37.7049 57.2933C37.9005 57.4889 38.157 57.5868 38.4134 57.5868C38.6698 57.5868 38.9263 57.489 39.1219 57.2933L46.6041 49.811C46.9955 49.4195 46.9955 48.785 46.6043 48.3937Z" fill="#F7941E"/>
<path d="M16.9688 22.1636V18.1214C18.3806 18.3631 19.2401 19.0824 19.2401 19.6075C19.2401 20.1609 19.6887 20.6096 20.2422 20.6096C20.7957 20.6096 21.2444 20.161 21.2444 19.6075C21.2444 17.8361 19.4329 16.4049 16.9688 16.096V15.9665C16.9688 15.4131 16.5201 14.9644 15.9666 14.9644C15.4131 14.9644 14.9645 15.413 14.9645 15.9665V16.096C12.5004 16.4048 10.6889 17.836 10.6889 19.6075C10.6889 22.1167 13.0425 23.081 14.9645 23.6651V27.7074C13.5526 27.4656 12.6931 26.7464 12.6931 26.2212C12.6931 25.6679 12.2445 25.2191 11.691 25.2191C11.1375 25.2191 10.6889 25.6677 10.6889 26.2212C10.6889 27.9926 12.5004 29.4239 14.9645 29.7327V29.8622C14.9645 30.4156 15.4131 30.8644 15.9666 30.8644C16.5201 30.8644 16.9688 30.4158 16.9688 29.8622V29.7327C19.4329 29.424 21.2444 27.9928 21.2444 26.2212C21.2442 23.7121 18.8908 22.7477 16.9688 22.1636ZM14.9645 21.5514C13.274 20.9622 12.6931 20.431 12.6931 19.6075C12.6931 19.2906 12.9726 18.9406 13.4599 18.6475C13.8716 18.3997 14.394 18.2206 14.9645 18.1227V21.5514ZM18.4734 27.1812C18.0616 27.429 17.5393 27.6081 16.9688 27.706V24.2774C18.6593 24.8665 19.2401 25.3977 19.2401 26.2212C19.2401 26.5382 18.9606 26.8881 18.4734 27.1812Z" fill="#F7941E"/>
<path d="M30.9311 17.1022H25.5866C25.0332 17.1022 24.5845 17.5509 24.5845 18.1044C24.5845 18.6579 25.0331 19.1065 25.5866 19.1065H30.9311C31.4845 19.1065 31.9332 18.6579 31.9332 18.1044C31.9332 17.5509 31.4846 17.1022 30.9311 17.1022Z" fill="#F7941E"/>
<path d="M28.7934 21.3779H25.5868C25.0334 21.3779 24.5846 21.8265 24.5846 22.38C24.5846 22.9335 25.0333 23.3821 25.5868 23.3821H28.7934C29.3467 23.3821 29.7955 22.9335 29.7955 22.38C29.7955 21.8265 29.3467 21.3779 28.7934 21.3779Z" fill="#F7941E"/>
<path d="M30.9311 25.6535H25.5866C25.0332 25.6535 24.5845 26.1021 24.5845 26.6556C24.5845 27.2091 25.0331 27.6577 25.5866 27.6577H30.9311C31.4845 27.6577 31.9332 27.2091 31.9332 26.6556C31.9332 26.1021 31.4846 25.6535 30.9311 25.6535Z" fill="#F7941E"/>
<path d="M13.8289 35.2735H11.6911C11.1378 35.2735 10.689 35.7221 10.689 36.2756C10.689 36.8291 11.1376 37.2777 11.6911 37.2777H13.8289C14.3823 37.2777 14.831 36.8291 14.831 36.2756C14.831 35.7221 14.3823 35.2735 13.8289 35.2735Z" fill="#F7941E"/>
<path d="M13.8289 43.8246H11.6911C11.1378 43.8246 10.689 44.2733 10.689 44.8268C10.689 45.3803 11.1376 45.8289 11.6911 45.8289H13.8289C14.3823 45.8289 14.831 45.3803 14.831 44.8268C14.831 44.2733 14.3823 43.8246 13.8289 43.8246Z" fill="#F7941E"/>
<path d="M13.8289 39.5491H11.6911C11.1378 39.5491 10.689 39.9977 10.689 40.5513C10.689 41.1047 11.1376 41.5534 11.6911 41.5534H13.8289C14.3823 41.5534 14.831 41.1047 14.831 40.5513C14.831 39.9977 14.3823 39.5491 13.8289 39.5491Z" fill="#F7941E"/>
<path d="M30.9311 35.2735H18.1044C17.551 35.2735 17.1023 35.7221 17.1023 36.2756C17.1023 36.8291 17.5509 37.2777 18.1044 37.2777H30.9311C31.4845 37.2777 31.9333 36.8291 31.9333 36.2756C31.9333 35.7221 31.4846 35.2735 30.9311 35.2735Z" fill="#F7941E"/>
<path d="M27.7245 43.8246H18.1045C17.5511 43.8246 17.1024 44.2733 17.1024 44.8268C17.1024 45.3803 17.551 45.8289 18.1045 45.8289H27.7245C28.2779 45.8289 28.7266 45.3803 28.7266 44.8268C28.7266 44.2733 28.2779 43.8246 27.7245 43.8246Z" fill="#F7941E"/>
<path d="M30.9311 39.5491H18.1044C17.551 39.5491 17.1023 39.9977 17.1023 40.5513C17.1023 41.1047 17.5509 41.5534 18.1044 41.5534H30.9311C31.4845 41.5534 31.9333 41.1047 31.9333 40.5513C31.9333 39.9977 31.4846 39.5491 30.9311 39.5491Z" fill="#F7941E"/>
</g>
</svg>
