<svg width="64" height="64" viewBox="0 0 64 64" fill="none" xmlns="http://www.w3.org/2000/svg">
<g id="Vector">
<path d="M31.9999 9.95248C19.8428 9.95248 9.95248 19.8428 9.95248 31.9999C9.95248 44.157 19.8428 54.0474 31.9999 54.0474C44.157 54.0474 54.0474 44.157 54.0474 31.9999C54.0474 19.8428 44.157 9.95248 31.9999 9.95248ZM31.9999 51.974C20.9862 51.974 12.0259 43.0138 12.0259 31.9999C12.0259 20.9861 20.9862 12.0259 31.9999 12.0259C43.0137 12.0259 51.974 20.9862 51.974 31.9999C51.974 43.0137 43.0137 51.974 31.9999 51.974Z" fill="#F7941E"/>
<path d="M33.0367 31.2084V23.1258C36.4239 23.3981 38.7041 24.974 38.7041 26.4017C38.7041 26.9742 39.1682 27.4384 39.7408 27.4384C40.3133 27.4384 40.7775 26.9743 40.7775 26.4017C40.7775 23.5947 37.4524 21.3537 33.0367 21.0477V19.8358C33.0367 19.2633 32.5726 18.7991 31.9999 18.7991C31.4274 18.7991 30.9632 19.2632 30.9632 19.8358V21.0477C26.5474 21.3537 23.2223 23.5947 23.2223 26.4017C23.2223 30.1622 26.7979 31.6296 30.9632 32.7914V40.8741C27.5759 40.6017 25.2958 39.0259 25.2958 37.5982C25.2958 37.0257 24.8317 36.5614 24.2591 36.5614C23.6866 36.5614 23.2223 37.0256 23.2223 37.5982C23.2223 40.4052 26.5474 42.6462 30.9632 42.9522V44.164C30.9632 44.7365 31.4273 45.2008 31.9999 45.2008C32.5724 45.2008 33.0367 44.7367 33.0367 44.164V42.9522C37.4524 42.6462 40.7775 40.4052 40.7775 37.5982C40.7774 33.8377 37.2019 32.3704 33.0367 31.2084ZM30.9632 30.6321C26.7584 29.3897 25.2958 28.2613 25.2958 26.4017C25.2958 24.974 27.5759 23.3981 30.9632 23.1258V30.6321ZM33.0367 40.8741V33.3678C37.2414 34.6102 38.7041 35.7386 38.7041 37.5982C38.7041 39.0259 36.4239 40.6018 33.0367 40.8741Z" fill="#F7941E"/>
<path d="M54.6273 9.37261C48.5834 3.32849 40.5474 0 31.9999 0C22.7981 0 14.2062 3.87187 8.13011 10.6875L8.69798 6.71249C8.77886 6.14561 8.38498 5.62061 7.81824 5.53961C7.25124 5.45924 6.72636 5.85261 6.64536 6.41924L5.53949 14.1601C5.48874 14.5157 5.62574 14.8723 5.90149 15.1027C6.09074 15.2606 6.32649 15.3435 6.56599 15.3435C6.67574 15.3435 6.78649 15.3261 6.89374 15.2902L13.5287 13.0786C14.072 12.8975 14.3655 12.3105 14.1845 11.7672C14.0032 11.224 13.4163 10.9302 12.8731 11.1115L9.53961 12.2227C15.2296 5.75261 23.3252 2.07337 31.9999 2.07337C39.9935 2.07337 47.5088 5.18624 53.1613 10.8386C58.8136 16.4911 61.9265 24.0062 61.9265 31.9999C61.9265 39.9937 58.8136 47.5088 53.1613 53.1613C47.5088 58.8136 39.9937 61.9265 31.9999 61.9265C31.4274 61.9265 30.9632 62.3906 30.9632 62.9633C30.9632 63.5358 31.4273 64 31.9999 64C40.5474 64 48.5834 60.6715 54.6273 54.6274C60.6711 48.5833 63.9999 40.5474 63.9999 31.9999C63.9999 23.4525 60.6714 15.4165 54.6273 9.37261Z" fill="#F7941E"/>
<path d="M27.7236 61.6233C27.3711 61.5728 27.0161 61.5156 26.6685 61.4531C26.1047 61.3515 25.566 61.7264 25.4646 62.29C25.3632 62.8535 25.7378 63.3925 26.3014 63.4939C26.6734 63.5608 27.0531 63.622 27.4299 63.6759C27.4797 63.683 27.5292 63.6865 27.5781 63.6865C28.0856 63.6865 28.5291 63.3134 28.6031 62.7966C28.6839 62.2296 28.2903 61.7045 27.7236 61.6233Z" fill="#F7941E"/>
<path d="M22.6567 60.4394C22.0041 60.2251 21.3503 59.9849 20.7135 59.7254C20.1835 59.5096 19.5783 59.7639 19.3621 60.2944C19.1461 60.8246 19.4008 61.4296 19.9311 61.6458C20.6125 61.9234 21.3118 62.1803 22.0101 62.4095C22.1175 62.4448 22.2265 62.4615 22.3337 62.4615C22.7695 62.4615 23.1751 62.1845 23.3186 61.7479C23.497 61.2036 23.2007 60.618 22.6567 60.4394Z" fill="#F7941E"/>
<path d="M2.76149 38.4112C2.61512 37.7402 2.49037 37.0552 2.39075 36.3752C2.30762 35.8086 1.78162 35.4172 1.21487 35.4997C0.648249 35.5827 0.25625 36.1092 0.339374 36.6756C0.445999 37.4028 0.579249 38.1354 0.735874 38.8531C0.841748 39.3381 1.271 39.669 1.74775 39.669C1.821 39.669 1.89537 39.6613 1.96975 39.6451C2.529 39.5229 2.88362 38.9706 2.76149 38.4112Z" fill="#F7941E"/>
<path d="M2.41237 22.7858C1.86075 22.6343 1.28987 22.9592 1.13837 23.5115C0.943873 24.2198 0.771874 24.9447 0.627124 25.6657C0.514374 26.2271 0.877998 26.7736 1.43937 26.8863C1.50837 26.9002 1.57687 26.9068 1.64462 26.9068C2.12825 26.9068 2.56112 26.5664 2.65987 26.0741C2.79524 25.4001 2.95612 24.7223 3.13787 24.06C3.28924 23.5078 2.96462 22.9373 2.41237 22.7858Z" fill="#F7941E"/>
<path d="M4.70724 44.2947C4.42474 43.6687 4.16074 43.0247 3.92249 42.3807C3.72387 41.8437 3.12737 41.5693 2.5905 41.768C2.0535 41.9667 1.77925 42.563 1.97787 43.1C2.23262 43.7888 2.515 44.4777 2.81724 45.1475C2.99024 45.5312 3.36762 45.758 3.76287 45.758C3.90537 45.758 4.05024 45.7284 4.18862 45.666C4.71062 45.4305 4.94262 44.8165 4.70724 44.2947Z" fill="#F7941E"/>
<path d="M1.15512 29.0811C0.582874 29.0463 0.0923748 29.4822 0.0581249 30.0538C0.019625 30.6977 0 31.3524 0 32.0008C0 32.0892 0.000374999 32.1774 0.001125 32.2657C0.00562499 32.8354 0.468874 33.2942 1.03775 33.2942C1.04037 33.2942 1.04325 33.2942 1.046 33.2942C1.6185 33.2897 2.079 32.8218 2.07462 32.2493C2.074 32.1659 2.0735 32.0826 2.0735 31.9999C2.0735 31.3937 2.09187 30.7808 2.128 30.1781C2.16237 29.6066 1.72675 29.1154 1.15512 29.0811Z" fill="#F7941E"/>
<path d="M16.9993 57.9014C16.4056 57.5568 15.8156 57.1865 15.2456 56.8008C14.7713 56.4799 14.127 56.604 13.806 57.0781C13.485 57.5524 13.6092 58.1968 14.0833 58.5178C14.6926 58.9303 15.3236 59.3261 15.9585 59.6946C16.1222 59.7898 16.3011 59.8349 16.478 59.8349C16.8355 59.8349 17.1832 59.6498 17.3756 59.3183C17.6631 58.8234 17.4946 58.1889 16.9993 57.9014Z" fill="#F7941E"/>
<path d="M7.82911 49.6495C7.42349 49.0949 7.03211 48.5192 6.66549 47.9377C6.36024 47.4534 5.72011 47.308 5.23562 47.6137C4.75124 47.919 4.60624 48.5592 4.91162 49.0435C5.30349 49.6652 5.72199 50.2808 6.15561 50.8737C6.35874 51.1513 6.67386 51.2983 6.99311 51.2983C7.20561 51.2983 7.41986 51.2332 7.60436 51.0983C8.06661 50.7602 8.16724 50.1117 7.82911 49.6495Z" fill="#F7941E"/>
<path d="M11.9867 54.2505C11.4759 53.7908 10.9744 53.3072 10.4962 52.8134C10.098 52.402 9.44186 52.3914 9.03036 52.7898C8.61898 53.188 8.60836 53.8443 9.00673 54.2556C9.51773 54.7835 10.0537 55.3004 10.5997 55.7918C10.798 55.9701 11.046 56.0579 11.293 56.0579C11.5766 56.0579 11.8591 55.9421 12.0639 55.7148C12.4469 55.289 12.4122 54.6335 11.9867 54.2505Z" fill="#F7941E"/>
<path d="M4.46149 17.7932C3.94412 17.5476 3.32574 17.7678 3.08012 18.2847C2.91737 18.6272 2.75874 18.9772 2.6085 19.3252C2.3815 19.8507 2.62362 20.461 3.14924 20.688C3.28324 20.7457 3.42262 20.7732 3.55974 20.7732C3.96087 20.7732 4.34299 20.539 4.51199 20.1473C4.65249 19.8221 4.80074 19.4947 4.95299 19.1745C5.19862 18.6572 4.97862 18.039 4.46149 17.7932Z" fill="#F7941E"/>
</g>
</svg>
