<svg width="38" height="48" viewBox="0 0 38 48" fill="none" xmlns="http://www.w3.org/2000/svg">
<g id="Vector">
<path d="M36.8319 10.1051H33.9385V8.9761C33.9385 8.448 33.5103 8.01992 32.9823 8.01992H23.1445C22.6165 8.01992 22.1883 8.448 22.1883 8.9761V10.1051H11.6672C5.23391 10.1051 0 15.3391 0 21.7724V32.1805C0 32.7086 0.428175 33.1366 0.956175 33.1366H11.1147C11.6427 33.1366 12.0709 32.7086 12.0709 32.1805V24.2319C12.0709 23.0983 12.9931 22.1761 14.1266 22.1761H22.1883V23.3051C22.1883 23.8332 22.6165 24.2613 23.1445 24.2613H32.9823C33.5103 24.2613 33.9385 23.8332 33.9385 23.3051V22.1761H36.8319C37.3599 22.1761 37.788 21.748 37.788 21.2199V11.0612C37.788 10.5331 37.3599 10.1051 36.8319 10.1051ZM22.1883 20.2635H14.1267V20.2636C11.9387 20.2636 10.1586 22.0437 10.1586 24.2317V31.2241H1.91235V21.7722C1.91235 16.3933 6.28838 12.0173 11.6672 12.0173H22.1883V20.2635ZM32.0261 22.3488H24.1007V9.93217H32.0261V22.3488ZM35.8757 20.2636H33.9385V12.0174H35.8757V20.2636Z" fill="#FFDE17"/>
<path d="M15.0678 15.3858H17.2064C17.7344 15.3858 18.1625 14.9577 18.1625 14.4296C18.1625 13.9015 17.7344 13.4735 17.2064 13.4735H15.0678C14.5398 13.4735 14.1116 13.9015 14.1116 14.4296C14.1116 14.9577 14.5398 15.3858 15.0678 15.3858Z" fill="#FFDE17"/>
<path d="M3.36841 21.9952C3.36841 22.5233 3.79659 22.9514 4.32459 22.9514C4.85259 22.9514 5.28076 22.5233 5.28076 21.9952C5.28076 18.3508 8.24567 15.3858 11.89 15.3858C12.418 15.3858 12.8462 14.9577 12.8462 14.4296C12.8462 13.9015 12.418 13.4735 11.89 13.4735C7.1912 13.4735 3.36841 17.2963 3.36841 21.9952Z" fill="#FFDE17"/>
<path d="M21.6475 1.91235H27.2142V5.23343C27.2142 5.76153 27.6424 6.18961 28.1704 6.18961C28.6984 6.18961 29.1265 5.76153 29.1265 5.23343V1.91235H34.6933C35.2213 1.91235 35.6495 1.48427 35.6495 0.956175C35.6495 0.42808 35.2213 0 34.6933 0H21.6475C21.1195 0 20.6913 0.42808 20.6913 0.956175C20.6913 1.48427 21.1194 1.91235 21.6475 1.91235Z" fill="#FFDE17"/>
<path d="M5.50088 36.8915C5.17214 36.8915 4.86636 37.0605 4.69138 37.3387C4.17829 38.1549 1.61861 42.3174 1.61861 44.1177C1.61861 46.2584 3.36019 48 5.50088 48C7.64156 48 9.38314 46.2584 9.38314 44.1177C9.38314 42.3173 6.82346 38.1548 6.31037 37.3387C6.1353 37.0604 5.82961 36.8915 5.50088 36.8915ZM5.50088 46.0876C4.41476 46.0876 3.53096 45.2039 3.53096 44.1177C3.53096 43.4578 4.45014 41.5359 5.50088 39.7056C6.55152 41.5359 7.47079 43.4578 7.47079 44.1177C7.47069 45.2039 6.587 46.0876 5.50088 46.0876Z" fill="#FFDE17"/>
</g>
</svg>
