<svg width="32" height="48" viewBox="0 0 32 48" fill="none" xmlns="http://www.w3.org/2000/svg">
<g id="Vector">
<path d="M16.4732 0.328733C16.2915 0.119904 16.0285 0 15.7516 0C15.4748 0 15.2118 0.119904 15.0301 0.328733C14.4164 1.03439 0 17.708 0 26.14C0 34.8255 7.06613 41.8917 15.7516 41.8917C24.4372 41.8917 31.5033 34.8255 31.5033 26.14C31.5033 17.7081 17.0869 1.03439 16.4732 0.328733ZM15.7516 39.9792C8.1207 39.9792 1.91235 33.771 1.91235 26.1399C1.91235 22.9986 4.4073 17.7792 9.12756 11.046C11.7991 7.23519 14.4989 3.92921 15.7517 2.43375C17.0026 3.92682 19.6963 7.22515 22.3665 11.0328C27.0927 17.7723 29.5909 22.9963 29.5909 26.1399C29.5909 33.7709 23.3826 39.9792 15.7516 39.9792Z" fill="#FFDE17"/>
<path d="M15.7516 42.8517C15.2236 42.8517 14.7955 43.2798 14.7955 43.8078V47.0438C14.7955 47.5718 15.2236 48 15.7516 48C16.2796 48 16.7078 47.5718 16.7078 47.0438V43.8078C16.7078 43.2798 16.2796 42.8517 15.7516 42.8517Z" fill="#FFDE17"/>
<path d="M27.0673 29.3851C26.8889 29.1264 26.5947 28.9721 26.2805 28.9721H5.22263C4.90843 28.9721 4.61421 29.1264 4.43579 29.3851C4.25727 29.6437 4.21721 29.9735 4.32861 30.2673C5.19834 32.5606 6.72277 34.5211 8.73686 35.9368C10.7981 37.3856 13.2237 38.1514 15.7516 38.1514C18.2796 38.1514 20.7052 37.3856 22.7662 35.9368C24.7804 34.5211 26.3048 32.5606 27.1745 30.2673C27.2859 29.9734 27.2458 29.6436 27.0673 29.3851ZM15.7516 36.239C11.9774 36.239 8.50422 34.1359 6.71512 30.8845H24.7882C22.9991 34.1359 19.5259 36.239 15.7516 36.239Z" fill="#FFDE17"/>
<path d="M4.5295 27.2506C5.05731 27.2345 5.4721 26.7935 5.45584 26.2656C5.4524 26.1566 5.4501 26.0473 5.4501 25.9376C5.4501 24.4482 6.25472 22.2201 7.77705 19.4941C8.03465 19.0331 7.86951 18.4506 7.40854 18.1931C6.94728 17.9354 6.36497 18.1006 6.10757 18.5617C4.37842 21.6579 3.53785 24.0707 3.53785 25.9376C3.53785 26.067 3.54053 26.1958 3.54445 26.3242C3.56032 26.842 3.98505 27.251 4.49957 27.251C4.50951 27.251 4.51946 27.2508 4.5295 27.2506Z" fill="#FFDE17"/>
<path d="M8.52841 16.3822C8.69106 16.4903 8.87464 16.5419 9.05632 16.5419C9.36583 16.5419 9.6697 16.3918 9.85377 16.1144C10.2006 15.5921 10.5698 15.0523 10.9509 14.51C11.2545 14.0779 11.1504 13.4815 10.7183 13.1778C10.2862 12.8744 9.68998 12.9784 9.3862 13.4104C8.99551 13.9665 8.61667 14.5205 8.26059 15.0569C7.96857 15.4967 8.08838 16.0901 8.52841 16.3822Z" fill="#FFDE17"/>
</g>
</svg>
