<svg width="46" height="54" viewBox="0 0 46 54" fill="none" xmlns="http://www.w3.org/2000/svg">
<g id="Vector">
<path d="M44.8566 26.7779H43.6585C43.0657 26.7779 42.5851 27.2585 42.5851 27.8514C42.5851 28.4442 43.0657 28.9248 43.6585 28.9248H44.8566C45.4493 28.9248 45.93 28.4442 45.93 27.8514C45.93 27.2585 45.4494 26.7779 44.8566 26.7779Z" fill="#FFDE17"/>
<path d="M40.0644 26.7778H37.2714V11.1632L38.9582 12.2064C39.1342 12.3152 39.3291 12.3671 39.5218 12.3671C39.8815 12.3671 40.2327 12.1865 40.4358 11.8582C40.7477 11.354 40.5917 10.6925 40.0875 10.3806L23.5516 0.153207C23.1815 -0.0510689 22.7485 -0.0510689 22.3785 0.153207L5.84262 10.3805C5.33843 10.6923 5.18246 11.3539 5.49429 11.8581C5.80613 12.3623 6.4678 12.5184 6.97188 12.2064L8.65868 11.1632V26.7778H1.07344C0.480686 26.7778 0 27.2584 0 27.8513C0 28.4441 0.480686 28.9247 1.07344 28.9247H12.9608V38.3011L11.8808 37.2212C11.4615 36.802 10.7821 36.802 10.3627 37.2212C9.94348 37.6404 9.94348 38.3201 10.3627 38.7393L13.1434 41.5199C13.3362 41.8061 13.6633 41.9944 14.0343 41.9944C14.3342 41.9944 14.6051 41.871 14.7999 41.6727C14.8024 41.6703 14.8051 41.6683 14.8075 41.6659L17.734 38.7394C18.1531 38.3202 18.1531 37.6405 17.734 37.2212C17.3147 36.802 16.6352 36.802 16.2158 37.2212L15.1077 38.3293V28.9247H30.8224V35.0395C30.8224 35.6323 31.3031 36.1129 31.8959 36.1129C32.4886 36.1129 32.9693 35.6323 32.9693 35.0395V28.9247H40.0644C40.6572 28.9247 41.1378 28.4441 41.1378 27.8513C41.1378 27.2584 40.6572 26.7778 40.0644 26.7778ZM25.8126 26.7779H20.1177V16.8324H25.8126V26.7779ZM35.1244 26.7778H31.8959V26.7779H27.9593V15.759C27.9593 15.1661 27.4787 14.6855 26.8859 14.6855H19.0441C18.4513 14.6855 17.9707 15.1661 17.9707 15.759V26.7779H10.8055V9.83531L22.9649 2.31479L35.1244 9.83531V26.7778Z" fill="#FFDE17"/>
<path d="M14.234 46.2337C14.8223 46.1604 15.2398 45.6241 15.1665 45.0358C15.1276 44.7223 15.1077 44.4015 15.1077 44.0821C15.1077 43.4893 14.627 43.0087 14.0343 43.0087C13.4415 43.0087 12.9608 43.4893 12.9608 44.0821C12.9608 44.4899 12.9861 44.9001 13.0362 45.3012C13.1038 45.8445 13.5662 46.2421 14.0999 46.2421C14.1442 46.242 14.189 46.2393 14.234 46.2337Z" fill="#FFDE17"/>
<path d="M32.6691 37.3301C32.2498 36.9109 31.5703 36.911 31.1509 37.3301L28.2244 40.2566C27.8052 40.6758 27.8052 41.3555 28.2244 41.7747C28.6437 42.1939 29.3231 42.1939 29.7425 41.7747L30.8224 40.6949V44.0821C30.8224 48.2931 27.3965 51.719 23.1855 51.719H22.7445C19.8854 51.719 17.2882 50.1423 15.9661 47.6042C15.6922 47.0784 15.0444 46.874 14.5183 47.148C13.9925 47.4218 13.7882 48.07 14.0621 48.5958C15.7551 51.8465 19.0821 53.8659 22.7445 53.8659H23.1855C28.5803 53.8659 32.9693 49.4769 32.9693 44.0821V40.6665L34.0775 41.7747C34.2872 41.9844 34.5619 42.0892 34.8365 42.0892C35.1112 42.0892 35.3859 41.9843 35.5956 41.7747C36.0148 41.3556 36.0148 40.6759 35.5956 40.2567L32.6691 37.3301Z" fill="#FFDE17"/>
</g>
</svg>
