<svg width="53" height="48" viewBox="0 0 53 48" fill="none" xmlns="http://www.w3.org/2000/svg">
<g id="Vector">
<path d="M51.6801 37.7302L43.9491 25.3603L45.2451 19.7472C45.4668 18.7872 45.0917 17.7971 44.2896 17.225C43.4874 16.6529 42.4292 16.6205 41.5936 17.1428L39.5942 18.3925L29.1516 1.68452C28.4923 0.629672 27.3562 0 26.1123 0C24.8684 0 23.7323 0.629672 23.073 1.68452L14.5739 15.2831L8.96052 16.5778C8.00039 16.7992 7.27487 17.5702 7.11205 18.542C6.94923 19.5137 7.38393 20.4791 8.21953 21.0013L10.2189 22.251L0.544574 37.7301C-0.145618 38.8344 -0.182278 40.2281 0.449033 41.3671C1.08045 42.5062 2.28163 43.2137 3.58388 43.2137H20.1707L24.2437 47.2877C24.7091 47.7533 25.3272 48 25.9577 48C26.2707 48 26.5869 47.9392 26.8889 47.8141C27.7992 47.4371 28.3874 46.5568 28.3874 45.5716V43.2138H48.6408C49.9431 43.2138 51.1443 42.5062 51.7757 41.3672C52.407 40.2281 52.3704 38.8344 51.6801 37.7302ZM17.3866 14.6468L24.8098 2.76988C25.0924 2.31778 25.5793 2.04795 26.1124 2.04795C26.6455 2.04795 27.1324 2.31778 27.415 2.76988L38.4002 20.3462C38.5442 20.5765 38.7736 20.7403 39.0383 20.8013C39.3028 20.8624 39.5809 20.8158 39.8112 20.6719L42.679 18.8795C42.866 18.7627 43.0231 18.8374 43.1001 18.8923C43.1772 18.9473 43.299 19.0715 43.2494 19.2864L41.3592 27.4731C41.3122 27.6768 41.1081 27.8042 40.9045 27.7573L32.7173 25.869C32.5024 25.8194 32.4442 25.6555 32.4285 25.5621C32.4128 25.4688 32.4146 25.2947 32.6014 25.1779L35.4692 23.3855C35.9489 23.0858 36.0946 22.454 35.7949 21.9744L26.9806 7.87157C26.7935 7.57214 26.4653 7.39028 26.1122 7.39028C25.7591 7.39028 25.431 7.57214 25.2438 7.87157L19.9917 16.2749L19.9916 16.2751C19.6229 15.1853 18.5279 14.5008 17.3865 14.6469L17.3866 14.6468ZM26.8889 31.4452C25.9787 31.0682 24.9403 31.2748 24.2437 31.9717L20.1707 36.0456H10.0504L16.2975 26.0501L18.2971 27.2999C19.1327 27.8221 20.1909 27.7899 20.993 27.2176C21.7951 26.6455 22.1702 25.6555 21.9485 24.6955L20.6525 19.0824L26.1124 10.3466L33.5156 22.1917L31.5162 23.4414C30.6806 23.9637 30.2459 24.9289 30.4087 25.9008C30.5715 26.8725 31.297 27.6435 32.2571 27.8649L37.8705 29.1596L42.1743 36.0458H28.3874V33.688C28.3874 32.7024 27.7992 31.8222 26.8889 31.4452ZM18.1406 41.1658H3.58388C3.02578 41.1658 2.51091 40.8625 2.24036 40.3743C1.96981 39.886 1.98548 39.2888 2.28132 38.8155L12.4985 22.468C12.7983 21.9885 12.6524 21.3566 12.1729 21.0569L9.3051 19.2646C9.11811 19.1477 9.11647 18.9736 9.13214 18.8803C9.14781 18.7869 9.20608 18.623 9.42092 18.5734L17.6081 16.6851C17.6367 16.6786 17.6652 16.6754 17.6934 16.6754C17.8659 16.6754 18.0223 16.7942 18.0628 16.9694L19.953 25.1562C20.0026 25.371 19.8808 25.4952 19.8037 25.5502C19.7267 25.6052 19.5693 25.68 19.3825 25.563L16.5147 23.7706C16.2843 23.6266 16.0061 23.5801 15.7417 23.6411C15.4771 23.7023 15.2475 23.8659 15.1036 24.0962L7.33447 36.5269C7.13714 36.8426 7.12669 37.2405 7.30713 37.566C7.48756 37.8916 7.8305 38.0936 8.20284 38.0936H18.1406C17.4117 38.9839 17.4118 40.2754 18.1406 41.1658ZM49.9845 40.3743C49.7138 40.8624 49.199 41.1658 48.6409 41.1658H27.3634C26.7978 41.1658 26.3393 41.6242 26.3393 42.1898V45.5716C26.3393 45.7921 26.1927 45.8858 26.1052 45.9219C26.0178 45.9581 25.8479 45.9957 25.6919 45.8397L19.7515 39.8978C19.6037 39.7499 19.6037 39.5095 19.7515 39.3616L25.692 33.4196C25.8479 33.2639 26.0179 33.3013 26.1052 33.3374C26.1927 33.3737 26.3393 33.4673 26.3393 33.6877V37.0696C26.3393 37.6351 26.7978 38.0936 27.3634 38.0936H44.0219C44.3941 38.0936 44.737 37.8916 44.9176 37.566C45.0981 37.2405 45.0876 36.8425 44.8902 36.5269L40.6833 29.7958L40.6827 29.795C40.7856 29.8082 40.8882 29.8154 40.9898 29.8154C42.016 29.8154 42.9524 29.1585 43.2877 28.1663L43.2884 28.1676L49.9433 38.8156C50.2392 39.2888 50.2549 39.8861 49.9845 40.3743Z" fill="#FFDE17"/>
<path d="M17.0591 20.4439C16.5086 20.5735 16.1674 21.1247 16.2968 21.6753L16.5137 22.5969C16.6247 23.0685 17.0452 23.3867 17.5097 23.3867C17.5873 23.3867 17.6663 23.3778 17.7451 23.3592C18.2956 23.2297 18.6368 22.6784 18.5074 22.1278L18.2905 21.2062C18.1611 20.6557 17.61 20.3145 17.0591 20.4439Z" fill="#FFDE17"/>
<path d="M15.7427 19.1152C15.8537 19.5869 16.2742 19.905 16.7387 19.905C16.8163 19.905 16.8953 19.8961 16.9741 19.8775C17.5246 19.748 17.8658 19.1967 17.7364 18.6461L17.6882 18.4413C17.5586 17.8908 17.0073 17.5497 16.4568 17.6791C15.9063 17.8086 15.5651 18.3599 15.6945 18.9104L15.7427 19.1152Z" fill="#FFDE17"/>
</g>
</svg>
