<svg width="48" height="41" viewBox="0 0 48 41" fill="none" xmlns="http://www.w3.org/2000/svg">
<g id="Vector">
<path d="M47.0438 38.7251H44.2709V23.4263C44.2709 22.8983 43.8428 22.4701 43.3147 22.4701H36.4303C35.9022 22.4701 35.4741 22.8983 35.4741 23.4263V38.7251H28.3984V16.1594C28.3984 15.6314 27.9703 15.2032 27.4422 15.2032H20.5578C20.0297 15.2032 19.6016 15.6314 19.6016 16.1594V38.7251H12.5259V7.0757C12.5259 6.5477 12.0978 6.11952 11.5697 6.11952H4.68526C4.15716 6.11952 3.72908 6.5477 3.72908 7.0757V38.7251H0.956175C0.42808 38.7251 0 39.1533 0 39.6813C0 40.2093 0.42808 40.6374 0.956175 40.6374H47.0438C47.5719 40.6374 48 40.2093 48 39.6813C48 39.1533 47.5719 38.7251 47.0438 38.7251ZM10.6135 38.7251H5.64143V8.03187H10.6135V38.7251ZM26.4861 38.7251H21.5139V17.1155H26.4861V38.7251ZM42.3586 38.7251H37.3865V24.3825H42.3586V38.7251Z" fill="#FFDE17"/>
<path d="M36.0478 18.3586H38.5339C39.062 18.3586 39.49 17.9304 39.49 17.4024C39.49 16.8744 39.062 16.4462 38.5339 16.4462H36.0478C35.5197 16.4462 35.0916 16.8744 35.0916 17.4024C35.0916 17.9304 35.5197 18.3586 36.0478 18.3586Z" fill="#FFDE17"/>
<path d="M4.49402 1.91235H11.6392L19.7714 10.4139C19.9518 10.6025 20.2015 10.7092 20.4624 10.7092H27.0788L32.6394 15.6519C32.8216 15.8139 33.0484 15.8934 33.2743 15.8934C33.5379 15.8934 33.8004 15.785 33.9894 15.5726C34.3402 15.1778 34.3046 14.5735 33.9099 14.2227L28.0775 9.03834C27.9024 8.88268 27.6765 8.79681 27.4422 8.79681H20.8709L12.7387 0.295267C12.5584 0.106614 12.3087 0 12.0478 0H4.49402C3.96593 0 3.53785 0.428175 3.53785 0.956175C3.53785 1.48418 3.96593 1.91235 4.49402 1.91235Z" fill="#FFDE17"/>
<path d="M39.4771 15.754L41.9288 17.4263L39.4771 19.0985C39.0408 19.396 38.9284 19.9909 39.226 20.4272C39.4112 20.6987 39.7113 20.8447 40.0168 20.8447C40.2024 20.8447 40.3899 20.7909 40.5547 20.6783L44.1404 18.2325C44.4164 18.0444 44.5624 17.7371 44.5573 17.4263C44.5624 17.1155 44.4164 16.8083 44.1404 16.62L40.5547 14.1742C40.1185 13.8765 39.5236 13.9889 39.226 14.4253C38.9284 14.8616 39.0408 15.4565 39.4771 15.754Z" fill="#FFDE17"/>
<path d="M7.55379 15.6813C8.08188 15.6813 8.50996 15.2531 8.50996 14.7251V12.0478C8.50996 11.5198 8.08188 11.0916 7.55379 11.0916C7.02569 11.0916 6.59761 11.5198 6.59761 12.0478V14.7251C6.59761 15.2531 7.02569 15.6813 7.55379 15.6813Z" fill="#FFDE17"/>
<path d="M7.55379 38.0558C8.08188 38.0558 8.50996 37.6276 8.50996 37.0996V18.4542C8.50996 17.9262 8.08188 17.498 7.55379 17.498C7.02569 17.498 6.59761 17.9262 6.59761 18.4542V37.0996C6.59761 37.6276 7.02569 38.0558 7.55379 38.0558Z" fill="#FFDE17"/>
</g>
</svg>
