<svg width="44" height="48" viewBox="0 0 44 48" fill="none" xmlns="http://www.w3.org/2000/svg">
<g id="Vector">
<path d="M22.2392 11.3022C22.058 11.0937 21.7954 10.9741 21.5192 10.9741C21.243 10.9741 20.9804 11.0937 20.7992 11.3022C20.7022 11.4137 18.396 14.073 16.0507 17.4171C12.8258 22.0159 11.1906 25.5377 11.1906 27.8847C11.1906 33.2581 15.3155 37.6855 20.5649 38.1688V41.1292C20.5649 41.6563 20.9922 42.0835 21.5192 42.0835C22.0463 42.0835 22.4735 41.6563 22.4735 41.1292V38.1689C27.7229 37.6856 31.8478 33.2583 31.8478 27.8848C31.8478 25.5377 30.2126 22.016 26.9877 17.4172C24.6425 14.073 22.3363 11.4138 22.2392 11.3022ZM22.4735 36.2504V30.5368C22.4735 30.0097 22.0463 29.5825 21.5192 29.5825C20.9922 29.5825 20.5649 30.0097 20.5649 30.5368V36.2504C16.3698 35.775 13.0992 32.205 13.0992 27.8848C13.0992 24.265 18.6354 16.867 21.5193 13.4024C24.4032 16.8661 29.9392 24.2625 29.9392 27.8848C29.9392 32.2049 26.6687 35.7749 22.4735 36.2504Z" fill="#FFDE17"/>
<path d="M20.5649 26.4886V27.674C20.5649 28.201 20.9922 28.6282 21.5192 28.6282C22.0463 28.6282 22.4735 28.201 22.4735 27.674V26.4886C22.4735 25.9615 22.0463 25.5343 21.5192 25.5343C20.9922 25.5343 20.5649 25.9615 20.5649 26.4886Z" fill="#FFDE17"/>
<path d="M21.5192 45.7097C20.9922 45.7097 20.5649 46.137 20.5649 46.664V47.0457C20.5649 47.5728 20.9922 48 21.5192 48C22.0463 48 22.4735 47.5728 22.4735 47.0457V46.664C22.4735 46.137 22.0463 45.7097 21.5192 45.7097Z" fill="#FFDE17"/>
<path d="M42.6406 15.2407L22.084 0.185153C21.7479 -0.0617176 21.2905 -0.0617176 20.9543 0.185153L0.397789 15.2407C-0.0302984 15.5481 -0.128207 16.1443 0.179165 16.5724C0.365534 16.8321 0.65821 16.9703 0.955085 16.9703C1.14785 16.9703 1.34233 16.912 1.51085 16.791L3.4758 15.3803V44.015C3.4758 44.5421 3.90303 44.9693 4.43007 44.9693H38.6083C39.1354 44.9693 39.5626 44.5421 39.5626 44.015V15.3803L41.5276 16.791C41.6961 16.912 41.8906 16.9703 42.0833 16.9703C42.3802 16.9703 42.6729 16.832 42.8593 16.5724C43.1666 16.1443 43.0687 15.5481 42.6406 15.2407ZM37.6541 43.0608H5.38435V13.9958C5.39399 13.9864 5.40401 13.9773 5.41317 13.9676L21.5192 2.13827L37.6253 13.9676C37.6344 13.9774 37.6444 13.9864 37.6541 13.9958V43.0608Z" fill="#FFDE17"/>
</g>
</svg>
