<svg width="13" height="13" viewBox="0 0 13 13" fill="none" xmlns="http://www.w3.org/2000/svg">
<g clip-path="url(#clip0_8_51)">
<path d="M10.9271 8.12095C10.4721 7.64901 9.8807 7.64901 9.40678 8.12095C9.0504 8.47583 8.6978 8.82695 8.34143 9.18184C8.24285 9.28 8.16323 9.29888 8.0457 9.24224C7.82959 9.10633 7.57179 9.00817 7.35568 8.86848C6.32823 8.21911 5.46002 7.39228 4.69039 6.45221C4.31504 5.98027 3.98142 5.48947 3.74256 4.91938C3.70465 4.80234 3.70465 4.74194 3.80322 4.64378C4.17855 4.30776 4.51219 3.95664 4.86858 3.60176C5.36145 3.11095 5.36145 2.54086 4.86858 2.05005C4.57286 1.75558 4.29609 1.47997 4.01933 1.20436C3.7236 0.909878 3.44683 0.615395 3.15112 0.339788C2.69615 -0.113263 2.10471 -0.113263 1.63079 0.339788C1.27441 0.694679 0.921818 1.04579 0.565435 1.40068C0.228008 1.73669 0.0536076 2.12934 0.0119032 2.57862C-0.0487578 3.30727 0.129434 4.01328 0.387243 4.70041C0.921819 6.13507 1.72937 7.37341 2.69615 8.53247C4.01933 10.1068 5.59651 11.3452 7.4353 12.2286C8.2656 12.6212 9.11484 12.9346 10.021 12.995C10.6731 13.0327 11.2266 12.8591 11.6778 12.3645C11.9735 12.0096 12.3299 11.7152 12.6445 11.3829C13.1185 10.8921 13.1185 10.3031 12.6445 9.83121C12.072 9.26112 11.4996 8.69103 10.9271 8.12095Z" fill="#59B84A"/>
</g>
<defs>
<clipPath id="clip0_8_51">
<rect width="13" height="13" fill="white"/>
</clipPath>
</defs>
</svg>
