<svg width="28" height="28" viewBox="0 0 28 28" fill="none" xmlns="http://www.w3.org/2000/svg">
<circle cx="14" cy="14" r="14" fill="#F7941E"/>
<path d="M15.312 17.968C15.5253 17.7867 15.7013 17.5307 15.84 17.2C15.9787 16.8693 16.08 16.4747 16.144 16.016C16.208 15.5467 16.24 15.0293 16.24 14.464C16.24 13.888 16.208 13.3707 16.144 12.912C16.08 12.4427 15.9787 12.0427 15.84 11.712C15.7013 11.3813 15.5253 11.1253 15.312 10.944C15.0987 10.7627 14.8427 10.672 14.544 10.672C14.2453 10.672 13.9893 10.7627 13.776 10.944C13.5627 11.1253 13.3867 11.3813 13.248 11.712C13.1093 12.0427 13.008 12.4427 12.944 12.912C12.88 13.3707 12.848 13.888 12.848 14.464C12.848 15.0293 12.88 15.5467 12.944 16.016C13.008 16.4747 13.1093 16.8693 13.248 17.2C13.3867 17.5307 13.5627 17.7867 13.776 17.968C13.9893 18.1493 14.2453 18.24 14.544 18.24C14.8427 18.24 15.0987 18.1493 15.312 17.968ZM17.6 18.512C17.2693 19.024 16.8533 19.4293 16.352 19.728C15.8507 20.016 15.248 20.16 14.544 20.16C13.84 20.16 13.232 20.016 12.72 19.728C12.2187 19.4293 11.8027 19.024 11.472 18.512C11.152 18 10.912 17.3973 10.752 16.704C10.6027 16.0107 10.528 15.264 10.528 14.464C10.528 13.664 10.6027 12.9173 10.752 12.224C10.912 11.52 11.152 10.912 11.472 10.4C11.8027 9.888 12.2187 9.488 12.72 9.2C13.232 8.90133 13.84 8.752 14.544 8.752C15.248 8.752 15.8507 8.90133 16.352 9.2C16.8533 9.488 17.2693 9.888 17.6 10.4C17.9307 10.912 18.1707 11.52 18.32 12.224C18.48 12.9173 18.56 13.664 18.56 14.464C18.56 15.264 18.48 16.0107 18.32 16.704C18.1707 17.3973 17.9307 18 17.6 18.512Z" fill="white"/>
</svg>
