<svg width="64" height="64" viewBox="0 0 64 64" fill="none" xmlns="http://www.w3.org/2000/svg">
<g id="Vector">
<path d="M61.8196 32.6285H61.7493V17.9296C61.7493 16.107 60.2664 14.6241 58.4438 14.6241H57.8524L56.5059 7.54216C56.3971 6.97004 56.0721 6.47454 55.5906 6.14691C55.1091 5.81929 54.5289 5.69879 53.9569 5.80754L48.9404 6.76129L47.0724 1.45717C46.879 0.907924 46.4832 0.4668 45.9579 0.215176C45.4328 -0.0364489 44.8412 -0.0685739 44.2917 0.125051L3.10487 14.6309C1.37537 14.735 0 16.1744 0 17.9296V60.6901C0 62.5127 1.48287 63.9956 3.30549 63.9956H58.4439C60.2665 63.9956 61.7494 62.5127 61.7494 60.6901V45.9911H61.8198C63.022 45.9911 64 45.0131 64 43.8108V34.8086C63.9999 33.6066 63.0219 32.6285 61.8196 32.6285ZM44.9924 2.11505C44.9993 2.11267 45.0197 2.1053 45.0462 2.11805C45.0724 2.13055 45.0797 2.15142 45.082 2.15817L46.8438 7.16016L44.7429 7.55954C44.1705 7.66841 43.7947 8.22066 43.9035 8.79303C44.0124 9.36541 44.5643 9.74141 45.137 9.63241L54.3509 7.88054C54.3579 7.87929 54.3794 7.87504 54.4036 7.89154C54.4279 7.90804 54.4319 7.92954 54.4332 7.93654L55.7046 14.6244H18.8803L40.6372 10.4879C41.2095 10.3792 41.5854 9.82691 41.4765 9.25441C41.3677 8.68203 40.8157 8.30591 40.243 8.41504L11.6931 13.8432L44.9924 2.11505ZM59.6395 60.6899C59.6395 61.3492 59.1031 61.8856 58.4439 61.8856H3.30549C2.64624 61.8856 2.10987 61.3492 2.10987 60.6899V59.4943H4.43074C5.01337 59.4943 5.48574 59.0219 5.48574 58.4393C5.48574 57.8567 5.01337 57.3843 4.43074 57.3843H2.10987V21.2351H4.43074C5.01337 21.2351 5.48574 20.7628 5.48574 20.1801C5.48574 19.5975 5.01337 19.1251 4.43074 19.1251H2.10987V17.9295C2.10987 17.2703 2.64624 16.7339 3.30549 16.7339H58.4439C59.1031 16.7339 59.6395 17.2703 59.6395 17.9295V32.6284H52.8175C49.1335 32.6284 46.1362 35.6256 46.1362 39.3097C46.1362 42.9937 49.1334 45.9911 52.8175 45.9911H59.6395V60.6899ZM61.89 43.8108C61.89 43.8495 61.8585 43.8812 61.8196 43.8812H52.8174C50.2968 43.8812 48.246 41.8305 48.246 39.3099C48.246 36.7891 50.2968 34.7385 52.8174 34.7385H61.8196C61.8585 34.7385 61.89 34.7701 61.89 34.8089V43.8108Z" fill="#F7941E"/>
<path d="M11.1824 57.3844H8.93186C8.34923 57.3844 7.87686 57.8568 7.87686 58.4394C7.87686 59.0221 8.34923 59.4944 8.93186 59.4944H11.1824C11.765 59.4944 12.2374 59.0221 12.2374 58.4394C12.2374 57.8568 11.765 57.3844 11.1824 57.3844Z" fill="#F7941E"/>
<path d="M11.1824 19.1253H8.93186C8.34923 19.1253 7.87686 19.5976 7.87686 20.1803C7.87686 20.7629 8.34923 21.2353 8.93186 21.2353H11.1824C11.765 21.2353 12.2374 20.7629 12.2374 20.1803C12.2374 19.5976 11.765 19.1253 11.1824 19.1253Z" fill="#F7941E"/>
<path d="M17.9341 57.3844H15.6836C15.101 57.3844 14.6286 57.8568 14.6286 58.4394C14.6286 59.0221 15.101 59.4944 15.6836 59.4944H17.9341C18.5167 59.4944 18.9891 59.0221 18.9891 58.4394C18.9891 57.8568 18.5166 57.3844 17.9341 57.3844Z" fill="#F7941E"/>
<path d="M17.9341 19.1253H15.6836C15.101 19.1253 14.6286 19.5976 14.6286 20.1803C14.6286 20.7629 15.101 21.2353 15.6836 21.2353H17.9341C18.5167 21.2353 18.9891 20.7629 18.9891 20.1803C18.9891 19.5976 18.5166 19.1253 17.9341 19.1253Z" fill="#F7941E"/>
<path d="M24.6857 57.3844H22.4352C21.8526 57.3844 21.3802 57.8568 21.3802 58.4394C21.3802 59.0221 21.8526 59.4944 22.4352 59.4944H24.6857C25.2683 59.4944 25.7407 59.0221 25.7407 58.4394C25.7407 57.8568 25.2683 57.3844 24.6857 57.3844Z" fill="#F7941E"/>
<path d="M24.6857 19.1253H22.4352C21.8526 19.1253 21.3802 19.5976 21.3802 20.1803C21.3802 20.7629 21.8526 21.2353 22.4352 21.2353H24.6857C25.2683 21.2353 25.7407 20.7629 25.7407 20.1803C25.7407 19.5976 25.2683 19.1253 24.6857 19.1253Z" fill="#F7941E"/>
<path d="M31.4373 57.3844H29.1868C28.6042 57.3844 28.1318 57.8568 28.1318 58.4394C28.1318 59.0221 28.6042 59.4944 29.1868 59.4944H31.4373C32.0199 59.4944 32.4923 59.0221 32.4923 58.4394C32.4923 57.8568 32.0199 57.3844 31.4373 57.3844Z" fill="#F7941E"/>
<path d="M31.4373 19.1253H29.1868C28.6042 19.1253 28.1318 19.5976 28.1318 20.1803C28.1318 20.7629 28.6042 21.2353 29.1868 21.2353H31.4373C32.0199 21.2353 32.4923 20.7629 32.4923 20.1803C32.4923 19.5976 32.0199 19.1253 31.4373 19.1253Z" fill="#F7941E"/>
<path d="M38.1889 57.3844H35.9384C35.3558 57.3844 34.8834 57.8568 34.8834 58.4394C34.8834 59.0221 35.3558 59.4944 35.9384 59.4944H38.1889C38.7715 59.4944 39.2439 59.0221 39.2439 58.4394C39.2439 57.8568 38.7715 57.3844 38.1889 57.3844Z" fill="#F7941E"/>
<path d="M38.1889 19.1253H35.9384C35.3558 19.1253 34.8834 19.5976 34.8834 20.1803C34.8834 20.7629 35.3558 21.2353 35.9384 21.2353H38.1889C38.7715 21.2353 39.2439 20.7629 39.2439 20.1803C39.2439 19.5976 38.7715 19.1253 38.1889 19.1253Z" fill="#F7941E"/>
<path d="M44.9405 57.3844H42.69C42.1074 57.3844 41.635 57.8568 41.635 58.4394C41.635 59.0221 42.1074 59.4944 42.69 59.4944H44.9405C45.5232 59.4944 45.9955 59.0221 45.9955 58.4394C45.9955 57.8568 45.5232 57.3844 44.9405 57.3844Z" fill="#F7941E"/>
<path d="M44.9405 19.1253H42.69C42.1074 19.1253 41.635 19.5976 41.635 20.1803C41.635 20.7629 42.1074 21.2353 42.69 21.2353H44.9405C45.5232 21.2353 45.9955 20.7629 45.9955 20.1803C45.9955 19.5976 45.5232 19.1253 44.9405 19.1253Z" fill="#F7941E"/>
<path d="M51.6922 57.3844H49.4417C48.859 57.3844 48.3867 57.8568 48.3867 58.4394C48.3867 59.0221 48.859 59.4944 49.4417 59.4944H51.6922C52.2748 59.4944 52.7471 59.0221 52.7471 58.4394C52.7471 57.8568 52.2748 57.3844 51.6922 57.3844Z" fill="#F7941E"/>
<path d="M51.6922 19.1253H49.4417C48.859 19.1253 48.3867 19.5976 48.3867 20.1803C48.3867 20.7629 48.859 21.2353 49.4417 21.2353H51.6922C52.2748 21.2353 52.7471 20.7629 52.7471 20.1803C52.7471 19.5976 52.2748 19.1253 51.6922 19.1253Z" fill="#F7941E"/>
<path d="M56.1933 55.1339C55.6106 55.1339 55.1383 55.6063 55.1383 56.1889V58.4394C55.1383 59.0222 55.6106 59.4944 56.1933 59.4944C56.7759 59.4944 57.2483 59.0221 57.2483 58.4394V56.1889C57.2483 55.6063 56.7759 55.1339 56.1933 55.1339Z" fill="#F7941E"/>
<path d="M56.1933 19.1253C55.6106 19.1253 55.1383 19.5976 55.1383 20.1803V22.4308C55.1383 23.0135 55.6106 23.4858 56.1933 23.4858C56.7759 23.4858 57.2483 23.0134 57.2483 22.4308V20.1803C57.2483 19.5975 56.7759 19.1253 56.1933 19.1253Z" fill="#F7941E"/>
<path d="M56.1933 25.8769C55.6106 25.8769 55.1383 26.3493 55.1383 26.9319V29.1824C55.1383 29.7651 55.6106 30.2374 56.1933 30.2374C56.7759 30.2374 57.2483 29.765 57.2483 29.1824V26.9319C57.2483 26.3493 56.7759 25.8769 56.1933 25.8769Z" fill="#F7941E"/>
<path d="M56.1933 48.3823C55.6106 48.3823 55.1383 48.8547 55.1383 49.4373V51.6878C55.1383 52.2706 55.6106 52.7428 56.1933 52.7428C56.7759 52.7428 57.2483 52.2705 57.2483 51.6878V49.4373C57.2483 48.8547 56.7759 48.3823 56.1933 48.3823Z" fill="#F7941E"/>
<path d="M52.8175 37.1296C51.6153 37.1296 50.6373 38.1076 50.6373 39.3099C50.6373 40.5121 51.6153 41.4901 52.8175 41.4901C54.0198 41.4901 54.9978 40.5121 54.9978 39.3099C54.9976 38.1076 54.0196 37.1296 52.8175 37.1296Z" fill="#F7941E"/>
<path d="M30.2417 38.5044V30.2796C33.6886 30.5567 36.0087 32.1602 36.0087 33.6131C36.0087 34.1957 36.4811 34.6681 37.0637 34.6681C37.6463 34.6681 38.1187 34.1957 38.1187 33.6131C38.1187 30.7567 34.7352 28.4764 30.2418 28.1651V26.9319C30.2418 26.3493 29.7694 25.8769 29.1868 25.8769C28.6042 25.8769 28.1318 26.3493 28.1318 26.9319V28.1651C23.6385 28.4765 20.255 30.7569 20.255 33.6131C20.255 37.4396 23.8933 38.9329 28.1318 40.1152V48.34C24.685 48.063 22.3648 46.4595 22.3648 45.0065C22.3648 44.4238 21.8925 43.9515 21.3098 43.9515C20.7272 43.9515 20.2548 44.4238 20.2548 45.0065C20.2548 47.8628 23.6383 50.1432 28.1317 50.4545V51.6877C28.1317 52.2703 28.6041 52.7427 29.1867 52.7427C29.7693 52.7427 30.2417 52.2703 30.2417 51.6877V50.4545C34.7351 50.1431 38.1186 47.8627 38.1186 45.0065C38.1186 41.18 34.4802 39.6867 30.2417 38.5044ZM28.1318 37.9177C23.8531 36.6537 22.3648 35.5056 22.3648 33.6131C22.3648 32.1602 24.685 30.5567 28.1318 30.2796V37.9177ZM30.2417 48.34V40.7019C34.5204 41.966 36.0087 43.1141 36.0087 45.0065C36.0087 46.4593 33.6886 48.0628 30.2417 48.34Z" fill="#F7941E"/>
</g>
</svg>
