<svg width="94" height="108" viewBox="0 0 94 108" fill="none" xmlns="http://www.w3.org/2000/svg">
<g id="Group">
<g id="Group_2">
<g id="Group_3">
<path id="Vector" d="M47 60.4791C46.4106 60.4791 45.8211 60.4005 45.2316 60.2433C43.4632 59.7717 42.0092 58.6321 41.1054 57.0602C39.2191 53.7985 40.3587 49.6329 43.5811 47.7466C46.8428 45.8603 51.0084 47 52.8947 50.2224C54.781 53.4841 53.6413 57.6496 50.4189 59.5359C49.3579 60.1647 48.1789 60.4791 47 60.4791ZM47 50.2617C46.4106 50.2617 45.8211 50.4189 45.3102 50.7332C43.699 51.6764 43.1095 53.7592 44.0527 55.3704C44.5243 56.1563 45.2316 56.7065 46.1355 56.9423C47 57.1781 47.9432 57.0602 48.7291 56.5886C50.3403 55.6455 50.9298 53.5627 49.9866 51.9515C49.3186 50.8904 48.1789 50.2617 47 50.2617Z" fill="#E7EAEC"/>
</g>
</g>
<g id="Group_4">
<g id="Group_5">
<path id="Vector_2" d="M42.1664 46.9607C42.0092 46.9607 41.852 46.9214 41.6555 46.8821L34.9356 44.8386C34.3855 44.6814 33.9532 44.2491 33.796 43.6597L28.255 24.4431C28.0192 23.6965 28.3729 22.8712 29.041 22.4782C29.709 22.0852 30.5736 22.2031 31.1238 22.7533L44.9958 37.1756C45.3888 37.6078 45.546 38.1973 45.4281 38.7475L43.8169 45.5853C43.699 46.0568 43.4239 46.4498 42.9916 46.6856C42.7559 46.8821 42.4415 46.9607 42.1664 46.9607ZM36.8219 41.852L40.9089 43.1095L41.8913 38.944L33.4423 30.1413L36.8219 41.852Z" fill="#E7EAEC"/>
</g>
</g>
<g id="Group_6">
<g id="Group_7">
<path id="Vector_3" d="M32.1848 60.1647C32.0669 60.1647 31.9097 60.1647 31.7918 60.1254L12.3395 55.3311C11.5928 55.1346 11.0426 54.4666 11.0426 53.6806C11.0426 52.8946 11.5928 52.2266 12.3395 52.0301L31.7525 47.2358C32.3027 47.0786 32.8921 47.2358 33.3244 47.6287L38.4331 52.4231C38.7868 52.7375 38.9833 53.209 38.9833 53.6806C38.9833 54.1522 38.7868 54.5845 38.4331 54.9381L33.3244 59.7324C33.01 60.0075 32.5778 60.1647 32.1848 60.1647ZM19.8453 53.6806L31.6739 56.6279L34.7784 53.6806L31.6739 50.7333L19.8453 53.6806Z" fill="#E7EAEC"/>
</g>
</g>
<g id="Group_8">
<g id="Group_9">
<path id="Vector_4" d="M29.8662 85.0401C29.5911 85.0401 29.2768 84.9615 29.0017 84.8043C28.3336 84.4113 27.9799 83.6254 28.2157 82.8394L33.7567 63.6228C33.9139 63.0727 34.3462 62.6404 34.8963 62.4439L41.6162 60.4004C42.0485 60.2825 42.5594 60.3218 42.9523 60.5576C43.3453 60.7934 43.6597 61.1864 43.7776 61.658L45.3888 68.4958C45.5067 69.0459 45.3495 69.6354 44.9565 70.0677L31.0844 84.5292C30.7701 84.8829 30.3378 85.0401 29.8662 85.0401ZM36.8219 65.4698L33.4423 77.1805L41.8913 68.3779L40.9089 64.2123L36.8219 65.4698Z" fill="#E7EAEC"/>
</g>
</g>
<g id="Group_10">
<g id="Group_11">
<path id="Vector_5" d="M64.1338 85.0402C63.6622 85.0402 63.2299 84.8437 62.9156 84.5293L49.0435 70.1071C48.6505 69.6748 48.4933 69.0853 48.6112 68.5352L50.2224 61.6974C50.3403 61.2258 50.6154 60.8328 51.0477 60.597C51.4406 60.3613 51.9515 60.322 52.3838 60.4399L59.1037 62.4834C59.6538 62.6405 60.0861 63.0728 60.2433 63.6623L65.7843 82.8788C66.0201 83.6255 65.6664 84.4507 64.9983 84.8437C64.7232 84.9616 64.4482 85.0402 64.1338 85.0402ZM52.148 68.4173L60.597 77.22L57.2174 65.5093L53.1304 64.2517L52.148 68.4173Z" fill="#E7EAEC"/>
</g>
</g>
<g id="Group_12">
<g id="Group_13">
<path id="Vector_6" d="M61.8545 60.1647C61.4222 60.1647 60.99 60.0075 60.6756 59.6931L55.5669 54.8988C55.2132 54.5844 55.0167 54.1129 55.0167 53.6413C55.0167 53.1697 55.2132 52.7374 55.5669 52.3838L60.6756 47.5894C61.1079 47.1965 61.6973 47.0393 62.2475 47.1965L81.6605 51.9908C82.4072 52.1873 82.9574 52.8553 82.9574 53.6413C82.9574 54.4272 82.4072 55.0953 81.6605 55.2918L62.2475 60.1254C62.1296 60.1647 61.9724 60.1647 61.8545 60.1647ZM59.2216 53.6806L62.3261 56.6279L74.1547 53.6806L62.3261 50.7333L59.2216 53.6806Z" fill="#E7EAEC"/>
</g>
</g>
<g id="Group_14">
<g id="Group_15">
<path id="Vector_7" d="M51.8729 46.9607C51.5585 46.9607 51.2835 46.8821 51.0084 46.7249C50.6154 46.4891 50.301 46.0961 50.1831 45.6246L48.5719 38.7868C48.454 38.2366 48.6112 37.6471 49.0042 37.2148L62.8763 22.7926C63.4264 22.2425 64.291 22.1246 64.959 22.5175C65.6271 22.9105 65.9808 23.6965 65.745 24.4824L60.204 43.699C60.0468 44.2491 59.6146 44.6814 59.0644 44.8779L52.3445 46.9214C52.1873 46.9214 52.0301 46.9607 51.8729 46.9607ZM52.148 38.9047L53.1304 43.0702L57.2174 41.8127L60.597 30.102L52.148 38.9047Z" fill="#E7EAEC"/>
</g>
</g>
<g id="Group_16">
<g id="Group_17">
<g id="Group_18">
<g id="Group_19">
<path id="Vector_8" d="M47.0786 30.6521C46.1354 30.6521 45.3888 29.8662 45.3888 28.923L45.4674 6.24827C45.4674 5.30512 46.2533 4.55847 47.1572 4.55847C48.1003 4.55847 48.847 5.34442 48.847 6.28757L48.7684 28.9623C48.7684 29.8662 48.0217 30.6521 47.0786 30.6521Z" fill="#E7EAEC"/>
</g>
</g>
<g id="Group_20">
<g id="Group_21">
<path id="Vector_9" d="M47.0786 31.0451C46.6463 31.0451 46.214 30.8879 45.8604 30.5342L37.9222 22.5961C37.2542 21.928 37.2542 20.867 37.9222 20.1989C38.5903 19.5309 39.6513 19.5309 40.3194 20.1989L47.0393 26.9188L53.602 20.3561C54.2701 19.6881 55.3311 19.6881 55.9992 20.3561C56.6672 21.0242 56.6672 22.0852 55.9992 22.7533L48.2182 30.5342C47.9431 30.8879 47.5109 31.0451 47.0786 31.0451Z" fill="#E7EAEC"/>
</g>
</g>
<g id="Group_22">
<g id="Group_23">
<path id="Vector_10" d="M47.2358 19.9632C46.7642 19.9632 46.3319 19.7667 46.0175 19.4523L42.0878 15.5226C41.4197 14.8545 41.4197 13.7935 42.0878 13.1254C42.7558 12.4573 43.8169 12.4573 44.4849 13.1254L47.2358 15.8762L50.0652 13.0468C50.7333 12.3788 51.7943 12.3788 52.4624 13.0468C53.1304 13.7149 53.1304 14.7759 52.4624 15.444L48.4147 19.4916C48.1396 19.806 47.7073 19.9632 47.2358 19.9632Z" fill="#E7EAEC"/>
</g>
</g>
</g>
<g id="Group_24">
<g id="Group_25">
<path id="Vector_11" d="M47 7.54516C49.0835 7.54516 50.7726 5.85611 50.7726 3.77258C50.7726 1.68904 49.0835 0 47 0C44.9165 0 43.2274 1.68904 43.2274 3.77258C43.2274 5.85611 44.9165 7.54516 47 7.54516Z" fill="#E7EAEC"/>
</g>
</g>
</g>
<g id="Group_26">
<g id="Group_27">
<g id="Group_28">
<g id="Group_29">
<path id="Vector_12" d="M25.6221 42.9524C25.347 42.9524 25.0326 42.8738 24.7575 42.7166L5.1873 31.3203C4.36205 30.8487 4.08696 29.7877 4.55854 29.0017C5.03011 28.1765 6.09115 27.9014 6.8771 28.3729L26.4473 39.7692C27.2726 40.2408 27.5477 41.3019 27.0761 42.0878C26.7617 42.638 26.2115 42.9524 25.6221 42.9524Z" fill="#E7EAEC"/>
</g>
</g>
<g id="Group_30">
<g id="Group_31">
<path id="Vector_13" d="M15.1296 46.0568C14.383 46.0568 13.6756 45.546 13.4791 44.7993C13.2433 43.8955 13.7935 42.9523 14.6973 42.7165L23.893 40.2408L21.4958 31.2809C21.2601 30.3771 21.8102 29.434 22.7141 29.1982C23.6179 28.9624 24.5611 29.5125 24.7968 30.4164L27.6263 41.0268C27.7442 41.459 27.6656 41.9306 27.4691 42.3236C27.2333 42.7165 26.8796 42.9916 26.4473 43.1095L15.6012 46.0176C15.444 46.0176 15.2868 46.0568 15.1296 46.0568Z" fill="#E7EAEC"/>
</g>
</g>
<g id="Group_32">
<g id="Group_33">
<path id="Vector_14" d="M11.0819 38.9047C10.3353 38.9047 9.62793 38.3938 9.43144 37.6471C9.19565 36.7433 9.74582 35.8002 10.6497 35.5644L14.3829 34.5819L13.3612 30.6915C13.1254 29.7876 13.6756 28.8445 14.5794 28.6087C15.4833 28.3729 16.4264 28.9231 16.6622 29.8269L18.1555 35.3679C18.3913 36.2717 17.8411 37.2149 16.9373 37.4507L11.5535 38.9047C11.3963 38.8654 11.2391 38.9047 11.0819 38.9047Z" fill="#E7EAEC"/>
</g>
</g>
</g>
<g id="Group_34">
<g id="Group_35">
<path id="Vector_15" d="M3.77257 32.4991C5.85611 32.4991 7.54515 30.8101 7.54515 28.7265C7.54515 26.643 5.85611 24.954 3.77257 24.954C1.68904 24.954 0 26.643 0 28.7265C0 30.8101 1.68904 32.4991 3.77257 32.4991Z" fill="#E7EAEC"/>
</g>
</g>
</g>
<g id="Group_36">
<g id="Group_37">
<g id="Group_38">
<g id="Group_39">
<path id="Vector_16" d="M5.89465 78.949C5.30519 78.949 4.71572 78.6346 4.40134 78.0844C3.92977 77.2592 4.20485 76.2374 5.0301 75.7659L24.7182 64.4874C25.5435 64.0159 26.5652 64.2909 27.0368 65.1162C27.5084 65.9414 27.2333 66.9632 26.408 67.4348L6.7199 78.7132C6.48412 78.8704 6.16974 78.949 5.89465 78.949Z" fill="#E7EAEC"/>
</g>
</g>
<g id="Group_40">
<g id="Group_41">
<path id="Vector_17" d="M22.9892 78.2809C22.832 78.2809 22.7141 78.281 22.5569 78.2417C21.653 78.0059 21.1029 77.0627 21.3386 76.1589L23.8144 66.9632L14.8545 64.5661C13.9507 64.3303 13.4005 63.3871 13.6363 62.4833C13.8721 61.5795 14.8152 61.0293 15.7191 61.2651L26.3295 64.0945C26.7617 64.2124 27.1547 64.4875 27.3512 64.8804C27.587 65.2734 27.6263 65.745 27.5084 66.1773L24.6004 77.0234C24.4432 77.8094 23.7751 78.2809 22.9892 78.2809Z" fill="#E7EAEC"/>
</g>
</g>
<g id="Group_42">
<g id="Group_43">
<path id="Vector_18" d="M14.7759 78.2417C14.6187 78.2417 14.4615 78.2417 14.3436 78.1631C13.4398 77.9273 12.8896 76.9842 13.1254 76.0803L14.1079 72.3471L10.2174 71.286C9.31354 71.0502 8.76337 70.1071 8.99916 69.2032C9.23494 68.2994 10.1781 67.7492 11.0819 67.985L16.6229 69.4783C17.0552 69.5962 17.4482 69.8713 17.6446 70.2643C17.8804 70.6573 17.9197 71.1288 17.8018 71.5611L16.3478 76.9449C16.2299 77.7308 15.5619 78.2417 14.7759 78.2417Z" fill="#E7EAEC"/>
</g>
</g>
</g>
<g id="Group_44">
<g id="Group_45">
<path id="Vector_19" d="M3.77257 82.4072C5.85611 82.4072 7.54515 80.7182 7.54515 78.6346C7.54515 76.5511 5.85611 74.8621 3.77257 74.8621C1.68904 74.8621 0 76.5511 0 78.6346C0 80.7182 1.68904 82.4072 3.77257 82.4072Z" fill="#E7EAEC"/>
</g>
</g>
</g>
<g id="Group_46">
<g id="Group_47">
<g id="Group_48">
<g id="Group_49">
<path id="Vector_20" d="M46.8428 102.763C45.8997 102.763 45.153 101.977 45.153 101.034L45.2316 78.3595C45.2316 77.4163 46.0176 76.6697 46.9214 76.6697C47.8646 76.6697 48.6112 77.4556 48.6112 78.3988L48.5326 101.074C48.5719 102.017 47.786 102.763 46.8428 102.763Z" fill="#E7EAEC"/>
</g>
</g>
<g id="Group_50">
<g id="Group_51">
<path id="Vector_21" d="M54.8596 87.6338C54.4273 87.6338 53.995 87.4766 53.6413 87.1229L46.9214 80.403L40.3587 86.9657C39.6907 87.6338 38.6296 87.6338 37.9616 86.9657C37.2935 86.2977 37.2935 85.2366 37.9616 84.5685L45.7425 76.7876C46.3713 76.1588 47.5109 76.1588 48.1397 76.7876L56.0778 84.7257C56.7458 85.3938 56.7458 86.4548 56.0778 87.1229C55.7241 87.4373 55.2918 87.6338 54.8596 87.6338Z" fill="#E7EAEC"/>
</g>
</g>
<g id="Group_52">
<g id="Group_53">
<path id="Vector_22" d="M42.7166 94.8251C42.2843 94.8251 41.852 94.668 41.4984 94.3143C40.8303 93.6462 40.8303 92.5852 41.4984 91.9171L45.546 87.8695C46.2141 87.2014 47.2751 87.2014 47.9432 87.8695L51.8729 91.7992C52.541 92.4673 52.541 93.5283 51.8729 94.1964C51.2049 94.8644 50.1438 94.8644 49.4758 94.1964L46.7249 91.4455L43.8955 94.275C43.5811 94.6286 43.1489 94.8251 42.7166 94.8251Z" fill="#E7EAEC"/>
</g>
</g>
</g>
<g id="Group_54">
<g id="Group_55">
<path id="Vector_23" d="M47 107.361C49.0836 107.361 50.7726 105.672 50.7726 103.589C50.7726 101.505 49.0836 99.816 47 99.816C44.9165 99.816 43.2274 101.505 43.2274 103.589C43.2274 105.672 44.9165 107.361 47 107.361Z" fill="#E7EAEC"/>
</g>
</g>
</g>
<g id="Group_56">
<g id="Group_57">
<g id="Group_58">
<g id="Group_59">
<path id="Vector_24" d="M87.9875 79.1847C87.7124 79.1847 87.398 79.1061 87.1229 78.9489L67.5527 67.5526C66.7274 67.081 66.4524 66.02 66.9239 65.2341C67.3955 64.4088 68.4565 64.1337 69.2425 64.6053L88.8127 76.0016C89.638 76.4732 89.9131 77.5342 89.4415 78.3202C89.1271 78.8703 88.5769 79.1847 87.9875 79.1847Z" fill="#E7EAEC"/>
</g>
</g>
<g id="Group_60">
<g id="Group_61">
<path id="Vector_25" d="M70.8537 78.2024C70.107 78.2024 69.3997 77.6915 69.2032 76.9448L66.3738 66.3345C66.138 65.4306 66.6881 64.4875 67.592 64.2517L78.4381 61.3437C79.342 61.1079 80.2851 61.658 80.5209 62.5619C80.7567 63.4657 80.2065 64.4089 79.3027 64.6447L70.107 67.1204L72.5042 76.0803C72.74 76.9841 72.1898 77.9273 71.286 78.1631C71.1681 78.2024 71.0109 78.2024 70.8537 78.2024Z" fill="#E7EAEC"/>
</g>
</g>
<g id="Group_62">
<g id="Group_63">
<path id="Vector_26" d="M79.0276 78.8311C78.281 78.8311 77.5736 78.3202 77.3771 77.5735L75.8838 72.0326C75.648 71.1287 76.1982 70.1856 77.102 69.9498L82.4858 68.4958C83.3897 68.26 84.3328 68.8101 84.5686 69.714C84.8044 70.6178 84.2542 71.561 83.3504 71.7968L79.6171 72.7792L80.6781 76.6697C80.9139 77.5735 80.3637 78.5167 79.4599 78.7525C79.3027 78.7917 79.1455 78.8311 79.0276 78.8311Z" fill="#E7EAEC"/>
</g>
</g>
</g>
<g id="Group_64">
<g id="Group_65">
<path id="Vector_27" d="M90.2274 82.4071C92.311 82.4071 94 80.7181 94 78.6346C94 76.551 92.311 74.862 90.2274 74.862C88.1439 74.862 86.4549 76.551 86.4549 78.6346C86.4549 80.7181 88.1439 82.4071 90.2274 82.4071Z" fill="#E7EAEC"/>
</g>
</g>
</g>
<g id="Group_66">
<g id="Group_67">
<g id="Group_68">
<g id="Group_69">
<path id="Vector_28" d="M68.4565 43.0703C67.8671 43.0703 67.2776 42.7559 66.9632 42.2058C66.4917 41.3805 66.7667 40.3588 67.592 39.8872L87.2801 28.6088C88.1054 28.1372 89.1271 28.4123 89.5987 29.2375C90.0703 30.0628 89.7952 31.0845 88.9699 31.5561L69.3211 42.8345C69.046 42.9917 68.7316 43.0703 68.4565 43.0703Z" fill="#E7EAEC"/>
</g>
</g>
<g id="Group_70">
<g id="Group_71">
<path id="Vector_29" d="M78.7132 46.1356C78.556 46.1356 78.3988 46.1356 78.2809 46.0963L67.6706 43.2668C67.2383 43.1489 66.8453 42.8739 66.6488 42.4809C66.4131 42.0879 66.3738 41.6163 66.4916 41.1841L69.3997 30.3379C69.6355 29.434 70.5786 28.8839 71.4825 29.1197C72.3863 29.3555 72.9365 30.2986 72.7007 31.2024L70.2249 40.3981L79.1848 42.7953C80.0886 43.031 80.6388 43.9742 80.403 44.878C80.1672 45.6247 79.4992 46.1356 78.7132 46.1356Z" fill="#E7EAEC"/>
</g>
</g>
<g id="Group_72">
<g id="Group_73">
<path id="Vector_30" d="M83.3111 39.3764C83.1539 39.3764 82.9967 39.3764 82.8788 39.3371L77.3378 37.8438C76.434 37.608 75.8838 36.6649 76.1196 35.761L77.5736 30.3772C77.8094 29.4734 78.7525 28.9232 79.6564 29.159C80.5602 29.3948 81.1104 30.3379 80.8746 31.2418L79.8922 34.9751L83.7826 36.0361C84.6865 36.2719 85.2366 37.215 85.0009 38.1189C84.7651 38.8655 84.0577 39.3764 83.3111 39.3764Z" fill="#E7EAEC"/>
</g>
</g>
</g>
<g id="Group_74">
<g id="Group_75">
<path id="Vector_31" d="M90.2274 32.4992C92.311 32.4992 94 30.8102 94 28.7267C94 26.6431 92.311 24.9541 90.2274 24.9541C88.1439 24.9541 86.4549 26.6431 86.4549 28.7267C86.4549 30.8102 88.1439 32.4992 90.2274 32.4992Z" fill="#E7EAEC"/>
</g>
</g>
</g>
</g>
</svg>
