<svg width="85" height="97" viewBox="0 0 85 97" fill="none" xmlns="http://www.w3.org/2000/svg">
<g id="Group 31">
<g id="Group">
<g id="Group_2">
<path id="Vector" d="M42.3887 55.5954C38.3809 55.5954 35.1293 52.3438 35.1293 48.336C35.1293 44.3282 38.3809 41.0765 42.3887 41.0765C46.3965 41.0765 49.6481 44.3282 49.6481 48.336C49.6481 52.3438 46.3965 55.5954 42.3887 55.5954ZM42.3887 44.4038C40.1957 44.4038 38.4187 46.1808 38.4187 48.3738C38.4187 50.5667 40.1957 52.3437 42.3887 52.3437C44.5816 52.3437 46.3587 50.5667 46.3587 48.3738C46.3587 46.1808 44.5816 44.4038 42.3887 44.4038Z" fill="#E7EAEC"/>
</g>
</g>
<g id="Group_3">
<g id="Group_4">
<path id="Vector_2" d="M28.7017 28.675L31.5752 38.5811C34.9781 39.602 38.5322 37.5603 39.364 34.0818L32.218 26.6333C30.6678 25.1209 28.0968 26.5955 28.7017 28.675Z" fill="#E7EAEC"/>
</g>
</g>
<g id="Group_5">
<g id="Group_6">
<path id="Vector_3" d="M18.4931 50.3776L28.5126 52.8352C31.1215 50.4154 31.1215 46.2942 28.5126 43.8365L18.4931 46.332C16.4136 46.8613 16.4136 49.8482 18.4931 50.3776Z" fill="#E7EAEC"/>
</g>
</g>
<g id="Group_7">
<g id="Group_8">
<path id="Vector_4" d="M32.1802 70.0385L39.3262 62.59C38.5322 59.1115 34.9403 57.0698 31.5374 58.0907L28.6639 67.9968C28.0967 70.1141 30.6678 71.5886 32.1802 70.0385Z" fill="#E7EAEC"/>
</g>
</g>
<g id="Group_9">
<g id="Group_10">
<path id="Vector_5" d="M56.0757 68.0346L53.2022 58.1285C49.7993 57.1077 46.2452 59.1494 45.4134 62.6279L52.5594 70.0763C54.0718 71.5887 56.6806 70.1141 56.0757 68.0346Z" fill="#E7EAEC"/>
</g>
</g>
<g id="Group_11">
<g id="Group_12">
<path id="Vector_6" d="M66.2464 46.332L56.2269 43.8365C53.6181 46.2564 53.6181 50.3776 56.2269 52.8352L66.2464 50.3776C68.3638 49.8482 68.3638 46.8613 66.2464 46.332Z" fill="#E7EAEC"/>
</g>
</g>
<g id="Group_13">
<g id="Group_14">
<path id="Vector_7" d="M52.5594 26.6711L45.4134 34.1195C46.2074 37.598 49.7993 39.6397 53.2022 38.6189L56.0757 28.7128C56.6806 26.5955 54.0718 25.1209 52.5594 26.6711Z" fill="#E7EAEC"/>
</g>
</g>
<g id="Group_15">
<g id="Group_16">
<g id="Group_17">
<path id="Vector_8" d="M42.3887 28.1456C41.9728 28.1456 41.5569 27.9943 41.2544 27.654L31.1593 17.6723C30.5165 17.0296 30.5165 16.0087 31.1593 15.366C31.8021 14.7232 32.8229 14.7232 33.4657 15.366L42.4265 24.2134L51.3874 15.366C52.0301 14.7232 53.0888 14.7232 53.6937 15.366C54.3365 16.0087 54.3365 17.0674 53.6937 17.6723L43.5986 27.654C43.2205 27.9565 42.8046 28.1456 42.3887 28.1456Z" fill="#E7EAEC"/>
</g>
</g>
<g id="Group_18">
<g id="Group_19">
<path id="Vector_9" d="M42.3887 16.16C41.9728 16.16 41.5569 16.0088 41.2544 15.6685L36.1123 10.6021C35.4696 9.9593 35.4696 8.93843 36.1123 8.29567C36.7551 7.65291 37.776 7.65291 38.4187 8.29567L42.3887 12.2279L46.3587 8.29567C47.0015 7.65291 48.0601 7.65291 48.6651 8.29567C49.3078 8.93843 49.3078 9.99711 48.6651 10.6021L43.523 15.6685C43.2205 16.0088 42.8046 16.16 42.3887 16.16Z" fill="#E7EAEC"/>
</g>
</g>
</g>
<g id="Group_20">
<g id="Group_21">
<g id="Group_22">
<path id="Vector_10" d="M9.75913 42.8535C9.04075 42.8535 8.36019 42.362 8.17115 41.6436C7.94429 40.774 8.43581 39.8666 9.30543 39.6397L21.4422 36.3125L18.2662 24.1379C18.0394 23.2682 18.5687 22.3608 19.4384 22.134C20.308 21.9071 21.2154 22.4364 21.4422 23.306L25.0341 37.0309C25.261 37.9005 24.7317 38.8079 23.8999 39.0348L10.2128 42.8157C10.0238 42.8157 9.87255 42.8535 9.75913 42.8535Z" fill="#E7EAEC"/>
</g>
</g>
<g id="Group_23">
<g id="Group_24">
<path id="Vector_11" d="M6.12943 34.9891C5.41105 34.9891 4.73048 34.4976 4.54143 33.7792C4.31457 32.9096 4.80609 32.0021 5.67571 31.7753L11.0447 30.3007L9.6457 24.894C9.41885 24.0243 9.94819 23.1169 10.8178 22.8901C11.6874 22.6632 12.5948 23.1925 12.8217 24.0621L14.6366 31.0191C14.8634 31.8887 14.3341 32.7961 13.5023 33.023L6.54532 34.9513C6.4319 34.9891 6.28067 34.9891 6.12943 34.9891Z" fill="#E7EAEC"/>
</g>
</g>
</g>
<g id="Group_25">
<g id="Group_26">
<g id="Group_27">
<path id="Vector_12" d="M19.8543 74.6892C19.703 74.6892 19.5896 74.6891 19.4384 74.6513C18.5688 74.4245 18.0394 73.5171 18.2663 72.6474L21.4423 60.4728L9.30545 57.1456C8.43584 56.9187 7.9065 56.0113 8.17117 55.1417C8.39803 54.2721 9.30545 53.7427 10.1751 54.0074L23.8621 57.7883C24.7317 58.0152 25.2232 58.9226 25.0342 59.7922L21.4423 73.5171C21.2532 74.1976 20.5727 74.6892 19.8543 74.6892Z" fill="#E7EAEC"/>
</g>
</g>
<g id="Group_28">
<g id="Group_29">
<path id="Vector_13" d="M11.2715 73.8951C11.1203 73.8951 11.0069 73.8951 10.8556 73.8573C9.98601 73.6305 9.45669 72.7231 9.68355 71.8534L11.0825 66.4467L5.71356 64.9721C4.84394 64.7453 4.31461 63.8378 4.57927 62.9682C4.80613 62.0986 5.71355 61.5693 6.58317 61.8339L13.5401 63.7622C14.4097 63.9891 14.9012 64.8965 14.6744 65.7661L12.8595 72.723C12.6705 73.4036 11.9899 73.8951 11.2715 73.8951Z" fill="#E7EAEC"/>
</g>
</g>
</g>
<g id="Group_30">
<g id="Group_31">
<g id="Group_32">
<path id="Vector_14" d="M52.4838 81.835C52.0679 81.835 51.652 81.6838 51.3495 81.3435L42.3887 72.4961L33.4279 81.3435C32.7851 81.9863 31.7264 81.9863 31.1215 81.3435C30.4787 80.7007 30.4787 79.6421 31.1215 79.0371L41.2166 69.0554C41.8594 68.4127 42.8802 68.4127 43.523 69.0554L53.6181 79.0371C54.2608 79.6799 54.2608 80.7007 53.6181 81.3435C53.3534 81.6838 52.9375 81.835 52.4838 81.835Z" fill="#E7EAEC"/>
</g>
</g>
<g id="Group_33">
<g id="Group_34">
<path id="Vector_15" d="M47.5308 88.9054C47.1149 88.9054 46.699 88.7542 46.3587 88.4139L42.3887 84.4817L38.4187 88.4139C37.7759 89.0566 36.7173 89.0566 36.1123 88.4139C35.4696 87.7711 35.4696 86.7125 36.1123 86.1075L41.2544 81.041C41.8972 80.3983 42.918 80.3983 43.5608 81.041L48.6651 86.0697C49.3078 86.7125 49.3078 87.7333 48.6651 88.3761C48.3626 88.7164 47.9467 88.9054 47.5308 88.9054Z" fill="#E7EAEC"/>
</g>
</g>
</g>
<g id="Group_35">
<g id="Group_36">
<g id="Group_37">
<path id="Vector_16" d="M64.9231 74.6513C64.2047 74.6513 63.5242 74.1598 63.3351 73.4414L59.7432 59.7166C59.5164 58.847 60.0457 57.9395 60.8775 57.7127L74.5645 53.9317C75.4341 53.7049 76.3416 54.1964 76.5684 55.066C76.7953 55.9356 76.3038 56.8431 75.4342 57.0699L63.2973 60.3971L66.4733 72.5718C66.7002 73.4414 66.1708 74.3488 65.3012 74.5757C65.1878 74.6513 65.0365 74.6513 64.9231 74.6513Z" fill="#E7EAEC"/>
</g>
</g>
<g id="Group_38">
<g id="Group_39">
<path id="Vector_17" d="M73.5058 73.895C72.7874 73.895 72.1069 73.4035 71.9179 72.6851L70.103 65.7282C69.8761 64.8586 70.4055 63.9511 71.2751 63.7243L78.232 61.796C79.1016 61.5691 80.0091 62.0607 80.2359 62.9303C80.4628 63.7999 79.9713 64.7073 79.1016 64.9342L73.7327 66.4088L75.1317 71.8155C75.3585 72.6851 74.8292 73.5925 73.9596 73.8194C73.7705 73.8572 73.6571 73.895 73.5058 73.895Z" fill="#E7EAEC"/>
</g>
</g>
</g>
<g id="Group_40">
<g id="Group_41">
<g id="Group_42">
<g id="Group_43">
<path id="Vector_18" d="M43.3339 0.128866C42.3887 -0.1358 41.3678 0.0154377 40.536 0.50696C38.759 1.52782 38.154 3.79637 39.1749 5.57341C39.8555 6.7455 41.1032 7.42608 42.3887 7.42608C43.0315 7.42608 43.6364 7.27485 44.2413 6.93456C46.0184 5.91371 46.6234 3.64513 45.6025 1.86809C45.0732 0.998474 44.2792 0.355723 43.3339 0.128866Z" fill="#E7EAEC"/>
</g>
</g>
<g id="Group_44">
<g id="Group_45">
<path id="Vector_19" d="M3.70963 22.323C1.66792 22.323 0.00431061 23.9866 0.00431061 26.0283C0.00431061 28.07 1.66792 29.7336 3.70963 29.7336C5.75134 29.7336 7.41497 28.07 7.41497 26.0283C7.41497 23.9866 5.75134 22.323 3.70963 22.323Z" fill="#E7EAEC"/>
</g>
</g>
<g id="Group_46">
<g id="Group_47">
<path id="Vector_20" d="M5.56229 67.4675C3.78525 66.4466 1.51667 67.0516 0.49582 68.8286C-0.525035 70.6057 0.0799302 72.8742 1.85697 73.8951C2.42412 74.2354 3.06686 74.3866 3.70962 74.3866C4.0121 74.3866 4.35238 74.3488 4.65486 74.2732C5.60009 74.0085 6.3941 73.4036 6.88562 72.534C7.37715 71.6643 7.52838 70.6813 7.26372 69.736C7.03686 68.7908 6.3941 67.959 5.56229 67.4675Z" fill="#E7EAEC"/>
</g>
</g>
<g id="Group_48">
<g id="Group_49">
<path id="Vector_21" d="M40.536 89.8128C39.6664 90.3044 39.0615 91.0984 38.7968 92.0436C38.5321 92.9888 38.6834 94.0097 39.1749 94.8415C39.8555 96.0136 41.1032 96.6941 42.3887 96.6941C43.0315 96.6941 43.6364 96.5429 44.2414 96.2026C46.0184 95.1818 46.6234 92.9132 45.6025 91.1362C44.5817 89.3969 42.3131 88.792 40.536 89.8128Z" fill="#E7EAEC"/>
</g>
</g>
<g id="Group_50">
<g id="Group_51">
<path id="Vector_22" d="M81.0677 66.976C79.026 66.976 77.3624 68.6396 77.3624 70.6813C77.3624 72.723 79.026 74.3866 81.0677 74.3866C83.1094 74.3866 84.7731 72.723 84.7731 70.6813C84.7731 68.6396 83.1094 66.976 81.0677 66.976Z" fill="#E7EAEC"/>
</g>
</g>
<g id="Group_52">
<g id="Group_53">
<path id="Vector_23" d="M79.2151 29.2421C79.7823 29.5824 80.425 29.7337 81.0677 29.7337C82.3533 29.7337 83.601 29.0531 84.2815 27.881C85.3024 26.1039 84.6975 23.8354 82.9204 22.8145C81.1434 21.7937 78.8748 22.3986 77.8539 24.1757C76.8331 25.9527 77.4381 28.2213 79.2151 29.2421Z" fill="#E7EAEC"/>
</g>
</g>
</g>
<g id="Group_54">
<g id="Group_55">
<path id="Vector_24" d="M75.0182 42.8156C74.867 42.8156 74.7158 42.7779 74.5645 42.74L60.8775 38.9591C60.0079 38.7322 59.5164 37.8248 59.7432 36.9552L63.3351 23.2304C63.562 22.3607 64.4694 21.8314 65.339 22.0583C66.2086 22.2851 66.738 23.1926 66.5111 24.0622L63.3351 36.2368L75.472 39.564C76.3416 39.7909 76.8709 40.6983 76.6062 41.5679C76.3794 42.3241 75.7366 42.8156 75.0182 42.8156Z" fill="#E7EAEC"/>
</g>
</g>
<g id="Group_56">
<g id="Group_57">
<path id="Vector_25" d="M78.6101 34.9891C78.4589 34.9891 78.3077 34.9513 78.1564 34.9134L71.1995 32.9851C70.3299 32.7583 69.8005 31.8509 70.0274 30.9813L71.8422 24.0243C72.0691 23.1547 72.9765 22.6254 73.8461 22.8522C74.7158 23.0791 75.2451 23.9865 75.0182 24.8561L73.6193 30.2629L78.9882 31.7374C79.8578 31.9643 80.3872 32.8717 80.1225 33.7413C80.0091 34.4975 79.3285 34.9891 78.6101 34.9891Z" fill="#E7EAEC"/>
</g>
</g>
</g>
<g id="Group_58">
<g id="Group_59">
<path id="Vector_26" d="M37.5113 47.2016C37.2466 47.2016 36.9441 47.1259 36.6794 46.9747L22.5765 38.8457C21.7825 38.392 21.5179 37.3711 21.9716 36.6149C22.4253 35.8209 23.4083 35.5563 24.2023 36.01L38.3052 44.139C39.0992 44.5927 39.3639 45.6136 38.9102 46.3698C38.6455 46.8991 38.0784 47.2016 37.5113 47.2016Z" fill="#E7EAEC"/>
</g>
</g>
<g id="Group_60">
<g id="Group_61">
<path id="Vector_27" d="M23.4462 60.9264C22.879 60.9264 22.3119 60.6239 22.0094 60.0946C21.5557 59.3006 21.8204 58.3176 22.6144 57.8639L36.6795 49.7348C37.4735 49.2811 38.4565 49.5458 38.9102 50.3398C39.364 51.1338 39.0993 52.1168 38.3053 52.5705L24.278 60.7374C24.0133 60.8886 23.7108 60.9264 23.4462 60.9264Z" fill="#E7EAEC"/>
</g>
</g>
<g id="Group_62">
<g id="Group_63">
<path id="Vector_28" d="M42.3888 71.8533C41.4813 71.8533 40.7629 71.1349 40.7629 70.2275V53.9694C40.7629 53.062 41.4813 52.3436 42.3888 52.3436C43.2962 52.3436 44.0146 53.062 44.0146 53.9694V70.2275C44.0146 71.1349 43.2962 71.8533 42.3888 71.8533Z" fill="#E7EAEC"/>
</g>
</g>
<g id="Group_64">
<g id="Group_65">
<path id="Vector_29" d="M61.3312 60.9264C61.0665 60.9264 60.7641 60.8508 60.4994 60.6996L46.3965 52.5705C45.6025 52.1168 45.3378 51.096 45.7915 50.3398C46.2452 49.5458 47.2661 49.2811 48.0223 49.7348L62.1252 57.8639C62.9192 58.3176 63.1839 59.3384 62.7302 60.0946C62.4277 60.6239 61.8983 60.9264 61.3312 60.9264Z" fill="#E7EAEC"/>
</g>
</g>
<g id="Group_66">
<g id="Group_67">
<path id="Vector_30" d="M47.2283 47.2016C46.6611 47.2016 46.094 46.8991 45.7915 46.3698C45.3378 45.5758 45.6025 44.5927 46.3965 44.139L60.4616 36.01C61.2556 35.5563 62.2386 35.8209 62.6923 36.6149C63.146 37.4089 62.8814 38.392 62.0874 38.8457L48.0223 46.9747C47.7954 47.1259 47.5308 47.2016 47.2283 47.2016Z" fill="#E7EAEC"/>
</g>
</g>
<g id="Group_68">
<g id="Group_69">
<path id="Vector_31" d="M42.3888 44.4037C41.4813 44.4037 40.7629 43.6853 40.7629 42.7779V26.5198C40.7629 25.6124 41.4813 24.894 42.3888 24.894C43.2962 24.894 44.0146 25.6124 44.0146 26.5198V42.7779C44.0146 43.6475 43.2962 44.4037 42.3888 44.4037Z" fill="#E7EAEC"/>
</g>
</g>
</g>
</svg>
