<svg width="240" height="274" viewBox="0 0 240 274" fill="none" xmlns="http://www.w3.org/2000/svg">
<path d="M120.285 122.8C117.885 122.8 115.985 120.9 115.985 118.5V4.3C115.985 1.9 117.885 0 120.285 0C122.685 0 124.585 1.9 124.585 4.3V118.5C124.685 120.8 122.685 122.8 120.285 122.8Z" fill="white"/>
<path d="M119.985 86C118.885 86 117.785 85.6001 116.885 84.7001L78.9853 46.8C77.2853 45.1 77.2853 42.4 78.9853 40.7C80.6853 39 83.3853 39 85.0853 40.7L119.885 75.5L153.985 41.4C155.685 39.7 158.385 39.7 160.085 41.4C161.785 43.1 161.785 45.8 160.085 47.5L122.985 84.6C122.185 85.6 121.085 86 119.985 86Z" fill="white"/>
<path d="M119.785 46.8C118.685 46.8 117.585 46.4 116.685 45.5L97.8853 26.7C96.1853 25 96.1853 22.3 97.8853 20.6C99.5853 18.9 102.285 18.9 103.985 20.6L119.685 36.3L135.985 20C137.685 18.3 140.385 18.3 142.085 20C143.785 21.7 143.785 24.4 142.085 26.1L122.785 45.4C121.985 46.3 120.885 46.8 119.785 46.8Z" fill="white"/>
<path d="M103.985 131.3C103.285 131.3 102.485 131.1 101.785 130.7L2.88526 73.6C0.785255 72.4 0.0852492 69.7 1.28525 67.7C2.48525 65.6 5.18526 64.9 7.18526 66.1L106.085 123.2C108.185 124.4 108.885 127.1 107.685 129.1C106.985 130.5 105.485 131.3 103.985 131.3Z" fill="white"/>
<path d="M20.2852 127.1C18.3852 127.1 16.5853 125.8 16.0853 123.9C15.4853 121.6 16.8853 119.2 19.1853 118.6L66.6853 105.9L54.1853 59.4C53.5853 57.1 54.9852 54.7 57.2852 54.1C59.5852 53.5 61.9853 54.9 62.5853 57.2L76.1853 107.9C76.4853 109 76.2852 110.2 75.7852 111.2C75.1852 112.2 74.2853 112.9 73.1853 113.2L21.4852 127.1C20.9852 127.1 20.6852 127.1 20.2852 127.1Z" fill="white"/>
<path d="M12.2852 100.7C10.3852 100.7 8.58525 99.3999 8.08525 97.4999C7.48525 95.1999 8.88526 92.8 11.1853 92.2L32.6853 86.4L26.6853 64.2C26.0853 61.9 27.4852 59.5 29.7852 58.9C32.0852 58.3 34.4853 59.6999 35.0853 61.9999L42.1853 88.4C42.4853 89.5 42.2852 90.7 41.7852 91.7C41.1852 92.7 40.2853 93.4 39.1853 93.7L13.4852 100.6C12.9852 100.6 12.5852 100.7 12.2852 100.7Z" fill="white"/>
<path d="M4.38527 206.8C2.88527 206.8 1.38527 206 0.585268 204.6C-0.614733 202.5 0.0852737 199.9 2.18527 198.7L101.085 141.6C103.185 140.4 105.785 141.1 106.985 143.2C108.185 145.3 107.485 147.9 105.385 149.1L6.58527 206.2C5.88527 206.6 5.18527 206.8 4.38527 206.8Z" fill="white"/>
<path d="M57.7853 220.1C57.3853 220.1 56.9853 220.1 56.6853 220C54.3853 219.4 52.9853 217 53.5853 214.7L66.2853 167.2L19.7853 154.7C17.4853 154.1 16.0853 151.7 16.6853 149.4C17.2853 147.1 19.6853 145.7 21.9853 146.3L72.6853 159.9C74.9853 160.5 76.3853 162.9 75.7853 165.2L61.8853 216.9C61.4853 218.8 59.6853 220.1 57.7853 220.1Z" fill="white"/>
<path d="M30.8853 213.9C30.4853 213.9 30.0853 213.9 29.7853 213.8C27.4853 213.2 26.0853 210.8 26.6853 208.5L32.4853 187L10.2853 181C7.98528 180.4 6.58529 178 7.18529 175.7C7.78529 173.4 10.1853 172 12.4853 172.6L38.8853 179.7C41.1853 180.3 42.5853 182.7 41.9853 185L35.0853 210.7C34.4853 212.6 32.7853 213.9 30.8853 213.9Z" fill="white"/>
<path d="M118.785 273.7C116.385 273.7 114.485 271.8 114.485 269.4V155.2C114.485 152.8 116.385 150.9 118.785 150.9C121.185 150.9 123.085 152.8 123.085 155.2V269.4C123.185 271.7 121.185 273.7 118.785 273.7Z" fill="white"/>
<path d="M157.085 234.1C155.985 234.1 154.885 233.7 153.985 232.8L119.185 198.1L85.1853 232.1C83.4853 233.8 80.7853 233.8 79.0853 232.1C77.3853 230.4 77.3853 227.7 79.0853 226L116.185 188.9C117.885 187.2 120.585 187.2 122.285 188.9L160.185 226.8C161.885 228.5 161.885 231.2 160.185 232.9C159.285 233.7 158.185 234.1 157.085 234.1Z" fill="white"/>
<path d="M99.9853 254.9C98.8853 254.9 97.7853 254.5 96.8853 253.6C95.1853 251.9 95.1853 249.2 96.8853 247.5L116.185 228.2C117.785 226.6 120.685 226.6 122.285 228.2L141.085 247C142.785 248.7 142.785 251.4 141.085 253.1C139.385 254.8 136.685 254.8 134.985 253.1L119.285 237.4L102.985 253.7C102.285 254.5 101.085 254.9 99.9853 254.9Z" fill="white"/>
<path d="M233.985 208.1C233.285 208.1 232.485 207.9 231.785 207.5L132.885 150.4C130.785 149.2 130.085 146.5 131.285 144.5C132.485 142.4 135.185 141.7 137.185 142.9L236.085 200C238.185 201.2 238.885 203.9 237.685 205.9C236.885 207.3 235.485 208.1 233.985 208.1Z" fill="white"/>
<path d="M180.685 219.8C178.785 219.8 176.985 218.5 176.485 216.6L162.885 165.9C162.585 164.8 162.785 163.6 163.285 162.6C163.885 161.6 164.785 160.9 165.885 160.6L217.585 146.7C219.885 146.1 222.285 147.5 222.885 149.8C223.485 152.1 222.085 154.5 219.785 155.1L172.285 167.8L184.785 214.3C185.385 216.6 183.985 219 181.685 219.6C181.485 219.7 181.085 219.8 180.685 219.8Z" fill="white"/>
<path d="M208.285 214.9C206.385 214.9 204.585 213.6 204.085 211.7L196.985 185.3C196.385 183 197.785 180.6 200.085 180L225.785 173.1C228.085 172.5 230.485 173.9 231.085 176.2C231.685 178.5 230.285 180.9 227.985 181.5L206.485 187.3L212.485 209.5C213.085 211.8 211.685 214.2 209.385 214.8C208.985 214.9 208.685 214.9 208.285 214.9Z" fill="white"/>
<path d="M135.885 132.6C134.385 132.6 132.885 131.8 132.085 130.4C130.885 128.3 131.585 125.7 133.685 124.5L232.585 67.3999C234.685 66.1999 237.285 66.8999 238.485 68.9999C239.685 71.0999 238.985 73.6999 236.885 74.8999L137.985 132C137.385 132.4 136.585 132.6 135.885 132.6Z" fill="white"/>
<path d="M218.185 127.5C217.785 127.5 217.385 127.5 217.085 127.4L166.385 113.8C164.085 113.2 162.685 110.8 163.285 108.5L177.185 56.8C177.785 54.5 180.185 53.1 182.485 53.7C184.785 54.3 186.185 56.7 185.585 59L172.885 106.5L219.385 119C221.685 119.6 223.085 122 222.485 124.3C221.885 126.2 220.085 127.5 218.185 127.5Z" fill="white"/>
<path d="M227.785 101.2C227.385 101.2 226.985 101.2 226.685 101.1L200.285 94C199.185 93.7 198.185 93 197.685 92C197.085 91 196.985 89.8 197.285 88.7L204.185 63C204.785 60.7 207.185 59.3 209.485 59.9C211.785 60.5 213.185 62.9 212.585 65.2L206.785 86.7L228.985 92.7C231.285 93.3 232.685 95.7 232.085 98C231.485 99.9 229.785 101.2 227.785 101.2Z" fill="white"/>
<path d="M119.585 159.5C107.085 159.5 96.8853 149.3 96.8853 136.8C96.8853 124.3 107.085 114.1 119.585 114.1C132.085 114.1 142.285 124.3 142.285 136.8C142.285 149.3 132.085 159.5 119.585 159.5ZM119.585 122.8C111.885 122.8 105.585 129.1 105.585 136.8C105.585 144.5 111.885 150.8 119.585 150.8C127.285 150.8 133.585 144.5 133.585 136.8C133.585 129.1 127.285 122.8 119.585 122.8Z" fill="white"/>
<path d="M103.085 86.5L87.7852 71.5C86.3852 70.1 84.2852 69.9 82.5852 70.8C80.8852 71.7 80.0852 73.7 80.4852 75.6L85.6852 97.5C85.9852 98.6 86.6852 99.6 87.6852 100.2L97.8852 106.2C98.5852 106.6 99.3852 106.8 100.085 106.8C100.785 106.8 101.585 106.6 102.285 106.2C103.685 105.4 104.485 104 104.485 102.4L104.385 89.5C104.385 88.5 103.985 87.4 103.085 86.5Z" fill="white"/>
<path d="M84.5853 136.5C84.5853 134.9 83.7853 133.5 82.3853 132.7L71.0853 126.3C70.0853 125.7 68.8852 125.6 67.7852 125.9L47.0853 131.6C45.1853 132.1 43.8853 133.8 43.8853 135.7C43.8853 137.6 45.0852 139.3 46.9852 139.9L68.5853 146.4C68.9853 146.5 69.3852 146.6 69.7852 146.6C70.4852 146.6 71.2853 146.4 71.8853 146L82.1853 140.2C83.6853 139.5 84.5853 138.1 84.5853 136.5Z" fill="white"/>
<path d="M101.785 167C100.385 166.2 98.7853 166.2 97.3853 167L86.1853 173.6C85.1853 174.2 84.4853 175.1 84.1853 176.3L78.7853 197C78.2853 198.9 79.0853 200.8 80.7853 201.8C81.4853 202.2 82.1853 202.4 82.9853 202.4C84.0853 202.4 85.1853 202 85.9853 201.2L102.385 185.7C103.285 184.9 103.685 183.8 103.785 182.6L103.885 170.8C103.985 169.2 103.185 167.7 101.785 167Z" fill="white"/>
<path d="M153.385 176.1C153.085 175 152.385 174 151.385 173.4L141.185 167.4C139.885 166.6 138.185 166.6 136.785 167.4C135.385 168.2 134.585 169.6 134.585 171.2L134.685 184.1C134.685 185.3 135.185 186.4 135.985 187.2L151.285 202.2C152.085 203 153.185 203.4 154.285 203.4C154.985 203.4 155.785 203.2 156.385 202.8C158.085 201.9 158.885 199.9 158.485 198L153.385 176.1Z" fill="white"/>
<path d="M192.085 133.7L170.485 127.2C169.385 126.9 168.185 127 167.085 127.6L156.785 133.4C155.385 134.2 154.585 135.6 154.585 137.2C154.585 138.8 155.385 140.2 156.785 141L168.085 147.4C168.785 147.8 169.485 148 170.185 148C170.585 148 170.985 147.9 171.385 147.8L192.085 142.1C193.985 141.6 195.285 139.9 195.285 138C195.185 135.9 193.885 134.2 192.085 133.7Z" fill="white"/>
<path d="M137.385 106.7C138.085 107.1 138.785 107.3 139.585 107.3C140.385 107.3 141.085 107.1 141.785 106.7L152.985 100.1C153.985 99.5 154.685 98.6001 154.985 97.4001L160.385 76.7001C160.885 74.8001 160.085 72.9001 158.385 71.9001C156.685 70.9001 154.585 71.2 153.185 72.5L136.785 88C135.885 88.8 135.485 89.9 135.385 91.1L135.285 102.9C135.185 104.4 135.985 105.9 137.385 106.7Z" fill="white"/>
</svg>
