<svg width="159" height="163" viewBox="0 0 159 163" fill="none" xmlns="http://www.w3.org/2000/svg">
<g id="Group">
<g id="Group_2">
<g id="Group_3">
<g id="Group_4">
<path id="Vector" d="M79.4738 89.3665C78.6106 89.3665 77.6811 89.2337 76.818 89.0345C74.1622 88.3041 71.9712 86.6443 70.5769 84.2541C67.7884 79.3409 69.4483 73.0999 74.295 70.3113C76.6852 68.9171 79.4073 68.5851 82.0631 69.3154C84.7189 70.0458 86.9099 71.7056 88.3042 74.0958C89.6984 76.486 90.0304 79.2081 89.3001 81.8639C88.5697 84.5197 86.9099 86.7107 84.5197 88.1049C82.9926 88.9017 81.2664 89.3665 79.4738 89.3665ZM75.6229 81.3327C76.2205 82.395 77.15 83.1254 78.3451 83.391C79.4738 83.723 80.6688 83.5238 81.7311 82.9262C82.7934 82.3287 83.5238 81.3991 83.7894 80.204C84.1213 79.0753 83.9222 77.8803 83.3246 76.8179C82.7271 75.7556 81.7976 75.0253 80.6025 74.7597C79.4738 74.4278 78.2786 74.6269 77.2163 75.2245C75.0917 76.486 74.3614 79.2081 75.6229 81.3327Z" fill="#E7EAEC"/>
</g>
</g>
</g>
<g id="Group_5">
<g id="Group_6">
<g id="Group_7">
<path id="Vector_2" d="M79.5402 35.4545C80.4033 35.4545 81.2 34.9233 81.532 34.0602L87.7066 18.524C87.9058 17.9928 87.9058 17.4617 87.7066 16.9305L81.532 1.39428C81.2 0.597551 80.4033 0 79.5402 0C78.677 0 77.8803 0.531157 77.5483 1.39428L71.3737 16.9305C71.1745 17.4617 71.1745 17.9928 71.3737 18.524L77.5483 34.0602C77.8803 34.9233 78.677 35.4545 79.5402 35.4545Z" fill="#E7EAEC"/>
</g>
</g>
<g id="Group_8">
<g id="Group_9">
<path id="Vector_3" d="M21.6445 57.763L38.243 60.2195C38.3758 60.2195 38.4422 60.2195 38.575 60.2195C39.3717 60.2195 40.0357 59.8212 40.434 59.1573C40.8988 58.3605 40.8324 57.431 40.2348 56.767L29.8773 43.621C29.5454 43.1563 29.0142 42.8907 28.4831 42.8243L11.8845 40.3677C11.0214 40.2349 10.1583 40.6333 9.69354 41.43C9.22878 42.2268 9.29517 43.1563 9.89272 43.8202L20.2502 56.9662C20.5822 57.431 21.0469 57.6966 21.6445 57.763Z" fill="#E7EAEC"/>
</g>
</g>
<g id="Group_10">
<g id="Group_11">
<path id="Vector_4" d="M39.1061 103.84L22.5076 106.297C21.9765 106.363 21.4453 106.695 21.1133 107.094L10.7558 120.24C10.2247 120.904 10.1583 121.9 10.5567 122.63C10.955 123.294 11.6854 123.692 12.4157 123.692C12.5485 123.692 12.6149 123.692 12.7477 123.692L29.3462 121.236C29.8774 121.169 30.4085 120.837 30.7405 120.439L41.098 107.293C41.6291 106.629 41.6955 105.633 41.2971 104.903C40.8988 104.106 39.9693 103.708 39.1061 103.84Z" fill="#E7EAEC"/>
</g>
</g>
<g id="Group_12">
<g id="Group_13">
<path id="Vector_5" d="M83.391 128.34C83.059 127.543 82.2623 126.946 81.3992 126.946C80.5361 126.946 79.7393 127.477 79.4074 128.34L73.2327 143.876C73.0335 144.407 73.0335 144.938 73.2327 145.47L79.4074 161.006C79.7393 161.802 80.5361 162.4 81.3992 162.4C82.2623 162.4 83.059 161.869 83.391 161.006L89.5657 145.47C89.7649 144.938 89.7649 144.407 89.5657 143.876L83.391 128.34Z" fill="#E7EAEC"/>
</g>
</g>
<g id="Group_14">
<g id="Group_15">
<path id="Vector_6" d="M151.113 118.58L140.756 105.434C140.424 104.969 139.892 104.704 139.361 104.637L122.763 102.181C121.9 102.048 121.036 102.446 120.572 103.243C120.107 104.04 120.173 104.969 120.771 105.633L131.128 118.779C131.46 119.244 131.991 119.509 132.523 119.576L149.121 122.032C149.254 122.032 149.32 122.032 149.453 122.032C150.25 122.032 150.914 121.634 151.312 120.97C151.711 120.24 151.644 119.31 151.113 118.58Z" fill="#E7EAEC"/>
</g>
</g>
<g id="Group_16">
<g id="Group_17">
<path id="Vector_7" d="M121.833 58.5595L138.432 56.1029C138.963 56.0365 139.494 55.7046 139.826 55.3062L150.183 42.1602C150.715 41.4962 150.781 40.5003 150.383 39.77C149.918 38.9733 149.055 38.5749 148.192 38.7077L131.593 41.1642C131.062 41.2306 130.531 41.5626 130.199 41.961L119.841 55.107C119.31 55.771 119.244 56.7669 119.642 57.4972C120.041 58.1612 120.771 58.5595 121.501 58.5595C121.634 58.6259 121.7 58.6259 121.833 58.5595Z" fill="#E7EAEC"/>
</g>
</g>
</g>
<g id="Group_18">
<g id="Group_19">
<g id="Group_20">
<path id="Vector_8" d="M79.4738 53.5137C77.8803 53.5137 76.6188 52.2522 76.6188 50.6587C76.6188 47.2726 73.8967 44.5505 70.5106 44.5505C69.1163 44.5505 67.722 45.0152 66.6597 45.9448C65.3982 46.9407 63.6056 46.7415 62.6097 45.5464C61.6137 44.2849 61.8129 42.4923 63.008 41.4963C65.1327 39.7701 67.7884 38.8406 70.5106 38.8406C74.0958 38.8406 77.2828 40.434 79.4738 42.957C81.6648 40.434 84.8517 38.8406 88.437 38.8406C91.1591 38.8406 93.8149 39.7701 95.9395 41.4963C97.201 42.4923 97.3338 44.3513 96.3379 45.5464C95.3419 46.8079 93.4829 46.9407 92.2878 45.9448C91.1591 45.0152 89.8313 44.5505 88.437 44.5505C85.0509 44.5505 82.3287 47.2726 82.3287 50.6587C82.3951 52.1858 81.0672 53.5137 79.4738 53.5137Z" fill="#E7EAEC"/>
</g>
</g>
<g id="Group_21">
<g id="Group_22">
<path id="Vector_9" d="M79.4738 63.9376C77.8803 63.9376 76.6188 62.6761 76.6188 61.0827V50.5924C76.6188 48.999 77.8803 47.7375 79.4738 47.7375C81.0672 47.7375 82.3287 48.999 82.3287 50.5924V61.0827C82.3951 62.6761 81.0672 63.9376 79.4738 63.9376Z" fill="#E7EAEC"/>
</g>
</g>
</g>
<g id="Group_23">
<g id="Group_24">
<g id="Group_25">
<path id="Vector_10" d="M41.4299 76.9509C40.0357 76.9509 38.8405 75.9549 38.5749 74.5607C38.1102 71.8385 38.6414 69.1163 40.0356 66.7262C41.6291 64.004 44.1521 62.0122 47.2062 61.2155C47.4718 61.1491 47.7374 61.0827 48.0693 61.0163C48.0029 60.7507 47.8701 60.4851 47.8037 60.1532C47.007 57.099 47.4054 53.9121 48.9988 51.1235C50.3931 48.7334 52.5177 46.9407 55.0407 45.9448C56.5014 45.3473 58.1612 46.144 58.7588 47.6047C59.2899 49.0653 58.5596 50.7252 57.0989 51.3227C55.771 51.8539 54.7087 52.717 53.9784 53.9785C52.3185 56.8998 53.3145 60.6179 56.2358 62.2777C57.1653 62.8089 57.6965 63.8048 57.6965 64.8008C57.6965 65.2655 57.5637 65.7966 57.2981 66.2614C56.5014 67.6557 54.7088 68.1205 53.3809 67.3237C50.4595 65.6639 46.7415 66.6598 45.0816 69.5811C44.3513 70.8426 44.0857 72.2369 44.3512 73.6312C44.6168 75.2246 43.5545 76.6853 41.9611 76.9509C41.7619 76.9509 41.6291 76.9509 41.4299 76.9509Z" fill="#E7EAEC"/>
</g>
</g>
<g id="Group_26">
<g id="Group_27">
<path id="Vector_11" d="M63.8711 72.9671C63.4064 72.9671 62.8752 72.8343 62.4105 72.5687L53.3145 67.3236C51.9202 66.5269 51.4554 64.7342 52.2522 63.4064C53.0489 62.0121 54.8415 61.5473 56.1694 62.3441L65.2654 67.5892C66.6597 68.3859 67.1245 70.1786 66.3277 71.5065C65.863 72.436 64.867 72.9671 63.8711 72.9671Z" fill="#E7EAEC"/>
</g>
</g>
</g>
<g id="Group_28">
<g id="Group_29">
<g id="Group_30">
<path id="Vector_12" d="M56.103 112.405C55.7711 112.405 55.4391 112.339 55.1071 112.206C52.5841 111.21 50.3931 109.417 49.0653 107.027C47.4718 104.305 47.0734 101.118 47.8701 97.9977C47.9365 97.7321 48.0029 97.4665 48.1357 97.1346C44.8824 96.537 41.8947 94.5452 40.1021 91.4247C38.7078 89.0345 38.243 86.2459 38.6414 83.5902C38.907 81.9967 40.3676 80.9344 41.9611 81.2C43.5545 81.4655 44.6168 82.9262 44.3513 84.5197C44.1521 85.914 44.3513 87.3083 45.0816 88.5697C46.7415 91.4911 50.5259 92.487 53.3809 90.8271C54.7752 90.0304 56.5014 90.4952 57.2981 91.8894C57.5637 92.3542 57.6965 92.819 57.6965 93.3501C57.6965 94.346 57.1653 95.3419 56.2358 95.8731C54.8415 96.6698 53.8456 97.9977 53.3809 99.5911C52.9825 101.185 53.1817 102.778 53.9784 104.239C54.7087 105.5 55.7711 106.363 57.0989 106.895C58.5596 107.426 59.3563 109.152 58.7588 110.613C58.3604 111.675 57.2981 112.405 56.103 112.405Z" fill="#E7EAEC"/>
</g>
</g>
<g id="Group_31">
<g id="Group_32">
<path id="Vector_13" d="M54.8415 96.2051C53.8456 96.2051 52.8497 95.6739 52.3186 94.7444C51.5218 93.3502 51.9866 91.6239 53.3809 90.8272L62.4769 85.582C63.8711 84.7853 65.5974 85.2501 66.3941 86.6443C67.1909 88.0386 66.7261 89.7649 65.3318 90.5616L56.2358 95.8067C55.7711 96.0723 55.3063 96.2051 54.8415 96.2051Z" fill="#E7EAEC"/>
</g>
</g>
</g>
<g id="Group_33">
<g id="Group_34">
<g id="Group_35">
<path id="Vector_14" d="M88.437 119.443C84.8517 119.443 81.6648 117.85 79.4738 115.327C77.2828 117.85 74.0958 119.443 70.5106 119.443C67.7884 119.443 65.1326 118.514 63.008 116.787C61.7465 115.791 61.6137 113.932 62.6096 112.737C63.6056 111.476 65.4646 111.343 66.6597 112.339C67.7884 113.268 69.1163 113.733 70.5106 113.733C73.8967 113.733 76.6188 111.011 76.6188 107.625C76.6188 106.031 77.8803 104.77 79.4738 104.77C81.0672 104.77 82.3287 106.031 82.3287 107.625C82.3287 111.011 85.0509 113.733 88.437 113.733C89.8313 113.733 91.2255 113.268 92.2878 112.339C93.5493 111.343 95.3419 111.542 96.3379 112.737C97.3338 113.999 97.1346 115.791 95.9395 116.787C93.8813 118.514 91.1591 119.443 88.437 119.443Z" fill="#E7EAEC"/>
</g>
</g>
<g id="Group_36">
<g id="Group_37">
<path id="Vector_15" d="M79.4738 110.48C77.8803 110.48 76.6188 109.218 76.6188 107.625V97.1346C76.6188 95.5411 77.8803 94.2797 79.4738 94.2797C81.0672 94.2797 82.3287 95.5411 82.3287 97.1346V107.625C82.3951 109.152 81.0672 110.48 79.4738 110.48Z" fill="#E7EAEC"/>
</g>
</g>
</g>
<g id="Group_38">
<g id="Group_39">
<g id="Group_40">
<path id="Vector_16" d="M102.845 112.405C101.649 112.405 100.587 111.675 100.122 110.546C99.5912 109.085 100.322 107.426 101.782 106.828C103.11 106.297 104.172 105.434 104.903 104.172C105.699 102.778 105.965 101.118 105.5 99.5247C105.036 97.9313 104.04 96.6698 102.645 95.8066C101.716 95.2755 101.185 94.2796 101.185 93.2837C101.185 92.8189 101.317 92.2878 101.583 91.823C102.38 90.4287 104.172 89.964 105.5 90.7607C108.422 92.4206 112.14 91.4246 113.8 88.5033C114.53 87.2418 114.795 85.8475 114.53 84.4533C114.264 82.8598 115.327 81.3991 116.92 81.1336C118.513 80.868 119.974 81.9303 120.24 83.5237C120.704 86.2459 120.173 88.9681 118.779 91.3583C116.986 94.4788 113.999 96.4706 110.745 97.0682C110.812 97.3337 110.945 97.5993 111.011 97.9313C111.808 100.985 111.409 104.172 109.816 106.961C108.422 109.351 106.297 111.144 103.774 112.14C103.508 112.339 103.176 112.405 102.845 112.405Z" fill="#E7EAEC"/>
</g>
</g>
<g id="Group_41">
<g id="Group_42">
<path id="Vector_17" d="M104.172 96.205C103.708 96.205 103.176 96.0722 102.712 95.8066L93.6157 90.5615C92.2214 89.7648 91.7567 87.9721 92.5534 86.6442C93.3501 85.2499 95.1427 84.7852 96.4706 85.5819L105.567 90.827C106.961 91.6238 107.426 93.4164 106.629 94.7443C106.098 95.7402 105.168 96.205 104.172 96.205Z" fill="#E7EAEC"/>
</g>
</g>
</g>
<g id="Group_43">
<g id="Group_44">
<g id="Group_45">
<path id="Vector_18" d="M117.518 76.9507C117.385 76.9507 117.186 76.9507 117.053 76.8843C115.459 76.6187 114.397 75.1581 114.663 73.5646C114.862 72.1703 114.663 70.7761 113.932 69.5146C113.136 68.1203 111.808 67.1244 110.214 66.6596C108.621 66.2613 107.027 66.4604 105.567 67.2572C104.172 68.0539 102.446 67.5891 101.649 66.1949C101.384 65.7301 101.251 65.2653 101.251 64.7342C101.251 63.7383 101.782 62.7424 102.712 62.2112C105.633 60.5514 106.629 56.7669 104.969 53.912C104.239 52.6505 103.176 51.7873 101.849 51.2562C100.388 50.725 99.5912 48.9988 100.189 47.5381C100.72 46.0775 102.38 45.2807 103.907 45.8783C106.43 46.8742 108.621 48.6668 109.949 51.057C111.741 54.1775 111.94 57.7628 110.878 60.8833C111.144 60.9497 111.476 61.0161 111.741 61.0825C114.795 61.8792 117.385 63.8711 118.912 66.5932C120.306 68.9834 120.771 71.772 120.373 74.4278C120.107 75.9548 118.912 76.9507 117.518 76.9507Z" fill="#E7EAEC"/>
</g>
</g>
<g id="Group_46">
<g id="Group_47">
<path id="Vector_19" d="M95.0764 72.967C94.0804 72.967 93.0845 72.4358 92.5534 71.5063C91.7567 70.1121 92.2214 68.3858 93.6157 67.5891L102.712 62.344C104.106 61.5472 105.832 62.012 106.629 63.4062C107.426 64.8005 106.961 66.5268 105.567 67.3235L96.4706 72.5686C96.0723 72.8342 95.6075 72.967 95.0764 72.967Z" fill="#E7EAEC"/>
</g>
</g>
</g>
<g id="Group_48">
<g id="Group_49">
<g id="Group_50">
<path id="Vector_20" d="M55.5719 40.8323C54.576 40.8323 53.5801 40.3012 53.0489 39.3716L38.575 14.2747C37.7783 12.8804 38.243 11.1542 39.6373 10.3574C41.0316 9.56071 42.7578 10.0255 43.5545 11.4197L58.0285 36.5167C58.8252 37.911 58.3604 39.6372 56.9662 40.434C56.5678 40.6996 56.0367 40.8323 55.5719 40.8323Z" fill="#E7EAEC"/>
</g>
</g>
<g id="Group_51">
<g id="Group_52">
<path id="Vector_21" d="M52.053 34.5914C51.7874 34.5914 51.5882 34.5913 51.3226 34.5249L38.8406 31.2052C37.3135 30.8069 36.384 29.2134 36.7824 27.6864C37.1807 26.1593 38.7742 25.2298 40.3012 25.6282L49.9948 28.2175L52.6505 18.192C53.0489 16.6649 54.6423 15.7354 56.1694 16.1338C57.6965 16.5321 58.626 18.1256 58.2276 19.6527L54.7751 32.4003C54.5096 33.7282 53.3145 34.5914 52.053 34.5914Z" fill="#E7EAEC"/>
</g>
</g>
</g>
<g id="Group_53">
<g id="Group_54">
<g id="Group_55">
<path id="Vector_22" d="M31.8692 82.1294H2.85494C1.26148 82.1294 0 80.868 0 79.2745C0 77.681 1.26148 76.4196 2.85494 76.4196H31.8692C33.4626 76.4196 34.7241 77.681 34.7241 79.2745C34.7905 80.8016 33.4626 82.1294 31.8692 82.1294Z" fill="#E7EAEC"/>
</g>
</g>
<g id="Group_56">
<g id="Group_57">
<path id="Vector_23" d="M15.5362 91.159C14.8059 91.159 14.0756 90.8934 13.478 90.2959C12.3493 89.1672 12.3493 87.3746 13.478 86.2459L20.5822 79.1417L13.2788 71.8383C12.1501 70.7096 12.1501 68.917 13.2788 67.7883C14.4075 66.6596 16.2002 66.6596 17.3289 67.7883L26.6904 77.1499C27.8191 78.2786 27.8191 80.0712 26.6904 81.1999L17.5944 90.2959C17.0633 90.8934 16.2666 91.159 15.5362 91.159Z" fill="#E7EAEC"/>
</g>
</g>
</g>
<g id="Group_58">
<g id="Group_59">
<g id="Group_60">
<path id="Vector_24" d="M41.2971 148.391C40.8324 148.391 40.3012 148.258 39.8365 147.992C38.4422 147.196 37.9774 145.403 38.7742 144.075L53.2481 118.978C54.0448 117.584 55.8374 117.119 57.1653 117.916C58.5596 118.713 59.0244 120.505 58.2276 121.833L43.7537 146.93C43.2226 147.86 42.293 148.391 41.2971 148.391Z" fill="#E7EAEC"/>
</g>
</g>
<g id="Group_61">
<g id="Group_62">
<path id="Vector_25" d="M55.5055 141.951C54.244 141.951 53.0489 141.088 52.7169 139.826L50.1275 130.132L40.102 132.788C38.575 133.187 36.9815 132.257 36.5831 130.73C36.1848 129.203 37.1143 127.61 38.6414 127.211L51.389 123.759C52.9161 123.36 54.5096 124.29 54.9079 125.817L58.2276 138.299C58.626 139.826 57.6965 141.419 56.1694 141.818C55.9702 141.884 55.7046 141.951 55.5055 141.951Z" fill="#E7EAEC"/>
</g>
</g>
</g>
<g id="Group_63">
<g id="Group_64">
<g id="Group_65">
<path id="Vector_26" d="M117.916 148.258C116.92 148.258 115.924 147.727 115.393 146.797L100.919 121.7C100.122 120.306 100.587 118.58 101.981 117.783C103.376 116.986 105.102 117.451 105.899 118.845L120.373 143.942C121.169 145.337 120.704 147.063 119.31 147.86C118.912 148.125 118.381 148.258 117.916 148.258Z" fill="#E7EAEC"/>
</g>
</g>
<g id="Group_66">
<g id="Group_67">
<path id="Vector_27" d="M103.508 142.216C103.243 142.216 102.977 142.216 102.778 142.15C101.251 141.751 100.322 140.158 100.72 138.631L104.172 125.817C104.372 125.086 104.836 124.423 105.5 124.091C106.164 123.692 106.961 123.626 107.691 123.825L120.173 127.145C121.7 127.543 122.63 129.136 122.232 130.664C121.833 132.191 120.24 133.12 118.713 132.722L109.019 130.132L106.363 140.158C105.965 141.353 104.77 142.216 103.508 142.216Z" fill="#E7EAEC"/>
</g>
</g>
</g>
<g id="Group_68">
<g id="Group_69">
<g id="Group_70">
<path id="Vector_28" d="M156.093 81.8639H127.078C125.485 81.8639 124.223 80.6025 124.223 79.009C124.223 77.4155 125.485 76.1541 127.078 76.1541H156.093C157.686 76.1541 158.948 77.4155 158.948 79.009C158.948 80.5361 157.686 81.8639 156.093 81.8639Z" fill="#E7EAEC"/>
</g>
</g>
<g id="Group_71">
<g id="Group_72">
<path id="Vector_29" d="M143.61 91.2918C142.88 91.2918 142.15 91.0262 141.552 90.4287L132.191 81.0671C131.66 80.536 131.328 79.8056 131.328 79.0089C131.328 78.2121 131.66 77.4818 132.191 76.9507L141.353 67.7883C142.482 66.6596 144.274 66.6596 145.403 67.7883C146.532 68.917 146.532 70.7096 145.403 71.8383L138.299 78.9425L145.602 86.2459C146.731 87.3746 146.731 89.1672 145.602 90.2959C145.071 91.0262 144.341 91.2918 143.61 91.2918Z" fill="#E7EAEC"/>
</g>
</g>
</g>
<g id="Group_73">
<g id="Group_74">
<g id="Group_75">
<path id="Vector_30" d="M103.176 40.6996C102.712 40.6996 102.181 40.5669 101.716 40.3013C100.322 39.5045 99.8567 37.7119 100.653 36.384L115.127 11.287C115.924 9.89276 117.717 9.42802 119.045 10.2247C120.439 11.0215 120.904 12.8141 120.107 14.142L105.633 39.239C105.168 40.1685 104.172 40.6996 103.176 40.6996Z" fill="#E7EAEC"/>
</g>
</g>
<g id="Group_76">
<g id="Group_77">
<path id="Vector_31" d="M106.828 34.525C106.297 34.525 105.832 34.3922 105.367 34.1266C104.704 33.7283 104.239 33.1307 104.04 32.4004L100.72 19.9183C100.321 18.3912 101.251 16.7978 102.778 16.3994C104.305 16.001 105.899 16.9305 106.297 18.4576L108.886 28.1512L118.912 25.4954C120.439 25.097 122.032 26.0265 122.431 27.5536C122.829 29.0807 121.9 30.6741 120.373 31.0725L107.558 34.525C107.359 34.4586 107.094 34.525 106.828 34.525Z" fill="#E7EAEC"/>
</g>
</g>
</g>
</g>
</svg>
