<svg width="68" height="68" viewBox="0 0 68 68" fill="none" xmlns="http://www.w3.org/2000/svg">
<path d="M33.2616 1.17319C15.5467 1.17319 1.17316 15.5467 1.17316 33.2616C1.17316 40.3552 3.4692 46.8886 7.35191 52.2087L3.26387 64.3048L16.0134 60.3288C20.9975 63.5021 26.9149 65.3503 33.2616 65.3503C50.9765 65.3503 65.3503 50.9765 65.3503 33.2616C65.3503 15.5467 50.9765 1.17319 33.2616 1.17319ZM47.9524 50.4727C42.1285 52.806 35.1843 50.5472 27.5869 44.7791C19.9895 39.0111 14.9867 30.891 14.6507 24.8616C14.3147 18.8321 19.2241 15.7894 21.8935 15.8081C24.5629 15.8268 27.4936 24.3576 27.5309 25.6642C27.5682 26.9896 24.2642 29.3417 24.1335 30.4617C24.0029 31.5818 28.6322 37.107 30.5923 38.6005C32.5337 40.0752 36.5471 42.9125 38.6192 42.6513C40.6725 42.3711 42.035 38.2458 43.3418 37.9845C44.6485 37.723 51.7791 41.2698 52.4886 42.1844C53.1981 43.118 53.1233 48.4191 47.9524 50.4727Z" fill="#8DBF49"/>
</svg>
