<svg width="124" height="135" viewBox="0 0 124 135" fill="none" xmlns="http://www.w3.org/2000/svg">
<mask id="path-1-inside-1_9_1566" fill="white">
<path fill-rule="evenodd" clip-rule="evenodd" d="M20 0C8.9543 0 0 8.9543 0 20V89C0 100.046 8.95431 109 20 109H58.8158L78.5 134.5L73.5789 109H104C115.046 109 124 100.046 124 89V20C124 8.95431 115.046 0 104 0H20Z"/>
</mask>
<path fill-rule="evenodd" clip-rule="evenodd" d="M20 0C8.9543 0 0 8.9543 0 20V89C0 100.046 8.95431 109 20 109H58.8158L78.5 134.5L73.5789 109H104C115.046 109 124 100.046 124 89V20C124 8.95431 115.046 0 104 0H20Z" fill="#2D2D2D" fill-opacity="0.25"/>
<path d="M58.8158 109L59.6074 108.389L59.3071 108H58.8158V109ZM78.5 134.5L77.7084 135.111L79.4819 134.311L78.5 134.5ZM73.5789 109V108H72.3675L72.5971 109.189L73.5789 109ZM1 20C1 9.50659 9.50659 1 20 1V-1C8.40202 -1 -1 8.40202 -1 20H1ZM1 89V20H-1V89H1ZM20 108C9.50659 108 1 99.4934 1 89H-1C-1 100.598 8.40202 110 20 110V108ZM58.8158 108H20V110H58.8158V108ZM79.2916 133.889L59.6074 108.389L58.0242 109.611L77.7084 135.111L79.2916 133.889ZM72.5971 109.189L77.5181 134.689L79.4819 134.311L74.5608 108.811L72.5971 109.189ZM104 108H73.5789V110H104V108ZM123 89C123 99.4934 114.493 108 104 108V110C115.598 110 125 100.598 125 89H123ZM123 20V89H125V20H123ZM104 1C114.493 1 123 9.50659 123 20H125C125 8.40202 115.598 -1 104 -1V1ZM20 1H104V-1H20V1Z" fill="#FFDE17" mask="url(#path-1-inside-1_9_1566)"/>
<path d="M43.193 73V64.516H46.349C46.765 64.516 47.141 64.568 47.477 64.672C47.821 64.768 48.113 64.912 48.353 65.104C48.593 65.288 48.777 65.512 48.905 65.776C49.033 66.04 49.097 66.336 49.097 66.664C49.097 67.136 48.969 67.528 48.713 67.84C48.465 68.144 48.149 68.396 47.765 68.596C48.293 68.78 48.713 69.048 49.025 69.4C49.337 69.752 49.493 70.192 49.493 70.72C49.493 71.088 49.417 71.416 49.265 71.704C49.121 71.984 48.921 72.22 48.665 72.412C48.417 72.604 48.121 72.752 47.777 72.856C47.441 72.952 47.077 73 46.685 73H43.193ZM46.625 71.836C47.057 71.836 47.401 71.728 47.657 71.512C47.913 71.288 48.041 70.984 48.041 70.6C48.041 70.192 47.909 69.868 47.645 69.628C47.381 69.388 47.041 69.268 46.625 69.268H44.621V71.836H46.625ZM46.217 68.128C46.665 68.128 47.013 68.016 47.261 67.792C47.517 67.568 47.645 67.264 47.645 66.88C47.645 66.512 47.521 66.22 47.273 66.004C47.033 65.788 46.681 65.68 46.217 65.68H44.621V68.128H46.217ZM50.8925 73V64.516H52.3205V67.864H53.8805C54.3125 67.864 54.7005 67.924 55.0445 68.044C55.3885 68.164 55.6845 68.336 55.9325 68.56C56.1805 68.776 56.3685 69.044 56.4965 69.364C56.6325 69.684 56.7005 70.04 56.7005 70.432C56.7005 70.832 56.6325 71.192 56.4965 71.512C56.3685 71.824 56.1805 72.092 55.9325 72.316C55.6845 72.532 55.3885 72.7 55.0445 72.82C54.7005 72.94 54.3125 73 53.8805 73H50.8925ZM53.8085 71.824C54.2805 71.824 54.6445 71.708 54.9005 71.476C55.1565 71.236 55.2845 70.888 55.2845 70.432C55.2845 69.976 55.1565 69.632 54.9005 69.4C54.6445 69.16 54.2805 69.04 53.8085 69.04H52.3205V71.824H53.8085ZM59.4965 73H58.0685V64.516H59.4965V73ZM66.9465 73H61.4625V64.516H66.9465V65.692H62.8905V68.152H66.2025V69.328H62.8905V71.824H66.9465V73ZM68.0515 71.548C68.3155 71.636 68.6275 71.716 68.9875 71.788C69.3475 71.86 69.7315 71.896 70.1395 71.896C70.4195 71.896 70.6755 71.872 70.9075 71.824C71.1475 71.776 71.3515 71.7 71.5195 71.596C71.6955 71.484 71.8315 71.344 71.9275 71.176C72.0235 71.008 72.0715 70.804 72.0715 70.564C72.0715 70.18 71.9315 69.86 71.6515 69.604C71.3715 69.348 70.9435 69.22 70.3675 69.22H68.8795V68.032H70.1395C70.3555 68.032 70.5555 68.004 70.7395 67.948C70.9315 67.884 71.0995 67.8 71.2435 67.696C71.3875 67.584 71.4995 67.448 71.5795 67.288C71.6675 67.128 71.7115 66.944 71.7115 66.736C71.7115 66.528 71.6675 66.352 71.5795 66.208C71.4995 66.064 71.3835 65.948 71.2315 65.86C71.0875 65.772 70.9155 65.712 70.7155 65.68C70.5155 65.64 70.2955 65.62 70.0555 65.62C69.4715 65.62 68.9075 65.7 68.3635 65.86L68.1235 64.684C68.4275 64.588 68.7595 64.516 69.1195 64.468C69.4795 64.42 69.8355 64.396 70.1875 64.396C70.6035 64.396 70.9915 64.44 71.3515 64.528C71.7115 64.616 72.0235 64.752 72.2875 64.936C72.5595 65.112 72.7715 65.332 72.9235 65.596C73.0835 65.86 73.1635 66.168 73.1635 66.52C73.1635 66.952 73.0395 67.352 72.7915 67.72C72.5515 68.088 72.2275 68.368 71.8195 68.56C72.0595 68.632 72.2835 68.736 72.4915 68.872C72.6995 69 72.8795 69.156 73.0315 69.34C73.1835 69.524 73.3035 69.732 73.3915 69.964C73.4795 70.196 73.5235 70.456 73.5235 70.744C73.5235 71.152 73.4315 71.508 73.2475 71.812C73.0715 72.108 72.8315 72.356 72.5275 72.556C72.2235 72.748 71.8675 72.892 71.4595 72.988C71.0515 73.076 70.6195 73.12 70.1635 73.12C69.6835 73.12 69.2435 73.08 68.8435 73C68.4515 72.928 68.0755 72.836 67.7155 72.724L68.0515 71.548ZM82.5596 74.608H81.2876V73H75.3956V74.608H74.1236V71.824H75.4076C75.5756 71.512 75.7356 71.148 75.8876 70.732C76.0396 70.316 76.1756 69.82 76.2956 69.244C76.4236 68.66 76.5356 67.984 76.6316 67.216C76.7356 66.44 76.8196 65.54 76.8836 64.516H81.4916V71.824H82.5596V74.608ZM80.0636 71.824V65.692H78.2036C78.0756 67.124 77.8996 68.34 77.6756 69.34C77.4596 70.332 77.2156 71.16 76.9436 71.824H80.0636ZM37.0308 87H35.6268V80.724L31.5708 87H30.2028V78.516H31.6068V84.792L35.6628 78.516H37.0308V87ZM45.6635 87H44.2355V83.328H40.4315V87H39.0035V78.516H40.4315V82.152H44.2355V78.516H45.6635V87ZM57.4685 87.108C56.7885 86.444 56.1765 85.78 55.6325 85.116C55.0965 84.444 54.6125 83.792 54.1805 83.16H53.3285V86.964H51.9005V83.16H51.0485C50.6165 83.792 50.1285 84.444 49.5845 85.116C49.0485 85.78 48.4405 86.444 47.7605 87.108L46.7285 86.208C47.3525 85.584 47.9205 84.972 48.4325 84.372C48.9525 83.772 49.4165 83.184 49.8245 82.608L48.8165 81.012C48.5525 80.588 48.2685 80.26 47.9645 80.028C47.6685 79.796 47.3685 79.672 47.0645 79.656L47.3285 78.48C47.6085 78.48 47.8645 78.524 48.0965 78.612C48.3285 78.692 48.5405 78.804 48.7325 78.948C48.9325 79.092 49.1125 79.264 49.2725 79.464C49.4405 79.664 49.5965 79.876 49.7405 80.1L51.0245 82.128H51.9005V78.48H53.3285V82.128H54.2045L55.4885 80.1C55.6325 79.876 55.7845 79.664 55.9445 79.464C56.1125 79.264 56.2925 79.092 56.4845 78.948C56.6845 78.804 56.9005 78.692 57.1325 78.612C57.3645 78.524 57.6205 78.48 57.9005 78.48L58.1645 79.656C57.8605 79.672 57.5565 79.796 57.2525 80.028C56.9565 80.26 56.6765 80.588 56.4125 81.012L55.4045 82.608C55.8125 83.184 56.2725 83.772 56.7845 84.372C57.3045 84.972 57.8765 85.584 58.5005 86.208L57.4685 87.108ZM65.0539 87H59.5699V78.516H65.0539V79.692H60.9979V82.152H64.3099V83.328H60.9979V85.824H65.0539V87ZM73.1909 87H71.7629V83.328H67.9589V87H66.5309V78.516H67.9589V82.152H71.7629V78.516H73.1909V87ZM80.6399 87H75.1559V78.516H80.6399V79.692H76.5839V82.152H79.8959V83.328H76.5839V85.824H80.6399V87ZM83.5448 87H82.1168V78.516H85.2488C85.6568 78.516 86.0328 78.58 86.3768 78.708C86.7208 78.828 87.0168 79.004 87.2648 79.236C87.5128 79.468 87.7048 79.748 87.8408 80.076C87.9848 80.396 88.0568 80.76 88.0568 81.168C88.0568 81.576 87.9848 81.944 87.8408 82.272C87.7048 82.592 87.5128 82.868 87.2648 83.1C87.0168 83.332 86.7208 83.512 86.3768 83.64C86.0328 83.76 85.6568 83.82 85.2488 83.82H83.5448V87ZM85.1048 82.644C85.5528 82.644 85.9128 82.512 86.1848 82.248C86.4648 81.984 86.6048 81.624 86.6048 81.168C86.6048 80.712 86.4648 80.352 86.1848 80.088C85.9128 79.824 85.5528 79.692 85.1048 79.692H83.5448V82.644H85.1048ZM95.6315 87H94.1075L93.2675 84.708H89.9555L89.1275 87H87.6635L90.9395 78.516H92.3435L95.6315 87ZM92.8715 83.568L91.6115 80.124L90.3635 83.568H92.8715Z" fill="white"/>
<path d="M61.6676 48.25C63.3543 48.25 64.6423 47.7747 65.5316 46.824C66.4209 45.8427 66.8656 44.662 66.8656 43.282V31.368C66.8656 29.7733 66.4209 28.5007 65.5316 27.55C64.6729 26.5993 63.4156 26.124 61.7596 26.124C60.0729 26.124 58.7849 26.63 57.8956 27.642C57.0063 28.654 56.5616 29.896 56.5616 31.368V43.236C56.5616 44.708 56.9909 45.9193 57.8496 46.87C58.7083 47.79 59.9809 48.25 61.6676 48.25ZM61.7136 54.46C59.8736 54.46 58.2329 54.1993 56.7916 53.678C55.3809 53.126 54.1849 52.3747 53.2036 51.424C52.2529 50.4427 51.5323 49.2927 51.0416 47.974C50.5509 46.6247 50.3056 45.1373 50.3056 43.512V31.184C50.3056 29.5893 50.5816 28.1173 51.1336 26.768C51.6856 25.388 52.4676 24.192 53.4796 23.18C54.4916 22.168 55.6876 21.386 57.0676 20.834C58.4783 20.2513 60.0269 19.96 61.7136 19.96C63.4616 19.96 65.0256 20.2513 66.4056 20.834C67.8163 21.4167 69.0123 22.214 69.9936 23.226C71.0056 24.238 71.7723 25.434 72.2936 26.814C72.8456 28.1633 73.1216 29.6047 73.1216 31.138V43.512C73.1216 45.168 72.8609 46.6707 72.3396 48.02C71.8183 49.3387 71.0669 50.4887 70.0856 51.47C69.1349 52.4207 67.9389 53.1567 66.4976 53.678C65.0869 54.1993 63.4923 54.46 61.7136 54.46ZM90.6794 36.654H85.0766V39H81.323V36.654H79.3082V33.8388H81.323V32.7348H79.3082V29.3676H81.323V18.852H87.9194C88.9682 18.852 89.9342 19.036 90.8174 19.404C91.7006 19.7536 92.4642 20.2504 93.1082 20.8944C93.7522 21.52 94.249 22.2652 94.5986 23.13C94.9666 23.9764 95.1506 24.8964 95.1506 25.89C95.1506 26.8652 94.9666 27.776 94.5986 28.6224C94.249 29.4504 93.743 30.168 93.0806 30.7752C92.4366 31.3824 91.673 31.8608 90.7898 32.2104C89.9066 32.56 88.9406 32.7348 87.8918 32.7348H85.0766V33.8388H90.6794V36.654ZM85.0766 22.3296V29.3676H87.6434C88.1954 29.3676 88.7014 29.2848 89.1614 29.1192C89.6214 28.9352 90.0078 28.696 90.3206 28.4016C90.6518 28.0888 90.9094 27.7208 91.0934 27.2976C91.2774 26.856 91.3694 26.3868 91.3694 25.89C91.3694 25.3748 91.2774 24.9056 91.0934 24.4824C90.9094 24.0408 90.6518 23.6636 90.3206 23.3508C90.0078 23.0196 89.6214 22.7712 89.1614 22.6056C88.7014 22.4216 88.1954 22.3296 87.6434 22.3296H85.0766Z" fill="#FFDE17"/>
<line x1="34" y1="45.5" x2="4.37114e-08" y2="45.5" stroke="url(#paint0_linear_9_1566)"/>
<line y1="-0.5" x2="34" y2="-0.5" transform="matrix(1 8.74228e-08 8.74228e-08 -1 90 45)" stroke="url(#paint1_linear_9_1566)"/>
<circle cx="34.5" cy="68.5" r="2.5" fill="#8DC63F"/>
<defs>
<linearGradient id="paint0_linear_9_1566" x1="0" y1="45" x2="37.5" y2="45" gradientUnits="userSpaceOnUse">
<stop stop-color="#FFDE17"/>
<stop offset="1" stop-color="#FFDE16" stop-opacity="0"/>
</linearGradient>
<linearGradient id="paint1_linear_9_1566" x1="34" y1="1.02285e-05" x2="-3.5" y2="-1.02263e-06" gradientUnits="userSpaceOnUse">
<stop stop-color="#FFDE17"/>
<stop offset="1" stop-color="#FFDE16" stop-opacity="0"/>
</linearGradient>
</defs>
</svg>
